<?xml version="1.0" encoding="UTF-8" ?>
<!DOCTYPE svg PUBLIC "-//W3C//DTD SVG 1.1//EN" "http://www.w3.org/Graphics/SVG/1.1/DTD/svg11.dtd">
<svg width="570pt" height="513pt" viewBox="0 0 570 513" version="1.1" xmlns="http://www.w3.org/2000/svg">
<g id="#76828bff">
<path fill="#76828b" opacity="1.00" d=" M 448.87 57.59 C 456.80 53.13 464.96 48.33 474.13 47.10 C 474.02 54.36 470.27 60.77 467.30 67.18 C 455.37 89.44 439.96 109.59 424.36 129.37 C 393.56 167.59 359.77 203.40 323.43 236.39 C 301.59 255.65 278.92 274.61 252.70 287.67 C 252.14 297.55 248.76 307.17 243.57 315.56 C 237.08 326.09 228.70 335.30 220.00 344.01 C 213.08 351.04 204.33 356.12 195.00 359.20 C 181.97 363.67 168.14 364.78 154.51 365.88 C 159.62 366.76 164.82 366.21 169.98 366.28 C 215.00 366.27 260.02 366.25 305.04 366.29 C 305.11 368.37 305.16 370.46 305.23 372.55 C 231.49 372.84 157.75 372.58 84.01 372.68 C 84.00 370.54 84.00 368.40 84.00 366.27 C 96.03 366.30 108.05 366.23 120.07 366.30 C 124.54 366.45 128.69 364.47 132.72 362.80 C 141.54 358.94 149.09 352.58 154.97 345.01 C 164.02 333.43 170.61 320.18 179.31 308.34 C 186.01 299.15 193.99 290.72 203.60 284.54 C 212.92 278.39 223.31 273.96 234.11 271.18 C 239.48 260.89 245.90 251.19 252.94 241.98 C 272.69 216.00 294.99 192.10 317.59 168.61 C 337.33 148.31 357.85 128.77 379.18 110.16 C 401.26 91.20 423.89 72.65 448.87 57.59 M 203.02 292.91 C 194.12 299.50 187.16 308.27 180.98 317.36 C 187.66 320.01 194.97 320.61 202.10 320.57 C 214.02 320.32 225.42 316.15 236.14 311.24 C 237.61 310.44 239.46 309.87 240.19 308.21 C 245.69 298.23 246.90 286.58 246.46 275.37 C 230.90 277.77 215.64 283.36 203.02 292.91 Z" />
<path fill="#76828b" opacity="1.00" d=" M 422.80 275.70 C 425.74 268.39 433.21 263.82 440.97 263.62 C 454.35 263.46 467.74 263.59 481.13 263.57 C 489.25 263.64 497.38 263.60 505.50 263.55 C 513.53 263.85 521.98 262.50 529.63 265.57 C 536.43 268.39 540.83 275.73 540.49 283.02 C 540.45 344.70 540.51 406.38 540.47 468.06 C 540.53 474.75 536.43 481.22 530.49 484.22 C 525.74 486.73 520.18 486.49 514.98 486.27 C 492.66 486.25 470.33 486.27 448.01 486.27 C 443.47 486.21 438.84 486.60 434.40 485.41 C 430.53 484.21 427.36 481.57 424.69 478.61 C 423.24 475.20 421.26 471.80 421.46 467.97 C 421.43 458.35 421.49 448.73 421.44 439.12 C 421.41 422.79 421.35 406.47 421.45 390.15 C 421.47 359.75 421.45 329.34 421.46 298.94 C 421.54 292.32 421.25 285.70 421.66 279.10 C 422.07 277.97 422.45 276.84 422.80 275.70 M 466.33 281.76 C 466.61 284.17 468.20 286.13 470.76 286.11 C 477.51 286.26 484.28 286.19 491.04 286.15 C 492.72 286.25 493.99 284.95 495.40 284.23 C 495.38 283.40 495.33 281.73 495.31 280.90 C 494.19 280.39 493.21 279.43 491.93 279.40 C 486.61 279.23 481.28 279.45 475.95 279.35 C 472.59 279.44 468.55 278.50 466.33 281.76 M 429.56 301.42 C 429.64 350.53 429.66 399.64 429.55 448.74 C 463.88 448.58 498.20 448.65 532.52 448.70 C 532.42 399.61 532.35 350.52 532.56 301.43 C 498.23 301.51 463.89 301.52 429.56 301.42 M 476.59 457.79 C 473.27 459.61 470.26 463.06 470.42 467.04 C 469.94 472.83 475.42 478.04 481.02 478.36 C 487.10 478.10 492.76 472.14 491.61 465.91 C 490.72 459.34 482.69 454.42 476.59 457.79 Z" />
</g>
<g id="#999999ff">
<path fill="#999999" opacity="1.00" d=" M 47.30 128.45 C 52.95 118.73 63.30 110.39 75.06 110.98 C 165.28 111.09 255.50 110.86 345.71 111.09 C 338.26 117.47 331.35 124.45 324.26 131.21 C 322.72 132.54 321.36 134.66 319.04 134.31 C 235.19 134.36 151.32 134.28 67.47 134.35 C 67.54 219.61 67.48 304.88 67.50 390.15 C 185.48 390.15 303.46 390.14 421.45 390.15 C 421.35 406.47 421.41 422.79 421.44 439.12 C 306.63 439.14 191.82 439.11 77.01 439.13 C 73.02 439.06 68.75 439.68 65.12 437.60 C 57.44 434.29 50.52 428.72 46.86 421.07 C 44.38 416.09 43.14 410.54 43.29 404.98 C 43.29 318.98 43.30 232.98 43.28 146.99 C 43.04 140.60 44.24 134.10 47.30 128.45 M 264.51 407.36 C 259.32 411.51 259.03 419.90 263.22 424.83 C 267.76 430.44 277.41 430.58 282.08 425.05 C 285.59 421.48 285.61 416.06 284.41 411.51 C 281.09 404.21 270.35 401.67 264.51 407.36 Z" />
<path fill="#999999" opacity="1.00" d=" M 465.14 111.16 C 469.69 110.99 474.28 110.76 478.82 111.22 C 494.18 114.34 505.78 129.47 505.50 145.03 C 505.49 184.54 505.49 224.04 505.50 263.55 C 497.38 263.60 489.25 263.64 481.13 263.57 C 481.12 220.49 481.13 177.40 481.13 134.32 C 470.14 134.30 459.15 134.37 448.16 134.28 C 453.83 126.58 459.92 119.17 465.14 111.16 Z" />
<path fill="#999999" opacity="1.00" d=" M 220.67 448.43 C 221.86 447.11 223.08 445.32 225.11 445.51 C 256.76 445.41 288.41 445.50 320.06 445.47 C 322.20 445.22 325.17 446.36 325.09 448.89 C 325.21 455.59 325.06 462.30 325.14 469.00 C 325.11 471.76 325.42 474.63 324.37 477.27 C 290.25 477.13 256.12 477.27 222.00 477.20 C 221.69 476.73 221.07 475.78 220.76 475.31 C 220.74 466.35 220.91 457.39 220.67 448.43 Z" />
<path fill="#999999" opacity="1.00" d=" M 192.65 482.42 C 194.44 482.13 196.24 481.81 198.06 481.77 C 251.37 481.72 304.69 481.81 358.00 481.71 C 359.76 481.70 361.50 482.03 363.22 482.38 C 363.20 484.54 363.18 486.71 363.17 488.89 C 306.35 488.96 249.52 489.05 192.70 488.84 C 192.68 486.70 192.67 484.55 192.65 482.42 Z" />
</g>
</svg>
