<?xml version="1.0" encoding="UTF-8" standalone="no"?>
<!-- Created with Inkscape (http://www.inkscape.org/) -->

<svg
   xmlns:dc="http://purl.org/dc/elements/1.1/"
   xmlns:cc="http://creativecommons.org/ns#"
   xmlns:rdf="http://www.w3.org/1999/02/22-rdf-syntax-ns#"
   xmlns:svg="http://www.w3.org/2000/svg"
   xmlns="http://www.w3.org/2000/svg"
   xmlns:sodipodi="http://sodipodi.sourceforge.net/DTD/sodipodi-0.dtd"
   xmlns:inkscape="http://www.inkscape.org/namespaces/inkscape"
   width="10.137295mm"
   height="10.137295mm"
   viewBox="0 0 35.919548 35.919548"
   id="svg2"
   version="1.1"
   inkscape:version="0.91 r13725"
   sodipodi:docname="develop.svg">
  <defs
     id="defs4">
    <pattern
       y="0"
       x="0"
       height="6"
       width="6"
       patternUnits="userSpaceOnUse"
       id="EMFhbasepattern" />
    <pattern
       y="0"
       x="0"
       height="6"
       width="6"
       patternUnits="userSpaceOnUse"
       id="EMFhbasepattern-6" />
  </defs>
  <sodipodi:namedview
     id="base"
     pagecolor="#ffffff"
     bordercolor="#666666"
     borderopacity="1.0"
     inkscape:pageopacity="0.0"
     inkscape:pageshadow="2"
     inkscape:zoom="8"
     inkscape:cx="-27.515535"
     inkscape:cy="26.790146"
     inkscape:document-units="px"
     inkscape:current-layer="layer1"
     showgrid="false"
     fit-margin-top="0"
     fit-margin-left="0"
     fit-margin-right="0"
     fit-margin-bottom="0"
     inkscape:window-width="1920"
     inkscape:window-height="1017"
     inkscape:window-x="1912"
     inkscape:window-y="-8"
     inkscape:window-maximized="1" />
  <metadata
     id="metadata7">
    <rdf:RDF>
      <cc:Work
         rdf:about="">
        <dc:format>image/svg+xml</dc:format>
        <dc:type
           rdf:resource="http://purl.org/dc/dcmitype/StillImage" />
        <dc:title />
      </cc:Work>
    </rdf:RDF>
  </metadata>
  <g
     inkscape:label="Layer 1"
     inkscape:groupmode="layer"
     id="layer1"
     transform="translate(-286.15512,-510.46611)">
    <path
       inkscape:connector-curvature="0"
       id="path4192"
       d="m 322.07467,528.43647 c 0,9.90594 -8.04325,17.94919 -17.94919,17.94919 -9.92708,0 -17.97036,-8.04325 -17.97036,-17.94919 0,-9.92708 8.04328,-17.97036 17.97036,-17.97036 9.90594,0 17.94919,8.04328 17.94919,17.97036 z"
       style="fill:#516356;fill-opacity:1;fill-rule:nonzero;stroke:none" />
    <path
       inkscape:connector-curvature="0"
       id="path4194"
       d="m 295.57423,537.51691 c -0.14817,-0.0635 -0.33867,-0.23283 -0.4445,-0.381 l -0.1905,-0.254 0,-8.44544 0,-8.46658 0.1905,-0.254 c 0.40217,-0.52917 -0.23283,-0.508 8.99575,-0.508 9.20744,0 8.57244,-0.0212 8.97461,0.508 l 0.1905,0.254 0,8.46658 0,8.44544 -0.1905,0.254 c -0.40217,0.52917 0.23283,0.508 -8.99578,0.508 -7.53528,-0.0212 -8.31844,-0.0212 -8.53008,-0.127 z m 9.10158,-7.36594 c 0.762,-2.05317 1.37584,-3.74647 1.37584,-3.78881 0,-0.0212 -0.23284,-0.14816 -0.508,-0.254 l -0.52917,-0.1905 -1.41817,3.83114 c -0.78314,2.11664 -1.41814,3.87347 -1.41814,3.89464 0,0.0423 0.23284,0.14817 0.508,0.254 0.46567,0.16933 0.52917,0.1905 0.5715,0.0847 0.0212,-0.0635 0.67731,-1.79917 1.41814,-3.83114 z m -3.42897,2.60347 c 0.1905,-0.16933 0.35983,-0.35983 0.35983,-0.40217 0,-0.0423 -0.48683,-0.55033 -1.0795,-1.14297 l -1.0583,-1.05833 1.0583,-1.05833 c 0.59267,-0.59267 1.0795,-1.10067 1.0795,-1.12184 0,-0.10583 -0.67733,-0.76197 -0.762,-0.76197 -0.0423,0 -0.74083,0.65614 -1.54514,1.46047 l -1.48166,1.48167 1.48166,1.48164 c 0.80431,0.80433 1.50281,1.4605 1.54514,1.4605 0.0423,0 0.21167,-0.14817 0.40217,-0.33867 z m 7.68344,-1.12183 1.48167,-1.48164 -1.48167,-1.48167 c -0.80433,-0.80433 -1.50283,-1.46047 -1.54516,-1.46047 -0.0847,0 -0.76197,0.65614 -0.76197,0.7408 0,0.0423 0.48683,0.55034 1.07947,1.14301 l 1.05833,1.05833 -1.05833,1.05833 c -0.59264,0.59264 -1.07947,1.10064 -1.07947,1.14297 0,0.0847 0.6773,0.74084 0.76197,0.74084 0.0423,0 0.74083,-0.65617 1.54516,-1.4605 z m 3.23848,-10.11759 0,-1.143 -8.04328,0 -8.06444,0 0,1.143 0,1.16417 8.06444,0 8.04328,0 0,-1.16417 z m -15.36689,0.40217 c -0.33867,-0.35983 -0.10584,-0.97367 0.40217,-0.97367 0.29633,0 0.57149,0.27517 0.57149,0.5715 0,0.14817 -0.0635,0.29634 -0.16933,0.40217 -0.10583,0.10583 -0.254,0.16933 -0.40216,0.16933 -0.127,0 -0.27517,-0.0635 -0.40217,-0.16933 z m 1.43933,0 c -0.10583,-0.10583 -0.16933,-0.254 -0.16933,-0.40217 0,-0.50799 0.61383,-0.74083 0.97367,-0.40216 0.10583,0.127 0.16933,0.27517 0.16933,0.40216 0,0.14817 -0.0635,0.29634 -0.16933,0.40217 -0.10584,0.10583 -0.25401,0.16933 -0.40217,0.16933 -0.127,0 -0.27517,-0.0635 -0.40217,-0.16933 z m 1.43931,0 c -0.35981,-0.35983 -0.10584,-0.97367 0.40216,-0.97367 0.29634,0 0.5715,0.27517 0.5715,0.5715 0,0.29634 -0.27516,0.5715 -0.5715,0.5715 -0.127,0 -0.27516,-0.0635 -0.40216,-0.16933 z"
       style="fill:#e8e8e8;fill-opacity:1;fill-rule:nonzero;stroke:none" />
    <path
       style="fill:none;fill-rule:evenodd;stroke:#6857fd;stroke-width:1.3;stroke-linecap:butt;stroke-linejoin:miter;stroke-opacity:1;stroke-miterlimit:4;stroke-dasharray:none"
       d="m 305.58477,526.11947 -2.90419,7.79712"
       id="path4137"
       inkscape:connector-curvature="0" />
    <path
       style="fill:none;fill-rule:evenodd;stroke:#6857fd;stroke-width:1.3;stroke-linecap:butt;stroke-linejoin:miter;stroke-opacity:1;stroke-miterlimit:4;stroke-dasharray:none"
       d="m 306.98952,527.50843 2.57273,2.62009 -2.54117,2.65165"
       id="path4139"
       inkscape:connector-curvature="0" />
    <path
       style="fill:none;fill-rule:evenodd;stroke:#6857fd;stroke-width:1.3;stroke-linecap:butt;stroke-linejoin:miter;stroke-miterlimit:4;stroke-dasharray:none;stroke-opacity:1"
       d="m 301.2193,527.51105 -2.57273,2.62009 2.54117,2.65165"
       id="path4139-7"
       inkscape:connector-curvature="0" />
    <circle
       style="opacity:1;fill:#ff0000;fill-opacity:1;fill-rule:nonzero;stroke:none;stroke-width:0.13699999;stroke-linecap:round;stroke-linejoin:miter;stroke-miterlimit:4;stroke-dasharray:none;stroke-opacity:1"
       id="path4156"
       cx="297.21008"
       cy="521.51501"
       r="0.58554006" />
    <circle
       style="opacity:1;fill:#ffb100;fill-opacity:1;fill-rule:nonzero;stroke:none;stroke-width:0.13699999;stroke-linecap:round;stroke-linejoin:miter;stroke-miterlimit:4;stroke-dasharray:none;stroke-opacity:1"
       id="path4156-9"
       cx="298.65424"
       cy="521.51501"
       r="0.58554006" />
    <circle
       style="opacity:1;fill:#00d308;fill-opacity:1;fill-rule:nonzero;stroke:none;stroke-width:0.13699999;stroke-linecap:round;stroke-linejoin:miter;stroke-miterlimit:4;stroke-dasharray:none;stroke-opacity:1"
       id="path4156-1"
       cx="300.09839"
       cy="521.51501"
       r="0.58554006" />
  </g>
</svg>
