<?xml version="1.0" encoding="UTF-8" standalone="no"?>
<!-- Created with Inkscape (http://www.inkscape.org/) -->

<svg
   xmlns:dc="http://purl.org/dc/elements/1.1/"
   xmlns:cc="http://creativecommons.org/ns#"
   xmlns:rdf="http://www.w3.org/1999/02/22-rdf-syntax-ns#"
   xmlns:svg="http://www.w3.org/2000/svg"
   xmlns="http://www.w3.org/2000/svg"
   xmlns:sodipodi="http://sodipodi.sourceforge.net/DTD/sodipodi-0.dtd"
   xmlns:inkscape="http://www.inkscape.org/namespaces/inkscape"
   width="10.137295mm"
   height="10.137295mm"
   viewBox="0 0 35.919548 35.919548"
   id="svg2"
   version="1.1"
   inkscape:version="0.91 r13725"
   sodipodi:docname="brainstorm.svg">
  <defs
     id="defs4">
    <pattern
       y="0"
       x="0"
       height="6"
       width="6"
       patternUnits="userSpaceOnUse"
       id="EMFhbasepattern" />
  </defs>
  <sodipodi:namedview
     id="base"
     pagecolor="#ffffff"
     bordercolor="#666666"
     borderopacity="1.0"
     inkscape:pageopacity="0.0"
     inkscape:pageshadow="2"
     inkscape:zoom="5.6"
     inkscape:cx="-10.134829"
     inkscape:cy="18.816229"
     inkscape:document-units="px"
     inkscape:current-layer="layer1"
     showgrid="false"
     fit-margin-top="0"
     fit-margin-left="0"
     fit-margin-right="0"
     fit-margin-bottom="0"
     inkscape:window-width="1920"
     inkscape:window-height="1017"
     inkscape:window-x="1912"
     inkscape:window-y="-8"
     inkscape:window-maximized="1" />
  <metadata
     id="metadata7">
    <rdf:RDF>
      <cc:Work
         rdf:about="">
        <dc:format>image/svg+xml</dc:format>
        <dc:type
           rdf:resource="http://purl.org/dc/dcmitype/StillImage" />
        <dc:title />
      </cc:Work>
    </rdf:RDF>
  </metadata>
  <g
     inkscape:label="Layer 1"
     inkscape:groupmode="layer"
     id="layer1"
     transform="translate(-287.75451,-502.97386)">
    <path
       inkscape:connector-curvature="0"
       id="path4141"
       d="m 323.67406,520.94422 c 0,9.90594 -8.04325,17.94919 -17.94919,17.94919 -9.92708,0 -17.97036,-8.04325 -17.97036,-17.94919 0,-9.92709 8.04328,-17.97036 17.97036,-17.97036 9.90594,0 17.94919,8.04327 17.94919,17.97036 z"
       style="fill:#516356;fill-opacity:1;fill-rule:nonzero;stroke:none" />
    <path
       inkscape:connector-curvature="0"
       id="path4143"
       d="m 303.54473,534.70241 c -0.0212,-0.0212 -0.0423,-0.0212 -0.0423,-0.0635 0,-0.0423 0,-0.0212 0.3175,-1.10067 0.127,-0.4445 0.254,-0.86783 0.29633,-0.97366 0.0212,-0.0847 0.0847,-0.3175 0.14817,-0.508 0.0423,-0.1905 0.10583,-0.42334 0.14817,-0.52917 0.0212,-0.0847 0.0847,-0.27517 0.10583,-0.40208 0.0423,-0.127 0.0847,-0.23284 0.0847,-0.23284 0,-0.0212 -0.0847,-0.0212 -0.78317,-0.0212 l -0.78316,0.0212 -0.0212,-0.0212 c -0.0212,-0.0212 -0.0423,-0.0423 -0.0423,-0.0635 0,-0.0212 0.3175,-0.78316 0.8255,-1.92616 0.42333,-1.03717 0.80433,-1.88381 0.8255,-1.90497 0,-0.0423 0.0212,-0.0635 0.0423,-0.0635 0,0 0.6138,0 1.90497,0 l 1.88383,0 0.0423,0.0212 c 0.0212,0 0.0212,0.0212 0.0212,0.0635 0,0.0212 -0.0212,0.0423 -0.381,0.42333 -0.21167,0.21167 -0.40217,0.38097 -0.40217,0.38097 0,0.0212 -0.91016,0.93133 -1.3335,1.35467 -0.254,0.254 -0.46566,0.46566 -0.46566,0.48683 0,0 0.27516,0 1.03716,0 1.016,0 1.016,0 1.03717,0.0212 0.0212,0.0212 0.0212,0.0423 0.0212,0.0635 0,0.0423 0,0.0635 -0.127,0.1905 -0.0847,0.0847 -0.254,0.27517 -0.381,0.42333 -0.65617,0.762 -0.91017,1.03709 -0.97367,1.10059 -0.0423,0.0423 -0.381,0.42333 -1.12183,1.24883 -0.1905,0.23283 -0.4445,0.508 -0.76197,0.84667 -0.10583,0.127 -0.27517,0.3175 -0.35983,0.40216 -0.0847,0.10584 -0.254,0.29634 -0.40217,0.46567 -0.127,0.14817 -0.254,0.29633 -0.27517,0.29633 -0.0212,0.0212 -0.0635,0.0212 -0.0847,0 z"
       style="fill:#f7da22;fill-opacity:1;fill-rule:nonzero;stroke:none" />
    <path
       inkscape:connector-curvature="0"
       id="path4145"
       d="m 297.68159,531.50624 c -0.0212,-0.0212 -0.0212,-0.0212 -0.0212,-0.0423 0,-0.0423 0,-0.0212 0.23283,-0.82541 0.0847,-0.3175 0.1905,-0.635 0.21167,-0.6985 0.0212,-0.0635 0.0635,-0.254 0.10583,-0.381 0.0423,-0.14817 0.0847,-0.3175 0.10583,-0.381 0.0212,-0.0635 0.0635,-0.21167 0.0847,-0.29634 0.0423,-0.0847 0.0635,-0.16933 0.0635,-0.16933 0,-0.0212 -0.0635,-0.0212 -0.5715,-0.0212 l -0.59267,0.0212 0,-0.0212 c -0.0211,-0.0212 -0.0211,-0.0423 -0.0211,-0.0423 0,-0.0212 0.2328,-0.5715 0.59264,-1.41814 0.3175,-0.762 0.59266,-1.397 0.59266,-1.397 0.0212,-0.0212 0.0423,-0.0423 0.0423,-0.0423 0,0 0.46567,0 1.397,0 l 1.39697,0 0.0212,0 c 0,0.0212 0.0212,0.0212 0.0212,0.0423 0,0.0423 -0.0212,0.0635 -0.2963,0.3175 -0.14817,0.16933 -0.27517,0.29633 -0.27517,0.29633 -0.0212,0 -0.67733,0.67734 -0.97366,0.99484 -0.1905,0.1905 -0.33867,0.33864 -0.33867,0.33864 0,0.0212 0.1905,0.0212 0.74083,0.0212 0.74084,0 0.74084,0 0.762,0 0.0212,0.0212 0.0212,0.0423 0.0212,0.0635 0,0.0212 0,0.0423 -0.10583,0.127 -0.0423,0.0635 -0.16933,0.21166 -0.27517,0.3175 -0.48683,0.55033 -0.67733,0.762 -0.6985,0.80433 -0.0423,0.0212 -0.29633,0.3175 -0.8255,0.91017 -0.14816,0.16933 -0.33866,0.35983 -0.5715,0.635 -0.0847,0.0847 -0.1905,0.23283 -0.254,0.29633 -0.0635,0.0635 -0.1905,0.21167 -0.29633,0.31742 -0.10583,0.127 -0.1905,0.23283 -0.21167,0.23283 -0.0212,0.0212 -0.0423,0.0212 -0.0635,0 z"
       style="fill:#f7da22;fill-opacity:1;fill-rule:nonzero;stroke:none" />
    <path
       inkscape:connector-curvature="0"
       id="path4147"
       d="m 310.80484,531.52741 c 0,0 0,-0.0212 0,-0.0423 0,-0.0212 -0.0212,-0.0212 0.21167,-0.82542 0.10583,-0.3175 0.1905,-0.635 0.21166,-0.6985 0.0212,-0.0635 0.0635,-0.23283 0.10584,-0.381 0.0423,-0.127 0.10583,-0.3175 0.127,-0.381 0.0212,-0.0635 0.0423,-0.21166 0.0847,-0.29633 0.0212,-0.0847 0.0423,-0.16933 0.0423,-0.16933 0,-0.0212 -0.0635,-0.0212 -0.5715,-0.0212 l -0.5715,0.0212 -0.0212,-0.0212 c -0.0212,-0.0212 -0.0212,-0.0212 -0.0212,-0.0423 0,-0.0212 0.23283,-0.5715 0.59266,-1.41814 0.33867,-0.74084 0.59267,-1.37584 0.61384,-1.397 0,-0.0212 0.0212,-0.0423 0.0212,-0.0423 0.0212,0 0.46566,0 1.41814,0 l 1.37583,0 0.0212,0 c 0.0212,0.0212 0.0212,0.0423 0.0212,0.0635 0,0.0212 -0.0212,0.0423 -0.27517,0.29633 -0.16933,0.16933 -0.29633,0.29633 -0.29633,0.29633 0,0.0212 -0.65617,0.67734 -0.97367,0.99484 -0.1905,0.1905 -0.33867,0.33864 -0.33867,0.33864 0,0.0212 0.1905,0.0212 0.74084,0.0212 0.74083,0 0.762,0 0.78316,0.0212 0,0 0.0212,0.0212 0.0212,0.0423 0,0.0212 -0.0212,0.0423 -0.10583,0.127 -0.0635,0.0635 -0.1905,0.21166 -0.27517,0.3175 -0.48683,0.55033 -0.67733,0.762 -0.71966,0.80433 -0.0423,0.0212 -0.29634,0.3175 -0.82547,0.91017 -0.14817,0.16933 -0.3175,0.381 -0.55034,0.635 -0.0847,0.0847 -0.21166,0.23283 -0.27516,0.29633 -0.0635,0.0635 -0.1905,0.21167 -0.29634,0.31741 -0.10583,0.127 -0.1905,0.23284 -0.1905,0.23284 -0.0212,0.0212 -0.0635,0.0212 -0.0847,0 z"
       style="fill:#f7da22;fill-opacity:1;fill-rule:nonzero;stroke:none" />
    <path
       inkscape:connector-curvature="0"
       id="path4149"
       d="m 305.8942,528.03499 c -0.46566,-0.16933 -0.9525,-0.52914 -1.10064,-0.78314 -0.0635,-0.127 -0.21166,-0.59266 -0.33866,-1.05833 l -0.21167,-0.84667 0,0.55034 c -0.0212,0.29633 0.0423,0.78316 0.10583,1.05833 l 0.14817,0.52917 -0.46567,0 c -1.31233,-0.0212 -2.20133,-0.71967 -2.32833,-1.86267 -0.127,-1.24883 -0.23283,-1.31233 -0.29633,-0.21167 l -0.0423,0.71967 -0.67731,0.0635 c -1.3335,0.127 -2.30716,-0.1905 -2.7305,-0.91017 -0.40216,-0.6985 -0.40216,-0.8255 -0.0635,-1.27 0.4445,-0.6138 0.35984,-0.6773 -0.21166,-0.1693 -0.69848,0.59264 -0.86781,0.65614 -1.46048,0.65614 -0.55033,0 -0.93133,-0.14817 -1.24883,-0.508 -0.635,-0.69847 -0.71967,-1.48164 -0.1905,-2.24364 0.33867,-0.52917 0.23283,-0.55033 -0.27517,-0.0635 -0.27516,0.254 -0.29633,0.254 -0.52916,0.10583 -0.40217,-0.254 -0.76197,-0.91016 -0.80431,-1.43933 -0.0635,-0.57147 0.127,-1.14297 0.63497,-2.01081 l 0.33867,-0.5715 0.1905,0.381 c 0.23283,0.4445 0.59267,0.74084 1.143,0.91017 0.21167,0.0635 0.48683,0.16933 0.59267,0.21167 0.127,0.0423 0.29633,0.3175 0.508,0.84666 0.42333,1.07948 0.48683,1.56631 0.23283,2.03198 -0.10583,0.21166 -0.16933,0.381 -0.14817,0.381 0.1905,0 0.4445,-0.254 0.52917,-0.508 0.21164,-0.635 0.14814,-1.03717 -0.52917,-2.60348 -0.1905,-0.4445 -0.35983,-0.9525 -0.40216,-1.143 -0.14817,-0.8255 0.42333,-1.778 1.0583,-1.778 0.40217,0 0.5715,0.14817 0.5715,0.508 0,0.21167 -0.0423,0.27517 -0.35983,0.33867 l -0.38097,0.0635 0.4868,0.10583 c 0.27517,0.0423 0.52917,0.0423 0.5715,0 0.0423,-0.0423 0.0423,-0.52916 -0.0212,-1.05833 -0.14816,-1.58747 0.0635,-2.41297 0.74084,-3.00564 0.61383,-0.55033 1.905,-0.508 2.73047,0.0847 l 0.40216,0.29634 -0.0635,0.86783 c -0.0847,1.16417 -0.21166,1.8838 -0.40216,2.15897 -0.1905,0.29633 -0.0423,0.29633 0.23283,0 0.35983,-0.381 0.42333,-0.76197 0.508,-2.62464 0.0847,-1.48166 0.127,-1.84147 0.27517,-2.11664 0.40216,-0.6985 1.67216,-1.0795 2.85747,-0.86783 1.24883,0.21167 1.92617,0.71967 1.92617,1.41814 0,0.16933 -0.21167,0.71967 -0.4445,1.24883 -0.67734,1.4605 -0.9525,2.81514 -0.762,3.61947 l 0.0847,0.40217 0.0212,-0.48683 c 0.0212,-1.26997 0.5715,-2.87864 1.397,-4.14864 0.8255,-1.26997 1.35463,-1.56631 2.47647,-1.35464 0.78316,0.14817 1.4605,0.48683 1.86266,0.93131 0.33867,0.40216 0.381,0.67733 0.14817,1.5875 -0.1905,0.78316 -0.16933,1.56633 0.0212,2.3918 0.0847,0.35983 0.127,0.8255 0.0847,1.016 -0.0423,0.33867 -0.0423,0.33867 0.10584,0.16933 0.1693,-0.254 0.19047,-0.61383 0,-1.48166 -0.127,-0.61381 -0.127,-0.99481 0,-1.62981 0.0423,-0.1905 0.10583,-0.21166 0.50797,-0.21166 0.93133,0 1.651,0.55033 2.286,1.7568 0.35983,0.67733 0.61383,1.56633 0.61383,2.13783 0,0.21167 -0.0847,0.8255 -0.1905,1.3335 -0.127,0.50798 -0.21167,0.95248 -0.21167,0.99481 0,0.0212 0.29634,-0.5715 0.65609,-1.35464 0.35983,-0.762 0.71966,-1.41817 0.80433,-1.4605 0.0847,-0.0212 0.21167,0 0.29633,0.0635 0.29634,0.23283 0.8255,1.54517 0.93134,2.28597 0.23283,1.43934 -0.1905,2.26484 -1.50284,3.048 -0.97358,0.57147 -1.22758,0.82547 -1.62975,1.58747 -0.635,1.16417 -1.43933,1.67217 -2.7093,1.67217 -0.35983,0 -0.889,-0.0635 -1.16417,-0.14817 -0.48683,-0.14816 -0.508,-0.1905 -0.67733,-0.635 -0.14817,-0.508 -0.91017,-1.75683 -0.99483,-1.67216 -0.0212,0.0212 0.127,0.40216 0.3175,0.8255 0.1905,0.42333 0.381,0.9525 0.40216,1.143 0.0847,0.55033 -0.29633,1.16416 -0.97366,1.52397 -0.48681,0.27517 -0.61381,0.29633 -1.71448,0.3175 -0.80433,0.0212 -1.29116,-0.0212 -1.54516,-0.10583 z m -2.8998,-3.51364 c -0.10584,-1.03713 0.10583,-1.73563 0.59266,-2.18013 0.508,-0.4445 0.74084,-0.508 1.71448,-0.4445 l 0.889,0.0635 -0.10584,0.3175 c -0.21166,0.80433 0.0847,1.56633 0.97367,2.43413 l 0.55033,0.52917 -0.4445,-0.65617 c -0.67733,-0.95247 -0.889,-1.48163 -0.8255,-2.0108 0.10584,-0.61383 0.52917,-1.16417 1.22767,-1.50283 0.52917,-0.254 0.65617,-0.27517 1.71447,-0.27517 1.905,0 2.2225,0.3175 2.37067,2.30717 0.0423,0.6985 0.127,1.29113 0.21166,1.46047 0.14817,0.254 0.14817,0.21166 0.10584,-0.65614 -0.0212,-0.86783 -0.127,-2.159 -0.16934,-2.26483 0,-0.0212 0.21167,-0.0847 0.46567,-0.14817 0.63497,-0.16933 1.10064,-0.55033 1.41814,-1.2065 0.23283,-0.46564 0.27517,-0.71964 0.29633,-1.46047 0.0212,-0.86784 0.0212,-0.889 -0.0635,-0.3175 -0.16933,1.05833 -0.381,1.6298 -0.762,2.05314 -0.63497,0.6985 -1.39697,0.889 -1.79914,0.4445 -0.254,-0.27517 -0.80433,-0.508 -1.41816,-0.61384 l -0.35984,-0.0423 0.21167,-0.2963 c 0.29633,-0.42333 0.33867,-1.12183 0.0847,-2.30717 -0.10583,-0.55033 -0.23283,-1.2065 -0.29633,-1.46047 l -0.0847,-0.4445 -0.0212,0.55031 c 0,0.29633 0.0635,0.889 0.14816,1.31233 0.29634,1.54517 0.10584,2.286 -0.635,2.5823 -0.23283,0.0847 -0.4868,0.16934 -0.57147,0.16934 -0.3175,0 -1.29116,0.4445 -1.7145,0.78316 -0.381,0.3175 -0.46566,0.33867 -1.016,0.33867 -1.20647,0 -1.86264,-0.35983 -2.30714,-1.22767 -0.52916,-1.07947 -0.52916,-2.62463 0.0212,-5.03761 0.127,-0.61383 0.21167,-1.143 0.1905,-1.16416 -0.10583,-0.10584 -0.33866,0.67733 -0.59266,1.98966 -0.23284,1.12181 -0.27517,1.56631 -0.23284,2.51881 0.0423,1.3335 0.21167,1.79914 0.86784,2.5188 l 0.40216,0.42334 -0.35983,0.254 c -0.1905,0.14816 -0.4445,0.40216 -0.59267,0.5715 l -0.23283,0.33866 -1.03717,0 -1.0583,0.0212 0.0635,-0.381 c 0.127,-0.6985 -0.48683,-1.43933 -1.29117,-1.60866 -0.254,-0.0423 -0.33866,-0.127 -0.42333,-0.4445 -0.0847,-0.27514 -0.23283,-0.46564 -0.48683,-0.63498 -0.46567,-0.3175 -0.52917,-0.254 -0.14817,0.1905 0.381,0.42331 0.42333,0.84664 0.10583,1.07948 -0.21166,0.14816 -0.21166,0.14816 0.23284,0.0847 0.3175,-0.0423 0.5715,0 0.889,0.14816 0.86783,0.381 1.03716,1.0795 0.48683,1.8415 l -0.3175,0.4445 0.46567,-0.254 c 0.381,-0.21166 0.59266,-0.254 1.16413,-0.254 1.12184,0.0212 1.143,0.0423 1.18534,0.97364 0.0423,0.67733 0.1905,1.3335 0.33866,1.3335 0.0212,0 0.0212,-0.35983 -0.0212,-0.78317 z m 12.67875,-1.7568 c 0.59258,-0.29633 0.93124,-0.65617 1.26991,-1.35467 0.14817,-0.27516 0.16933,-0.42333 0.0847,-0.3175 -0.381,0.508 -1.18525,1.24884 -1.50275,1.397 -0.381,0.1905 -1.48166,0.254 -2.05316,0.127 -0.1905,-0.0635 -0.127,0 0.1905,0.16934 0.67733,0.3175 1.3335,0.3175 2.01083,-0.0212 z m -15.07056,-2.87864 c -1.16416,-1.143 -1.41816,-2.07433 -0.93133,-3.429 0.21167,-0.59264 0.27517,-1.14297 0.127,-1.14297 -0.14817,0 -0.71967,1.92614 -0.71967,2.4553 0,0.8255 0.4445,1.54517 1.41817,2.37064 0.8043,0.65617 0.8678,0.48684 0.10583,-0.25397 z m 17.2718,-1.22767 c -0.46566,-0.93133 -0.9525,-1.12183 -1.41816,-0.5715 -0.29634,0.33867 -0.35984,0.35984 -0.35984,0.0635 0,-0.10583 -0.0635,-0.46566 -0.12691,-0.78316 -0.10583,-0.508 -0.0847,-0.59267 0.0846,-0.78317 0.1905,-0.23283 0.1905,-0.23283 -0.27508,-0.0423 -0.0847,0.0423 -0.254,-0.14816 -0.40217,-0.44447 -0.23283,-0.42333 -0.27517,-0.52917 -0.16933,-0.59267 0.0847,-0.0635 0.16933,-0.0847 0.21166,-0.10583 0.0423,0 0.23284,-0.127 0.40217,-0.27517 0.31742,-0.27516 0.35975,-0.29633 0.76192,-0.1905 0.508,0.127 0.762,0.4445 0.84666,1.016 0.0847,0.59264 0,0.80431 -0.381,0.88898 l -0.3175,0.0847 0.33867,0.0423 c 0.16933,0.0212 0.40217,-0.0212 0.48683,-0.0847 0.127,-0.10584 0.1905,-0.0847 0.42334,0.1905 0.27516,0.29633 0.29633,0.381 0.29633,1.03716 0,0.9525 -0.127,1.12184 -0.40217,0.55034 z m -22.43644,0.0847 c -0.46566,-0.16933 -0.889,-0.61383 -0.97366,-1.016 -0.0423,-0.254 0,-0.55033 0.14816,-0.97366 0.33867,-0.93131 0.35984,-1.03714 0.0847,-0.61381 -0.14817,0.23281 -0.29633,0.46564 -0.35983,0.55031 -0.0635,0.10583 -0.0847,-0.0635 -0.10584,-0.61381 0,-0.91016 0.16934,-1.16416 1.10067,-1.651 0.65617,-0.33866 0.84667,-0.59266 1.18533,-1.50283 0.35984,-0.95247 1.05831,-1.43931 1.94731,-1.31231 0.21167,0.0212 0.65617,0.14817 1.016,0.27517 0.35983,0.127 0.8255,0.29633 1.03717,0.381 0.21166,0.0635 0.40216,0.21167 0.42333,0.29631 0.0212,0.14816 -0.0635,0.16933 -0.762,0.16933 -0.52917,0 -0.91017,0.0635 -1.10067,0.14817 -0.1905,0.10583 -0.42333,0.127 -0.71966,0.10583 -0.381,-0.0635 -0.40217,-0.0635 -0.23284,0.0847 0.10584,0.0847 0.23284,0.16933 0.29634,0.1905 0.0847,0.0212 0.0635,0.10583 -0.0635,0.23283 -0.29634,0.33867 -0.48684,0.9525 -0.52917,1.82034 l -0.0635,0.889 -0.46567,0 c -0.4233,0 -0.52914,0.0423 -0.82547,0.33863 -0.4445,0.4445 -0.59267,0.91017 -0.55033,1.69334 0.0635,0.67733 0.0423,0.6985 -0.48684,0.508 z m 1.143,-3.9793 c 0.14817,-0.23283 0.1905,-1.3335 0.0212,-1.16417 -0.0635,0.0635 -0.127,0.27517 -0.16933,0.508 -0.0423,0.4445 -0.21167,0.61384 -0.65617,0.78317 -0.27517,0.10583 -0.27517,0.127 0.1905,0.0847 0.3175,-0.0212 0.52917,-0.10583 0.61383,-0.21167 z m 18.16086,0.42333 c -0.381,-0.40216 -1.12183,-0.762 -1.69333,-0.8255 l -0.46567,-0.0635 0.0212,-0.55033 c 0.0423,-0.4445 0,-0.635 -0.14814,-0.86783 -0.59266,-0.95248 -2.51883,-1.60864 -3.556,-1.22764 -0.14816,0.0635 -0.4868,0.27516 -0.7408,0.48683 l -0.4445,0.40214 -0.0635,-0.31747 c -0.29634,-1.48167 -4.04281,-1.88384 -5.14348,-0.57151 -0.27516,0.33867 -0.46566,0.86781 -0.46566,1.35464 l 0,0.3175 -0.40217,-0.1905 c -0.3175,-0.16933 -0.381,-0.254 -0.33867,-0.42333 0.0212,-0.10583 0.0212,-0.25397 -0.0212,-0.33864 -0.0635,-0.16933 -0.5503,-0.42333 -1.10063,-0.5715 -0.508,-0.127 -0.74084,-0.508 -0.508,-0.78317 0.16933,-0.23283 0.86783,-0.381 1.29116,-0.3175 0.52914,0.10584 0.76197,0.3175 0.93131,0.8255 l 0.14816,0.46567 -0.0423,-0.48683 c -0.0212,-0.27517 -0.0635,-0.61384 -0.10583,-0.762 -0.0635,-0.23284 -0.0212,-0.29634 0.27517,-0.46567 0.40216,-0.254 1.016,-0.27517 1.10066,-0.0423 0.0423,0.0847 0.0635,0.16933 0.0423,0.16933 -0.0212,0.0212 -0.16933,0.10584 -0.3175,0.1905 l -0.29633,0.16934 0.381,-0.0635 c 0.55033,-0.0847 0.67733,-0.21167 0.55033,-0.46567 -0.1905,-0.3175 0.10584,-0.508 0.84667,-0.55033 0.59264,-0.0423 1.22764,0.10583 1.22764,0.27516 0,0.0423 -0.16933,0.127 -0.35983,0.16934 -0.33867,0.10583 -0.29634,0.10583 0.42333,0.10583 0.42333,0 0.65617,-0.0212 0.508,-0.0423 -0.42333,-0.0635 -0.3175,-0.3175 0.1905,-0.55034 0.71967,-0.3175 1.69333,-0.27516 2.49764,0.0847 0.55033,0.23283 0.99483,0.61383 0.99483,0.8255 0,0.0423 -0.254,0.10583 -0.59267,0.14817 -0.48683,0.0423 -1.01597,0.21166 -1.3758,0.42333 -0.0423,0.0212 -0.16933,-0.0635 -0.27517,-0.16933 -0.27516,-0.254 -0.27516,-0.21167 -0.0212,0.23283 l 0.21167,0.35983 0.381,-0.1905 c 0.55031,-0.27516 1.50281,-0.40216 2.26481,-0.29633 0.35983,0.0423 0.65616,0.0635 0.67733,0.0423 0.0212,0 -0.1905,-0.10583 -0.46567,-0.21166 -0.40216,-0.127 -0.508,-0.21167 -0.508,-0.40217 0,-0.127 0.0847,-0.23283 0.1905,-0.27517 0.27517,-0.0847 1.18534,0.127 1.50284,0.35984 0.254,0.16933 0.59263,0.65616 0.59263,0.8255 0,0.0212 -0.25397,0.0635 -0.57147,0.0635 -0.5715,0 -0.55033,0 0.61381,0.29633 1.54516,0.381 2.2225,0.78314 2.2225,1.3123 0,0.23284 -0.55034,0.21167 -0.67734,-0.0212 -0.0847,-0.14816 -0.10583,-0.14816 -0.3175,0.0635 -0.21166,0.1905 -0.21166,0.23284 -0.10583,0.61384 0.16933,0.508 0.254,0.5715 0.254,0.10583 0,-0.35983 0.0212,-0.35983 0.40217,-0.3175 0.84666,0.0635 1.3335,0.46567 1.35466,1.10067 0.0212,0.29633 -0.21166,0.635 -0.52916,0.80433 -0.10584,0.0635 -0.23284,0 -0.4445,-0.23283 z"
       style="fill:#c7bbb4;fill-opacity:1;fill-rule:nonzero;stroke:none" />
  </g>
</svg>
