<?xml version="1.0" encoding="UTF-8" standalone="no"?>
<!-- Created with Inkscape (http://www.inkscape.org/) -->

<svg
   xmlns:dc="http://purl.org/dc/elements/1.1/"
   xmlns:cc="http://creativecommons.org/ns#"
   xmlns:rdf="http://www.w3.org/1999/02/22-rdf-syntax-ns#"
   xmlns:svg="http://www.w3.org/2000/svg"
   xmlns="http://www.w3.org/2000/svg"
   xmlns:sodipodi="http://sodipodi.sourceforge.net/DTD/sodipodi-0.dtd"
   xmlns:inkscape="http://www.inkscape.org/namespaces/inkscape"
   width="75.571594mm"
   height="76.112946mm"
   viewBox="0 0 267.77337 269.69154"
   id="svg4141"
   version="1.1"
   inkscape:version="0.91 r13725"
   sodipodi:docname="brain.svg">
  <defs
     id="defs4143">
    <inkscape:path-effect
       effect="bend_path"
       id="path-effect4818"
       is_visible="true"
       bendpath="m 165.41248,625.19218 44.37753,0"
       prop_scale="1"
       scale_y_rel="false"
       vertical="false" />
    <inkscape:path-effect
       effect="powerstroke"
       id="path-effect4816"
       is_visible="true"
       offset_points="0,1 | 2,1 | 4,1"
       sort_points="true"
       interpolator_type="Linear"
       interpolator_beta="0.2"
       start_linecap_type="round"
       linejoin_type="round"
       miter_limit="4"
       end_linecap_type="round" />
    <inkscape:path-effect
       effect="spiro"
       id="path-effect4800"
       is_visible="true" />
  </defs>
  <sodipodi:namedview
     id="base"
     pagecolor="#ffffff"
     bordercolor="#666666"
     borderopacity="1.0"
     inkscape:pageopacity="0.0"
     inkscape:pageshadow="2"
     inkscape:zoom="0.98994949"
     inkscape:cx="-3.2568155"
     inkscape:cy="100.24412"
     inkscape:document-units="px"
     inkscape:current-layer="layer1"
     showgrid="false"
     showguides="false"
     inkscape:window-width="1920"
     inkscape:window-height="1017"
     inkscape:window-x="1912"
     inkscape:window-y="-8"
     inkscape:window-maximized="1"
     fit-margin-top="0"
     fit-margin-left="0"
     fit-margin-right="0"
     fit-margin-bottom="0" />
  <metadata
     id="metadata4146">
    <rdf:RDF>
      <cc:Work
         rdf:about="">
        <dc:format>image/svg+xml</dc:format>
        <dc:type
           rdf:resource="http://purl.org/dc/dcmitype/StillImage" />
        <dc:title></dc:title>
      </cc:Work>
    </rdf:RDF>
  </metadata>
  <g
     inkscape:label="Layer 1"
     inkscape:groupmode="layer"
     id="layer1"
     style="display:inline;opacity:1"
     transform="translate(-223.36863,-319.75087)">
    <path
       style="fill:#f7da22;fill-opacity:1"
       d="m 334.01839,589.27126 c -0.18617,-0.13039 -0.25623,-0.29595 -0.25623,-0.60545 0,-0.47788 -0.0279,-0.37857 3.3439,-11.89699 1.34574,-4.59719 2.69545,-9.21457 2.99933,-10.26083 0.30389,-1.04626 1.02994,-3.53652 1.61344,-5.53392 0.58351,-1.9974 1.31019,-4.48767 1.61486,-5.53393 0.30467,-1.04626 0.86974,-2.98015 1.25572,-4.29752 0.38597,-1.31738 0.70177,-2.47555 0.70177,-2.5737 0,-0.16021 -0.85291,-0.16992 -8.34112,-0.0949 l -8.34111,0.0836 -0.24801,-0.248 c -0.14695,-0.14696 -0.248,-0.39338 -0.248,-0.60478 0,-0.21626 3.38819,-8.26423 8.6032,-20.43518 4.73176,-11.04313 8.70079,-20.27123 8.82007,-20.5069 0.11929,-0.23567 0.31706,-0.4821 0.4395,-0.54763 0.15079,-0.0807 6.7307,-0.11914 20.39044,-0.11914 l 20.16781,0 0.30377,0.23895 c 0.22782,0.1792 0.30377,0.34288 0.30377,0.65461 0,0.39211 -0.23362,0.65127 -4.12162,4.57196 -2.26689,2.28596 -4.14756,4.18432 -4.17927,4.21858 -0.13586,0.14679 -9.68806,9.80585 -14.21024,14.3692 -2.71036,2.73503 -4.92792,5.03074 -4.92792,5.10159 0,0.094 2.94201,0.12881 10.87937,0.12881 10.8318,0 10.8807,9.4e-4 11.18314,0.23895 0.22045,0.1734 0.30378,0.34517 0.30378,0.62616 0,0.33307 -0.20596,0.61808 -1.47275,2.03804 -0.81001,0.90795 -2.60736,2.92188 -3.9941,4.47542 -7.16166,8.023 -9.86286,11.05136 -10.38555,11.64343 -0.49425,0.55986 -4.17585,4.68425 -11.99009,13.43218 -2.11782,2.37087 -4.74347,5.31291 -8.0704,9.04292 -1.26819,1.42183 -3.00619,3.36933 -3.86222,4.32776 -0.85603,0.95844 -2.78967,3.12592 -4.29697,4.81664 -1.50731,1.69072 -2.85478,3.15403 -2.99438,3.25181 -0.3234,0.22651 -0.6589,0.22594 -0.98389,-0.002 z"
       id="path4873"
       inkscape:connector-curvature="0" />
    <path
       style="display:inline;opacity:1;fill:#f7da22;fill-opacity:1"
       d="m 271.59768,555.15195 c -0.13661,-0.0957 -0.18802,-0.21716 -0.18802,-0.44427 0,-0.35066 -0.0205,-0.27779 2.45371,-8.72983 0.98748,-3.37335 1.97788,-6.76152 2.20086,-7.52925 0.22299,-0.76773 0.75575,-2.59504 1.18392,-4.06071 0.42817,-1.46566 0.9614,-3.29298 1.18496,-4.06071 0.22356,-0.76773 0.6382,-2.18679 0.92143,-3.15346 0.28322,-0.96667 0.51495,-1.81652 0.51495,-1.88854 0,-0.11756 -0.62586,-0.12468 -6.12059,-0.0696 l -6.12059,0.0614 -0.18198,-0.18198 c -0.10783,-0.10784 -0.18198,-0.28866 -0.18198,-0.44378 0,-0.15869 2.4862,-6.06417 6.3129,-14.99503 3.47209,-8.10328 6.38451,-14.87472 6.47203,-15.04765 0.0875,-0.17294 0.23266,-0.35376 0.3225,-0.40185 0.11065,-0.0592 4.93889,-0.0874 14.9622,-0.0874 l 14.79884,0 0.2229,0.17534 c 0.16717,0.13149 0.2229,0.2516 0.2229,0.48034 0,0.28773 -0.17142,0.47789 -3.02438,3.35484 -1.66341,1.6774 -3.04342,3.07039 -3.06668,3.09553 -0.0997,0.10771 -7.10896,7.19538 -10.42727,10.5439 -1.98882,2.00693 -3.61603,3.69148 -3.61603,3.74347 0,0.069 2.1588,0.0945 7.98312,0.0945 7.94821,0 7.98409,6.9e-4 8.20602,0.17534 0.16176,0.12724 0.22291,0.25328 0.22291,0.45947 0,0.2444 -0.15113,0.45353 -1.08068,1.49548 -0.59438,0.66624 -1.91324,2.14403 -2.93081,3.284 -5.25512,5.88715 -7.23722,8.10932 -7.62077,8.54377 -0.36267,0.41082 -3.06417,3.43723 -8.79814,9.85633 -1.55403,1.73971 -3.48069,3.89854 -5.92194,6.63556 -0.93058,1.04332 -2.2059,2.47237 -2.83404,3.17565 -0.62814,0.70329 -2.04702,2.29375 -3.15305,3.53438 -1.10605,1.24062 -2.0948,2.31438 -2.19724,2.38613 -0.2373,0.16621 -0.48349,0.16579 -0.72196,-10e-4 z"
       id="path4873-1"
       inkscape:connector-curvature="0" />
    <path
       style="display:inline;opacity:1;fill:#f7da22;fill-opacity:1"
       d="m 411.61255,555.40448 c -0.13661,-0.0957 -0.18802,-0.21716 -0.18802,-0.44427 0,-0.35066 -0.0205,-0.27779 2.45371,-8.72983 0.98748,-3.37335 1.97788,-6.76152 2.20086,-7.52925 0.22299,-0.76773 0.75575,-2.59504 1.18392,-4.06071 0.42817,-1.46566 0.9614,-3.29298 1.18496,-4.06071 0.22356,-0.76773 0.6382,-2.18679 0.92143,-3.15346 0.28322,-0.96667 0.51495,-1.81652 0.51495,-1.88854 0,-0.11756 -0.62586,-0.12468 -6.12059,-0.0696 l -6.12059,0.0614 -0.18198,-0.18198 c -0.10783,-0.10784 -0.18198,-0.28866 -0.18198,-0.44378 0,-0.15869 2.4862,-6.06417 6.3129,-14.99503 3.47209,-8.10328 6.38451,-14.87472 6.47203,-15.04765 0.0875,-0.17294 0.23266,-0.35376 0.3225,-0.40185 0.11065,-0.0592 4.93889,-0.0874 14.9622,-0.0874 l 14.79884,0 0.2229,0.17534 c 0.16717,0.13149 0.2229,0.2516 0.2229,0.48034 0,0.28773 -0.17142,0.47789 -3.02438,3.35484 -1.66341,1.6774 -3.04342,3.07039 -3.06668,3.09553 -0.0997,0.10771 -7.10896,7.19538 -10.42727,10.5439 -1.98882,2.00693 -3.61603,3.69148 -3.61603,3.74347 0,0.069 2.1588,0.0945 7.98312,0.0945 7.94821,0 7.98409,6.9e-4 8.20602,0.17534 0.16176,0.12724 0.22291,0.25328 0.22291,0.45947 0,0.2444 -0.15113,0.45353 -1.08068,1.49548 -0.59438,0.66624 -1.91324,2.14403 -2.93081,3.284 -5.25512,5.88715 -7.23722,8.10932 -7.62077,8.54377 -0.36267,0.41082 -3.06417,3.43723 -8.79814,9.85633 -1.55403,1.73971 -3.48069,3.89854 -5.92194,6.63556 -0.93058,1.04332 -2.2059,2.47237 -2.83404,3.17565 -0.62814,0.70329 -2.04702,2.29375 -3.15305,3.53438 -1.10605,1.24062 -2.0948,2.31438 -2.19724,2.38613 -0.2373,0.16621 -0.48349,0.16579 -0.72196,-10e-4 z"
       id="path4873-1-2"
       inkscape:connector-curvature="0" />
    <path
       style="display:inline;opacity:1;fill:#eaa661;fill-opacity:1"
       d="m 359.18509,518.16735 c -5.00302,-1.85793 -10.12488,-5.55824 -11.66647,-8.42849 -0.6794,-1.26498 -2.29675,-6.33462 -3.59413,-11.26587 l -2.35884,-8.96588 -0.0955,5.83528 c -0.0525,3.20941 0.5469,8.31206 1.33212,11.33921 l 1.42771,5.50393 -4.85583,-0.007 c -14.07348,-0.0178 -23.55418,-7.5705 -24.88347,-19.82505 -1.43306,-13.21142 -2.4514,-13.93092 -3.13833,-2.21738 l -0.45791,7.80837 -7.17465,0.6627 c -14.35948,1.32636 -24.75802,-2.19934 -29.17065,-9.89051 -4.23483,-7.38128 -4.30201,-8.62137 -0.73388,-13.547 4.69119,-6.47601 3.95352,-7.0196 -2.32189,-1.71106 -7.39708,6.25787 -9.20563,7.08193 -15.54148,7.08193 -5.89623,0 -9.86918,-1.61911 -13.34241,-5.43754 -6.79205,-7.46705 -7.50706,-15.86806 -2.04174,-23.98949 3.75134,-5.57446 2.61923,-5.83965 -2.93681,-0.68791 -2.84068,2.63398 -3.15101,2.6974 -5.53974,1.13224 -4.22544,-2.7686 -8.06928,-9.61882 -8.62133,-15.36431 -0.58796,-6.11895 1.34448,-12.12892 6.86993,-21.36572 l 3.65856,-6.11593 2.02145,4.08573 c 2.36341,4.77686 6.12041,7.81266 12.00406,9.69972 2.32058,0.74429 5.20052,1.71751 6.39987,2.16275 1.46231,0.54282 3.25544,3.53874 5.44347,9.0947 4.52376,11.48704 5.14491,16.75256 2.56388,21.73402 -1.12723,2.17555 -1.83212,3.95554 -1.56645,3.95554 1.88295,0 4.52712,-2.59699 5.50745,-5.4092 2.3591,-6.76732 1.50405,-10.97817 -5.64865,-27.81734 -1.9714,-4.64118 -3.89395,-10.1429 -4.27231,-12.22607 -1.58904,-8.74859 4.47725,-18.89085 11.29897,-18.89085 4.32224,0 6.11663,1.57464 6.11663,5.36763 0,2.42945 -0.56714,2.95268 -3.95554,3.64937 l -3.95554,0.8133 5.17008,0.93753 c 2.84355,0.51565 5.56991,0.53771 6.0586,0.049 0.48869,-0.48869 0.45271,-5.49479 -0.08,-11.12464 -1.61093,-17.02723 0.50223,-25.80912 7.73943,-32.16346 6.70471,-5.88681 20.26883,-5.4532 29.08002,0.9296 l 4.34784,3.14955 -0.66089,9.1857 c -0.90113,12.52439 -2.29289,20.15292 -4.2108,23.08001 -2.05329,3.13372 -0.50326,3.18652 2.405,0.082 3.82757,-4.08598 4.62933,-8.14271 5.52581,-27.95945 0.71948,-15.9045 1.21812,-19.85291 2.86402,-22.67843 4.27282,-7.33516 17.86967,-11.47597 30.47487,-9.28087 13.21056,2.30052 20.44515,7.69127 20.45489,15.24169 0.002,1.67923 -2.09127,7.62403 -4.65211,13.21068 -7.17873,15.66099 -10.24417,30.11333 -8.18443,38.58636 l 1.02567,4.21924 0.10596,-5.05481 c 0.2866,-13.6718 6.03739,-30.75485 14.89561,-44.24815 8.88483,-13.53384 14.59255,-16.64475 26.55799,-14.47499 8.27998,1.50144 15.4131,5.11164 19.66262,9.95156 3.80178,4.33 4.08903,7.13763 1.72987,16.90803 -1.99034,8.24294 -1.95869,16.61395 0.0964,25.4749 0.91158,3.93064 1.37553,8.82541 1.03098,10.87727 -0.58615,3.49072 -0.52317,3.59896 0.97961,1.6831 2.00165,-2.55184 2.02713,-6.48881 0.10171,-15.69171 -1.36664,-6.53183 -1.36419,-10.5238 0.0106,-17.33323 0.41662,-2.06355 1.13051,-2.37029 5.46942,-2.35014 9.87515,0.046 17.46516,5.91641 24.35006,18.8338 3.76659,7.06683 6.49023,16.65563 6.46653,22.76596 -0.009,2.34372 -0.95842,8.72404 -2.10963,14.17845 -1.15119,5.4544 -2.08957,10.20104 -2.08526,10.54809 0.004,0.34707 3.14542,-6.1036 6.98023,-14.33477 3.83481,-8.23117 7.68876,-15.24066 8.56434,-15.57666 0.87559,-0.33599 2.32528,-0.009 3.22156,0.72584 2.97079,2.43683 8.63969,16.37654 9.84976,24.22037 2.38701,15.47281 -1.95621,24.31175 -15.96691,32.49443 -10.46306,6.11077 -13.2279,8.79114 -17.54765,17.01164 -6.57461,12.51129 -15.14532,17.79651 -28.85963,17.79651 -3.85239,0 -9.42825,-0.71983 -12.39083,-1.59962 -5.09259,-1.51234 -5.48058,-1.88283 -7.11037,-6.78968 -1.75061,-5.27061 -9.74836,-18.62124 -10.6281,-17.7415 -0.26453,0.26453 1.242,4.2101 3.34784,8.76794 2.10584,4.55782 4.06763,10.06755 4.35953,12.24383 0.79156,5.9015 -3.33432,12.30124 -10.46548,16.23323 -5.21394,2.87487 -6.52442,3.11739 -18.27445,3.38214 -8.63588,0.19457 -13.86927,-0.16471 -16.47079,-1.13085 z m -30.98754,-37.534 c -0.98247,-11.09874 1.0808,-18.55577 6.4348,-23.25665 5.44634,-4.78194 7.76616,-5.36942 18.26091,-4.62449 l 9.34437,0.66329 -0.93826,3.27149 c -2.45121,8.54687 0.82022,16.83007 10.25436,25.96385 l 5.99224,5.80146 -4.90563,-6.99729 c -7.153,-10.20291 -9.46898,-15.97138 -8.63776,-21.51441 0.99492,-6.63445 5.6406,-12.37677 12.89501,-15.9389 5.67599,-2.78708 7.06223,-3.01588 18.27228,-3.01588 20.423,0 23.80714,3.29445 25.30463,24.63389 0.51817,7.38401 1.52622,13.81953 2.43689,15.55763 1.44548,2.75877 1.52258,2.27262 1.1119,-7.01068 -0.40782,-9.21858 -1.44997,-23.13789 -1.80426,-24.09823 -0.0832,-0.22585 2.06968,-0.97466 4.78445,-1.66396 6.9312,-1.7599 11.82365,-5.89052 15.23467,-12.86237 2.44917,-5.00592 2.97245,-7.56048 3.18881,-15.56724 0.25167,-9.3133 0.2315,-9.40442 -0.72837,-3.29074 -1.74318,11.10302 -4.06653,17.32252 -8.16955,21.86953 -6.66218,7.38312 -14.73318,9.30517 -19.18321,4.56835 -2.60707,-2.7751 -8.55982,-5.28039 -15.05269,-6.33515 l -3.95224,-0.64203 2.25466,-3.04958 c 3.33056,-4.50481 3.65971,-12.03606 1.07485,-24.59318 -1.2186,-5.91991 -2.64807,-12.89947 -3.1766,-15.51014 l -0.96098,-4.74663 -0.12655,5.80145 c -0.0696,3.1908 0.58544,9.52187 1.45556,14.06903 3.13196,16.36743 1.16819,24.2621 -6.83132,27.46287 -2.35788,0.94344 -5.10813,1.72661 -6.11165,1.74038 -3.35001,0.046 -13.55906,4.83152 -18.11127,8.48978 -4.0657,3.26728 -5.12356,3.60844 -10.98313,3.54214 -12.76528,-0.14448 -19.75921,-3.92226 -24.46943,-13.21744 -5.74492,-11.33706 -5.72431,-27.93738 0.0666,-53.55783 1.49157,-6.59917 2.46106,-12.24936 2.15445,-12.55598 -1.1641,-1.1641 -3.70573,7.25703 -6.42243,21.2792 -2.33094,12.03112 -2.74664,16.66846 -2.40615,26.84133 0.47559,14.20822 2.20049,19.24257 9.19155,26.82696 l 4.30058,4.6656 -3.7199,2.64675 c -2.04595,1.45572 -4.88414,4.2248 -6.30711,6.15353 l -2.58722,3.50675 -11.13014,0.0712 -11.13015,0.0712 0.65431,-3.88834 c 1.25343,-7.44893 -5.14172,-15.36745 -13.86024,-17.16187 -2.68224,-0.55205 -3.50213,-1.42806 -4.5218,-4.83148 -0.8458,-2.823 -2.48325,-4.99822 -5.10224,-6.77787 -5.03118,-3.41877 -5.60062,-2.6218 -1.47998,2.07134 4.01058,4.5678 4.37297,9.01306 0.93148,11.42641 -2.27539,1.59562 -2.17328,1.63944 2.47476,1.06232 3.58024,-0.44454 6.1086,-0.0444 9.66804,1.53014 9.1023,4.02638 11.06356,11.44519 5.18843,19.62617 l -3.3958,4.72857 4.91142,-2.74505 c 4.06422,-2.27152 6.20569,-2.73195 12.41443,-2.6691 11.91038,0.12051 12.2597,0.40528 12.66438,10.32308 0.29591,7.2528 2.03618,14.20337 3.55617,14.20337 0.25733,0 0.13542,-3.75586 -0.27094,-8.34634 z m 135.30314,-18.63333 c 6.26489,-3.12192 9.79969,-6.93165 13.52037,-14.572 1.44295,-2.96307 1.87926,-4.43806 0.96957,-3.27778 -4.24798,5.4182 -12.68176,13.20598 -16.18392,14.94435 -4.06425,2.01735 -15.64284,2.64469 -21.80739,1.18156 -2.13758,-0.50734 -1.453,0.0871 2.10961,1.83235 7.14736,3.50102 14.2204,3.46515 21.39176,-0.10844 z M 302.6926,431.22882 c -12.44842,-12.15957 -15.12626,-22.00102 -9.9468,-36.5561 2.21458,-6.22332 2.92046,-12.25972 1.42594,-12.19421 -1.63013,0.0715 -7.64736,20.65826 -7.64736,26.16396 0,8.75687 4.68675,16.56438 15.14131,25.22338 8.4437,6.99352 9.11678,5.26511 1.02691,-2.63703 z m 184.22958,-13.02557 c -5.008,-9.97201 -10.17369,-12.09912 -15.11669,-6.22473 -3.17355,3.77155 -3.8537,3.92238 -3.8537,0.85462 0,-1.27042 -0.56565,-5.04848 -1.25701,-8.39571 -1.14731,-5.55472 -1.07826,-6.28932 0.7911,-8.41714 2.14969,-2.44685 2.12707,-2.44978 -2.96221,-0.38339 -0.78104,0.31713 -2.55368,-1.66744 -4.34846,-4.86825 -2.4516,-4.37219 -2.7536,-5.57863 -1.58221,-6.32065 0.79624,-0.50438 1.7872,-0.92433 2.20212,-0.93322 0.41492,-0.009 2.3442,-1.41202 4.28731,-3.11808 3.31964,-2.91466 3.80126,-3.03381 7.97823,-1.97358 5.3975,1.37004 8.26933,4.76273 9.18172,10.84704 0.94522,6.3032 -0.0188,8.59123 -4.0374,9.58271 l -3.39692,0.83812 3.49705,0.41426 c 1.92336,0.22787 4.23145,-0.1952 5.12906,-0.94017 1.37857,-1.14411 2.10499,-0.8251 4.67773,2.05431 2.76751,3.09737 3.04425,4.1058 3.02957,11.03947 -0.0216,10.27389 -1.20662,11.94321 -4.21929,5.94439 z m -239.1652,0.80862 c -5.00961,-1.81716 -9.57456,-6.58696 -10.37194,-10.83741 -0.4796,-2.5565 0.009,-5.71141 1.58293,-10.23057 3.50018,-10.047 3.6199,-11.10029 0.74271,-6.53418 -1.46225,2.3206 -3.12871,4.93125 -3.70329,5.80147 -0.7386,1.11864 -1.06286,-0.78918 -1.1067,-6.51163 -0.0749,-9.78903 1.61633,-12.37418 11.56527,-17.67692 6.97115,-3.71559 9.06596,-6.35515 12.65072,-15.94074 3.86366,-10.33133 11.29881,-15.31919 20.93057,-14.04125 2.11206,0.28022 6.92542,1.62449 10.69637,2.98725 3.77095,1.36278 8.75202,3.13116 11.06903,3.92977 2.35434,0.81147 4.36608,2.24807 4.56029,3.25656 0.30491,1.58326 -0.70311,1.80454 -8.2207,1.80454 -5.59105,0 -9.64201,0.55528 -11.65864,1.59813 -2.07223,1.07159 -4.57459,1.39539 -7.595,0.98279 -4.16907,-0.56953 -4.35593,-0.495 -2.50904,1.00084 1.09753,0.88891 2.52151,1.80131 3.16442,2.02754 0.74685,0.26281 0.51691,1.14747 -0.63675,2.44997 -3.31002,3.73701 -5.20162,10.0894 -5.81258,19.51972 l -0.60509,9.33938 -5.08275,0 c -4.38385,0 -5.58083,0.49807 -8.70497,3.62221 -4.67637,4.67637 -6.27766,9.72387 -5.74394,18.10574 0.46311,7.27298 0.36806,7.37049 -5.21092,5.34679 z m 12.06928,-42.46404 c 1.71537,-2.34589 1.94726,-14.07711 0.2446,-12.37446 -0.62592,0.62592 -1.39782,3.07482 -1.71531,5.44199 -0.62706,4.6751 -2.27797,6.62724 -7.16733,8.47508 -2.93695,1.10996 -2.78991,1.16547 2.04549,0.77211 3.4245,-0.27857 5.68372,-1.0718 6.59255,-2.31472 z m 193.77585,4.69754 c -4.09746,-4.31585 -12.12506,-8.28168 -18.22639,-9.00429 l -4.98657,-0.5906 0.38031,-5.94252 c 0.2919,-4.56143 -0.10259,-6.71092 -1.69769,-9.24852 -6.29291,-10.01169 -26.90463,-17.08953 -37.78877,-12.97623 -1.63317,0.61719 -5.16845,2.9719 -7.85618,5.23265 l -4.88677,4.11045 -0.65278,-3.26387 c -3.14884,-15.74421 -43.06895,-20.10014 -54.93799,-5.9946 -2.87218,3.41341 -4.76573,9.1135 -4.7747,14.37307 l -0.007,3.44958 -4.32284,-2.20535 c -3.41034,-1.73982 -4.20486,-2.65646 -3.76397,-4.34242 0.30736,-1.17538 0.29646,-2.82083 -0.0243,-3.65655 -0.75072,-1.95635 -5.90404,-4.61899 -11.92908,-6.16359 -5.37789,-1.37869 -7.88325,-5.32065 -5.33392,-8.39242 1.9322,-2.32816 9.21942,-4.05618 13.67538,-3.24286 5.80082,1.05877 8.32338,3.24078 10.07421,8.71423 l 1.60136,5.00615 -0.41509,-5.27406 c -0.22831,-2.90072 -0.74856,-6.55547 -1.1561,-8.12167 -0.63978,-2.45881 -0.25747,-3.1424 2.79999,-5.00642 4.36522,-2.66131 10.94448,-2.90115 11.89142,-0.43347 0.36579,0.95325 0.53524,1.83995 0.37656,1.97044 -0.15868,0.13046 -1.71253,1.01665 -3.45297,1.96927 l -3.16445,1.73202 4.21926,-0.67557 c 5.689,-0.91089 7.12792,-2.14123 5.67632,-4.85355 -1.8521,-3.46069 1.12894,-5.39725 9.08851,-5.90407 6.42516,-0.40912 13.18764,1.08587 13.18764,2.9154 0,0.40745 -1.77999,1.23921 -3.95554,1.84836 -3.60002,1.00801 -3.19714,1.10533 4.48296,1.08279 4.64115,-0.0142 7.13315,-0.22249 5.53775,-0.46416 -4.45019,-0.67416 -3.48772,-3.32209 2.10961,-5.80403 7.60081,-3.37026 17.89831,-3.07736 26.43084,0.75181 5.85697,2.62845 10.75125,6.70918 10.75125,8.96414 0,0.41927 -2.8451,1.05967 -6.32244,1.42312 -5.14509,0.53777 -10.91215,2.33166 -14.82151,4.61035 -0.31632,0.18437 -1.62165,-0.63975 -2.90072,-1.8314 -2.89638,-2.69838 -2.92263,-2.16211 -0.1262,2.57753 l 2.19942,3.72777 4.01049,-2.04602 c 5.87299,-2.99616 16.15875,-4.35145 24.2503,-3.19532 3.74924,0.5357 6.97634,0.81444 7.17135,0.61943 0.19503,-0.19501 -2.04188,-1.21632 -4.97086,-2.26957 -4.23774,-1.52387 -5.32544,-2.39653 -5.32544,-4.27258 0,-1.35156 0.81738,-2.617 1.91558,-2.96554 3.00796,-0.9547 12.70568,1.27295 16.11735,3.70226 2.64773,1.88535 6.22772,6.96785 6.22772,8.84149 0,0.31888 -2.72933,0.62102 -6.06517,0.67141 -6.00474,0.0907 -5.93979,0.1223 6.52036,3.17643 16.58371,4.06479 23.80543,8.33222 23.80543,14.06699 0,2.35691 -5.91242,2.19894 -7.27484,-0.19438 -0.97844,-1.71877 -1.21259,-1.68601 -3.39937,0.47552 -2.15196,2.12715 -2.24254,2.67519 -1.08213,6.54829 1.667,5.56395 2.79047,6.09348 2.79047,1.31523 0,-3.84296 0.0142,-3.85494 4.15962,-3.52128 8.95019,0.72044 14.33933,5.06694 14.52843,11.7177 0.091,3.20604 -2.23757,6.76872 -5.60086,8.56872 -1.24794,0.66786 -2.52102,0.0511 -4.75846,-2.30569 z"
       id="path4860-5"
       inkscape:connector-curvature="0" />
  </g>
</svg>
