<?xml version="1.0" encoding="UTF-8" standalone="no"?>
<svg
   xmlns:dc="http://purl.org/dc/elements/1.1/"
   xmlns:cc="http://creativecommons.org/ns#"
   xmlns:rdf="http://www.w3.org/1999/02/22-rdf-syntax-ns#"
   xmlns:svg="http://www.w3.org/2000/svg"
   xmlns="http://www.w3.org/2000/svg"
   xmlns:sodipodi="http://sodipodi.sourceforge.net/DTD/sodipodi-0.dtd"
   xmlns:inkscape="http://www.inkscape.org/namespaces/inkscape"
   viewBox="0 0 16 16"
   id="svg2"
   version="1.1"
   inkscape:version="0.91 r13725"
   sodipodi:docname="close-hover.svg"
   width="16"
   height="16">
  <metadata
     id="metadata14">
    <rdf:RDF>
      <cc:Work
         rdf:about="">
        <dc:format>image/svg+xml</dc:format>
        <dc:type
           rdf:resource="http://purl.org/dc/dcmitype/StillImage" />
        <dc:title></dc:title>
      </cc:Work>
    </rdf:RDF>
  </metadata>
  <defs
     id="defs12" />
  <sodipodi:namedview
     pagecolor="#ffffff"
     bordercolor="#666666"
     borderopacity="1"
     objecttolerance="10"
     gridtolerance="10"
     guidetolerance="10"
     inkscape:pageopacity="0"
     inkscape:pageshadow="2"
     inkscape:window-width="1920"
     inkscape:window-height="1017"
     id="namedview10"
     showgrid="false"
     inkscape:zoom="15.170655"
     inkscape:cx="-0.69787486"
     inkscape:cy="8.0000003"
     inkscape:window-x="1912"
     inkscape:window-y="-8"
     inkscape:window-maximized="1"
     inkscape:current-layer="svg2"
     fit-margin-top="0"
     fit-margin-left="0"
     fit-margin-right="0"
     fit-margin-bottom="0" />
  <g
     transform="translate(-424.71429,-528.79074)"
     id="g4">
    <circle
       cx="432.71429"
       cy="536.79071"
       r="6"
       style="fill:#ffffff"
       id="circle6" />
    <path
       d="m 432.71429,528.79074 a 8,8.00001 0 0 0 -8,8 8,8.00001 0 0 0 8,8 8,8.00001 0 0 0 8,-8 8,8.00001 0 0 0 -8,-8 m -3.29297,4 3.29297,3.29297 3.29297,-3.29297 0.70703,0.70703 -3.29297,3.29297 3.29297,3.29297 -0.70703,0.70703 -3.29297,-3.29297 -3.29297,3.29297 -0.70703,-0.70703 3.29297,-3.29297 -3.29297,-3.29297 0.70703,-0.70703"
       style="fill:#c85551;fill-opacity:1"
       id="path8"
       inkscape:connector-curvature="0" />
  </g>
</svg>
