<?xml version="1.0" encoding="UTF-8" standalone="no"?>
<!-- Created with Inkscape (http://www.inkscape.org/) -->

<svg
   xmlns:dc="http://purl.org/dc/elements/1.1/"
   xmlns:cc="http://creativecommons.org/ns#"
   xmlns:rdf="http://www.w3.org/1999/02/22-rdf-syntax-ns#"
   xmlns:svg="http://www.w3.org/2000/svg"
   xmlns="http://www.w3.org/2000/svg"
   xmlns:sodipodi="http://sodipodi.sourceforge.net/DTD/sodipodi-0.dtd"
   xmlns:inkscape="http://www.inkscape.org/namespaces/inkscape"
   id="svg2"
   sodipodi:version="0.32"
   inkscape:version="0.91 r13725"
   width="50.054688"
   height="90.871094"
   version="1.0"
   sodipodi:docname="comma.svg"
   inkscape:output_extension="org.inkscape.output.svg.inkscape">
  <metadata
     id="metadata7">
    <rdf:RDF>
      <cc:Work
         rdf:about="">
        <dc:format>image/svg+xml</dc:format>
        <dc:type
           rdf:resource="http://purl.org/dc/dcmitype/StillImage" />
        <dc:title></dc:title>
      </cc:Work>
    </rdf:RDF>
  </metadata>
  <defs
     id="defs5" />
  <sodipodi:namedview
     inkscape:window-height="1017"
     inkscape:window-width="1920"
     inkscape:pageshadow="2"
     inkscape:pageopacity="0.0"
     guidetolerance="10.0"
     gridtolerance="10.0"
     objecttolerance="10.0"
     borderopacity="1.0"
     bordercolor="#666666"
     pagecolor="#ffffff"
     id="base"
     inkscape:zoom="3.78"
     inkscape:cx="2.471602"
     inkscape:cy="49.828104"
     inkscape:window-x="-8"
     inkscape:window-y="-8"
     inkscape:current-layer="svg2"
     showgrid="false"
     fit-margin-top="0"
     fit-margin-left="0"
     fit-margin-right="0"
     fit-margin-bottom="0"
     inkscape:window-maximized="1" />
  <path
     style="font-style:normal;font-weight:normal;font-size:344px;font-family:'Times New Roman';fill:#ffffff;fill-opacity:1;stroke:none;stroke-width:1px;stroke-linecap:butt;stroke-linejoin:miter;stroke-opacity:1"
     d="m 0,90.871094 0,-7.390625 c 11.533824,-3.807338 20.464153,-9.714233 26.791015,-17.720703 6.326772,-8.006535 9.49018,-16.488948 9.490235,-25.447266 -5.5e-5,-2.127608 -0.503961,-3.919273 -1.511719,-5.375 -0.783907,-1.007812 -1.56776,-1.511718 -2.351563,-1.511718 -1.23182,0 -3.919317,1.11979 -8.0625,3.359375 -2.015665,1.007808 -4.143267,1.511714 -6.382812,1.511718 -5.48701,-4e-6 -9.854193,-1.623701 -13.101563,-4.871093 C 1.623677,30.178389 -1.8999833e-5,25.699227 0,19.988282 -1.8999833e-5,14.501322 2.099588,9.7982006 6.298828,5.8789063 10.498018,1.9596671 15.621059,3.36e-5 21.667968,0 c 7.390578,3.36e-5 13.969347,3.2194314 19.736329,9.6582036 5.766861,6.4388194 8.650322,14.9772224 8.65039,25.6152344 -6.8e-5,11.533841 -4.00332,22.255835 -12.009765,32.166016 C 30.038363,77.349566 17.356735,85.160105 0,90.871094 l 0,0 z"
     id="text2161"
     inkscape:connector-curvature="0" />
</svg>
