<?xml version="1.0" encoding="UTF-8" standalone="no"?>
<!-- Created with Inkscape (http://www.inkscape.org/) -->

<svg
   xmlns:dc="http://purl.org/dc/elements/1.1/"
   xmlns:cc="http://creativecommons.org/ns#"
   xmlns:rdf="http://www.w3.org/1999/02/22-rdf-syntax-ns#"
   xmlns:svg="http://www.w3.org/2000/svg"
   xmlns="http://www.w3.org/2000/svg"
   xmlns:sodipodi="http://sodipodi.sourceforge.net/DTD/sodipodi-0.dtd"
   xmlns:inkscape="http://www.inkscape.org/namespaces/inkscape"
   width="10.137297mm"
   height="10.137297mm"
   viewBox="0 0 35.919555 35.919555"
   id="svg2"
   version="1.1"
   inkscape:version="0.91 r13725"
   sodipodi:docname="launch1.svg">
  <defs
     id="defs4">
    <pattern
       y="0"
       x="0"
       height="6"
       width="6"
       patternUnits="userSpaceOnUse"
       id="EMFhbasepattern" />
    <pattern
       y="0"
       x="0"
       height="6"
       width="6"
       patternUnits="userSpaceOnUse"
       id="EMFhbasepattern-6" />
    <pattern
       y="0"
       x="0"
       height="6"
       width="6"
       patternUnits="userSpaceOnUse"
       id="EMFhbasepattern-8" />
    <pattern
       y="0"
       x="0"
       height="6"
       width="6"
       patternUnits="userSpaceOnUse"
       id="EMFhbasepattern-7" />
  </defs>
  <sodipodi:namedview
     id="base"
     pagecolor="#ffffff"
     bordercolor="#666666"
     borderopacity="1.0"
     inkscape:pageopacity="0.0"
     inkscape:pageshadow="2"
     inkscape:zoom="2.8"
     inkscape:cx="-29.259038"
     inkscape:cy="76.188596"
     inkscape:document-units="px"
     inkscape:current-layer="layer1"
     showgrid="false"
     fit-margin-top="0"
     fit-margin-left="0"
     fit-margin-right="0"
     fit-margin-bottom="0"
     inkscape:window-width="1920"
     inkscape:window-height="1017"
     inkscape:window-x="1912"
     inkscape:window-y="-8"
     inkscape:window-maximized="1" />
  <metadata
     id="metadata7">
    <rdf:RDF>
      <cc:Work
         rdf:about="">
        <dc:format>image/svg+xml</dc:format>
        <dc:type
           rdf:resource="http://purl.org/dc/dcmitype/StillImage" />
        <dc:title />
      </cc:Work>
    </rdf:RDF>
  </metadata>
  <g
     inkscape:label="Layer 1"
     inkscape:groupmode="layer"
     id="layer1"
     transform="translate(-270.59271,-571.02851)">
    <path
       inkscape:connector-curvature="0"
       id="path4242"
       d="m 306.51226,588.99887 c 0,9.90594 -8.04325,17.94919 -17.94919,17.94919 -9.92708,0 -17.97036,-8.04325 -17.97036,-17.94919 0,-9.92708 8.04328,-17.97036 17.97036,-17.97036 9.90594,0 17.94919,8.04328 17.94919,17.97036 z"
       style="fill:#516356;fill-opacity:1;fill-rule:nonzero;stroke:none" />
    <path
       inkscape:connector-curvature="0"
       id="path4244"
       d="m 293.6642,579.93962 c 0,0 -2.73047,0.97364 -4.33913,2.5188 -1.56634,1.18534 -4.08514,4.63548 -4.08514,4.63548 l -2.83631,0.23283 c 0,0 -0.0423,0 -0.0847,0.0212 -0.0212,0 -0.0423,0.0423 -0.0423,0.0423 l -3.13263,3.55597 c 0,0 -0.0847,0.127 -0.10584,0.1905 0,0.0635 0.10584,0.1905 0.10584,0.1905 l 0.78316,0.76197 c 0,0 0.0847,0.0635 0.127,0.0635 0.0423,0 0.14814,-0.0423 0.14814,-0.0423 l 2.51883,-1.52397 c 0.0212,0 0.0212,0 0.0423,0 l 0.21167,0.10583 c 0.0212,0.0212 0.0212,0.0212 0,0.0423 l -0.27517,0.52917 c -0.0423,0.10583 -0.0423,0.1905 0.0212,0.27517 l 3.19614,3.17497 c 0.0847,0.0423 0.16934,0.0423 0.254,0 l 0.508,-0.27517 c 0,0 0.0212,-0.0212 0.0423,-0.0212 0.0212,0.0212 0.0212,0.0423 0.0212,0.0423 l 0.0847,0.16933 c 0,0 0.0212,0.0212 0.0212,0.0423 0,0.0212 -0.0212,0.0635 -0.0212,0.0635 l -1.50283,2.47648 c -0.0635,0.0847 -0.0847,0.1905 0,0.27516 l 0.80433,0.8255 c 0.10584,0.10584 0.254,0.10584 0.35984,0.0212 l 3.55597,-3.2173 c 0,0 0.0423,-0.0212 0.0423,-0.0423 0,-0.0212 0.0212,-0.0423 0.0212,-0.0423 l 0.1905,-2.83634 c 0,0 3.30197,-2.37063 4.65664,-4.06394 1.71447,-1.88383 2.53997,-4.40264 2.53997,-4.40264 l -3.83115,-3.7888 z m -1.27,3.68297 c 0.80434,0 1.43934,0.65617 1.43934,1.46047 0,0.80434 -0.635,1.43934 -1.43934,1.43934 -0.80433,0 -1.46047,-0.635 -1.46047,-1.43934 0,-0.8043 0.65614,-1.46047 1.46047,-1.46047 z"
       style="fill:#ccccde;fill-opacity:1;fill-rule:evenodd;stroke:#000000;stroke-width:0.02116651px;stroke-linecap:butt;stroke-linejoin:miter;stroke-miterlimit:4;stroke-dasharray:none;stroke-opacity:1" />
    <path
       inkscape:connector-curvature="0"
       id="path4246"
       d="m 294.21454,579.79145 3.42897,3.42897 c 0,0 0.40217,-1.48166 0.48683,-2.26483 0.10584,-0.6773 0.21167,-1.22764 0.1905,-1.52397 0,-0.16933 -0.0212,-0.21167 -0.0847,-0.254 -0.0423,-0.0635 -0.14816,-0.0635 -0.21166,-0.0635 -1.3335,0.0212 -3.80997,0.67733 -3.80997,0.67733 z"
       style="fill:#ff9999;fill-opacity:1;fill-rule:evenodd;stroke:#000000;stroke-width:0.02116651px;stroke-linecap:butt;stroke-linejoin:miter;stroke-miterlimit:4;stroke-dasharray:none;stroke-opacity:1" />
    <path
       inkscape:connector-curvature="0"
       id="path4248"
       d="m 283.92762,593.29567 c -0.97366,-0.91017 -2.45533,-0.71967 -3.25966,-0.0212 -0.55031,0.46567 -0.67731,1.27 -1.01597,1.88384 -0.1905,0.33866 -0.84667,0.8043 -0.84667,0.8043 0,0 1.10067,-0.0635 1.46047,-0.40214 0.254,-0.23283 0.3175,-0.508 0.55033,-0.65616 0.127,-0.0635 0.35984,-0.1905 0.4445,-0.0847 0.254,0.27516 0.10584,0.40216 0.0423,0.5715 -0.0847,0.21166 -0.29633,0.33866 -0.48683,0.44447 -0.48683,0.29633 -1.03714,0.46566 -1.41814,0.86783 -0.635,0.67733 -0.52916,2.13783 -0.52916,2.13783 0,0 0.46566,-0.67733 0.74083,-0.67733 0.8043,-0.0212 1.22764,-0.0635 1.67214,-0.40217 0.5715,-0.4445 0.35983,-0.91016 0.6985,-1.22766 0.16933,-0.14817 0.33866,-0.29634 0.508,-0.21167 0.35983,0.21167 0.21166,0.40217 0.0635,0.48683 -0.27517,0.1905 -0.35984,0.254 -0.46567,0.4445 -0.127,0.27517 -0.0847,0.889 -0.0847,0.889 0,0 0.33867,-0.33866 0.52917,-0.4445 0.33866,-0.21166 0.74083,-0.254 1.05833,-0.48683 0.29633,-0.1905 0.57147,-0.42333 0.76197,-0.71967 0.74083,-1.1853 0.381,-2.47647 -0.4233,-3.19613 z"
       style="fill:#ffcc00;fill-opacity:1;fill-rule:evenodd;stroke:#000000;stroke-width:0.02116651px;stroke-linecap:butt;stroke-linejoin:miter;stroke-miterlimit:4;stroke-dasharray:none;stroke-opacity:1" />
  </g>
</svg>
