<?xml version="1.0" encoding="UTF-8" standalone="no"?>
<!-- Created with Inkscape (http://www.inkscape.org/) -->

<svg
   xmlns:dc="http://purl.org/dc/elements/1.1/"
   xmlns:cc="http://creativecommons.org/ns#"
   xmlns:rdf="http://www.w3.org/1999/02/22-rdf-syntax-ns#"
   xmlns:svg="http://www.w3.org/2000/svg"
   xmlns="http://www.w3.org/2000/svg"
   xmlns:sodipodi="http://sodipodi.sourceforge.net/DTD/sodipodi-0.dtd"
   xmlns:inkscape="http://www.inkscape.org/namespaces/inkscape"
   width="67.169357mm"
   height="67.768257mm"
   viewBox="0 0 238.00166 240.12374"
   id="svg2"
   version="1.1"
   inkscape:version="0.91 r13725"
   sodipodi:docname="launch.svg">
  <defs
     id="defs4" />
  <sodipodi:namedview
     id="base"
     pagecolor="#ffffff"
     bordercolor="#666666"
     borderopacity="1.0"
     inkscape:pageopacity="0.0"
     inkscape:pageshadow="2"
     inkscape:zoom="1.4"
     inkscape:cx="-15.554289"
     inkscape:cy="219.03112"
     inkscape:document-units="px"
     inkscape:current-layer="layer1"
     showgrid="false"
     fit-margin-top="0"
     fit-margin-left="0"
     fit-margin-right="0"
     fit-margin-bottom="0"
     inkscape:window-width="1920"
     inkscape:window-height="1017"
     inkscape:window-x="1912"
     inkscape:window-y="-8"
     inkscape:window-maximized="1" />
  <metadata
     id="metadata7">
    <rdf:RDF>
      <cc:Work
         rdf:about="">
        <dc:format>image/svg+xml</dc:format>
        <dc:type
           rdf:resource="http://purl.org/dc/dcmitype/StillImage" />
        <dc:title></dc:title>
      </cc:Work>
    </rdf:RDF>
  </metadata>
  <g
     inkscape:label="Layer 1"
     inkscape:groupmode="layer"
     id="layer1"
     transform="translate(-163.79799,-391.07964)">
    <g
       id="g4155"
       transform="translate(-160.10918,-86.873119)">
      <path
         style="fill:#ffffff;fill-opacity:0"
         d="m 323.90717,598.07651 0,-120 118.94999,0 118.95,0 0,120 0,120 -118.95,0 -118.94999,0 0,-120 z"
         id="path4171"
         inkscape:connector-curvature="0" />
      <path
         style="fill:#fdccb0"
         d="m 325.23436,716.67895 c -0.11527,-0.76865 -0.11693,-3.0974 -0.004,-5.175 0.54508,-10.00075 3.8736,-17.90242 9.5527,-22.67744 0.98121,-0.825 1.95131,-1.65674 2.15579,-1.84831 0.6241,-0.58469 4.71816,-2.71956 6.46802,-3.37277 1.57952,-0.58963 6.19335,-3.11701 7.9939,-4.37892 1.86368,-1.30616 4.22183,-3.95929 4.75126,-5.34559 0.52171,-1.36608 0.52151,-1.45863 -0.006,-2.62788 -0.74077,-1.6427 -1.84486,-2.37653 -3.57564,-2.37653 -2.37732,0 -3.67771,1.03944 -6.38449,5.10331 -3.15407,4.73542 -6.02374,6.28464 -14.1793,7.65479 -2.3925,0.40195 -5.14546,0.9391 -6.11769,1.19366 -0.97223,0.25457 -1.82175,0.4088 -1.88781,0.34274 -0.0661,-0.0661 0.3244,-0.39916 0.86769,-0.7402 5.61994,-3.52783 9.83762,-8.40835 11.68714,-13.52386 2.69195,-7.44557 4.66336,-11.32735 7.95869,-15.67104 6.45157,-8.50402 18.43948,-12.47641 29.79198,-9.87205 16.10855,4.36634 25.76489,20.5616 22.21372,36.01265 -1.79385,7.39275 -5.85937,13.39968 -12.01372,17.75065 -2.5133,1.77685 -4.64973,2.83624 -9.90658,4.91241 -4.97753,1.96585 -7.34874,3.49978 -9.44342,6.1089 l -1.5,1.8684 -0.22131,-1.14518 c -0.34827,-1.8022 0.0675,-6.94895 0.72265,-8.94518 0.82779,-2.52233 1.82175,-3.83587 4.43302,-5.85835 3.45792,-2.67823 3.95569,-4.14758 2.01615,-5.9514 -1.20809,-1.12354 -3.09939,-1.19601 -4.94849,-0.18961 -2.40785,1.31052 -3.66032,3.176 -4.84348,7.21409 -1.69848,5.79684 -4.90152,9.63118 -10.0216,11.99681 -2.77316,1.28127 -5.52649,1.87784 -10.37912,2.24884 -2.05821,0.15736 -4.48821,0.50134 -5.4,0.7644 -3.00371,0.86659 -5.53583,2.76048 -7.83212,5.858 -0.84287,1.13697 -1.57894,2.06722 -1.63572,2.06722 -0.0568,0 -0.19753,-0.6289 -0.31279,-1.39756 z m 89.13538,-4.90412 c -0.52834,-0.16659 -2.86504,-2.25471 -5.7748,-5.16046 -6.18614,-6.17762 -6.29057,-6.53237 -3.34903,-11.37613 0.83893,-1.38145 1.79081,-2.97221 2.11529,-3.53501 0.32447,-0.56281 0.91756,-1.5054 1.31796,-2.09464 0.4004,-0.58925 0.72801,-1.23127 0.72801,-1.42672 0,-0.19545 0.10909,-0.40036 0.24242,-0.45536 0.13333,-0.055 0.97708,-1.30395 1.875,-2.77544 0.89792,-1.4715 1.90258,-3.11613 2.23258,-3.65473 0.33,-0.53861 1.47184,-2.43966 2.53744,-4.22456 1.06559,-1.7849 2.69073,-4.46027 3.61143,-5.94527 2.37864,-3.83651 2.41776,-3.95752 1.76999,-5.475 -0.29934,-0.70125 -0.68807,-1.275 -0.86384,-1.275 -0.17577,0 -1.56506,0.74534 -3.0873,1.65631 -3.5572,2.12877 -4.61694,2.45874 -6.28827,1.958 -1.09788,-0.32894 -3.84581,-2.955 -20.21915,-19.32249 -20.83581,-20.82837 -20.14699,-20.0175 -19.32772,-22.75199 0.20766,-0.69309 0.70152,-1.73693 1.09749,-2.31964 0.39596,-0.58271 0.71993,-1.15637 0.71993,-1.27479 0,-0.11843 0.405,-0.81542 0.9,-1.54887 0.495,-0.73345 0.9,-1.48751 0.9,-1.6757 0,-0.18818 -0.62959,-0.61203 -1.39909,-0.94187 l -1.39908,-0.59972 -1.97592,1.16814 c -1.08675,0.64248 -4.13591,2.48913 -6.77591,4.10366 -2.64,1.61454 -6.015,3.66534 -7.5,4.55733 -1.485,0.89199 -5.24206,3.16268 -8.34902,5.04598 -6.44963,3.90948 -7.13924,4.21691 -8.77704,3.91283 -0.99658,-0.18503 -1.89295,-0.92799 -5.93293,-4.91757 -2.61745,-2.58478 -4.9462,-5.13402 -5.175,-5.66497 -0.87483,-2.03009 -0.38733,-3.68384 1.79847,-6.10088 0.67953,-0.75143 1.68971,-1.89893 2.24483,-2.55 0.55512,-0.65107 1.63512,-1.86593 2.4,-2.69969 0.76488,-0.83376 2.15129,-2.38626 3.08092,-3.45 8.91083,-10.19637 10.24996,-11.71591 13.86595,-15.73407 0.59394,-0.66 1.08303,-1.36875 1.08686,-1.575 0.004,-0.20625 0.12732,-0.375 0.27444,-0.375 0.14711,0 0.35198,-0.33671 0.45527,-0.74824 0.10329,-0.41154 0.28667,-0.72172 0.40752,-0.6893 0.35831,0.0961 4.43556,-4.11097 8.72812,-9.00606 2.20461,-2.51407 4.28937,-4.72141 4.63278,-4.9052 0.34342,-0.18379 3.80465,-0.51445 7.69161,-0.7348 11.84624,-0.67155 24.67879,-1.621 26.34463,-1.94918 1.03167,-0.20325 1.73875,-0.53677 2.04371,-0.96399 0.25646,-0.35928 1.41874,-2.00323 2.58285,-3.65323 1.16411,-1.65 3.07117,-4.2825 4.23792,-5.85 1.16675,-1.5675 2.87213,-3.8625 3.78973,-5.1 9.36535,-12.6303 23.06905,-27.64085 34.64599,-37.95 2.59061,-2.3069 5.18783,-4.45836 8.27238,-6.85259 2.0625,-1.60091 4.155,-3.24431 4.65,-3.65199 1.36887,-1.12741 10.87845,-7.55469 12.75,-8.61739 0.9075,-0.5153 1.75796,-1.11491 1.88991,-1.33247 0.13195,-0.21756 0.37776,-0.39556 0.54625,-0.39556 0.16849,0 2.52205,-1.215 5.23013,-2.7 2.70809,-1.485 4.97995,-2.7 5.04859,-2.7 0.0686,0 1.83136,-0.8114 3.91716,-1.80311 3.96678,-1.88603 11.66793,-5.02492 13.22446,-5.39012 0.49857,-0.11697 1.14306,-0.1297 1.43221,-0.0283 0.59216,0.20772 45.69291,45.17045 46.15337,46.01213 0.41576,0.75998 -0.2251,2.62315 -3.94162,11.45937 -5.53148,13.1514 -15.14649,28.46978 -25.83625,41.16161 -1.50015,1.78111 -3.28704,3.90387 -3.97088,4.71723 -0.68383,0.81337 -1.82314,2.11635 -2.5318,2.89551 -0.70866,0.77917 -1.18115,1.47531 -1.05,1.54699 0.13116,0.0717 0.0747,0.0911 -0.1255,0.0431 -0.32965,-0.079 -3.40896,2.87568 -3.62733,3.48047 -0.15233,0.42188 -3.74708,3.90505 -4.03015,3.90505 -0.14517,0 -0.18052,0.135 -0.0786,0.3 0.10198,0.165 0.047,0.3 -0.12209,0.3 -0.16913,0 -1.48472,1.15619 -2.92352,2.56931 -1.43881,1.41313 -2.89246,2.71727 -3.23035,2.8981 -0.33788,0.18083 -2.23652,1.77072 -4.21919,3.53308 -3.11503,2.76892 -12.09672,10.15127 -14.35668,11.80025 -0.41514,0.3029 -2.14272,1.62177 -3.83907,2.93082 -1.69634,1.30905 -4.16985,3.12715 -5.49668,4.04023 -1.32683,0.91307 -3.22242,2.26355 -4.21242,3.00106 -0.99,0.73751 -2.01979,1.41676 -2.28843,1.50946 -0.26863,0.0927 -0.6451,0.5124 -0.83658,0.93266 -0.52678,1.15615 -2.42499,26.23106 -2.42499,32.03352 0,2.63684 -0.75388,3.89543 -3.98396,6.6511 -2.86353,2.44296 -7.06621,6.14721 -11.13549,9.81483 -3.33556,3.00632 -3.72672,3.35195 -5.58012,4.93057 -0.90727,0.77275 -2.25727,1.95825 -3,2.63444 -1.63143,1.48526 -6.66749,5.93975 -9.32208,8.24555 -3.9361,3.41893 -6.76987,5.9275 -8.22834,7.2841 -3.06015,2.84637 -4.76084,3.5598 -6.88743,2.88924 z M 494.5475,566.88104 c 5.41512,-1.80171 10.05777,-6.74573 11.43816,-12.18064 0.46971,-1.84939 0.48018,-6.87754 0.0168,-8.07389 -0.19173,-0.495 -0.40255,-1.17 -0.46849,-1.5 -0.29579,-1.4801 -2.05278,-4.36903 -3.78587,-6.22493 -5.90434,-6.32271 -14.89929,-7.28573 -22.13992,-2.37035 -3.52594,2.39363 -6.15313,6.33664 -7.03339,10.55605 -0.57674,2.76455 -0.58202,4.35024 -0.0233,6.98742 1.39821,6.59899 6.47368,11.70062 13.20561,13.27367 2.37858,0.5558 6.34981,0.34468 8.79033,-0.46733 z m 37.61358,-59.45097 c -11.59457,-11.57555 -20.97368,-21.13832 -20.84247,-21.25062 0.57268,-0.49013 9.29492,-2.5898 16.73855,-4.0294 2.145,-0.41484 7.95,-1.36152 12.9,-2.10373 4.95,-0.74221 9.82556,-1.48904 10.83459,-1.65964 1.00902,-0.17059 3.18707,-0.31017 4.84009,-0.31017 l 3.0055,0 1.08491,1.20086 c 1.06237,1.17591 1.08491,1.25245 1.08491,3.68294 0,2.13318 -1.47195,13.91664 -2.38452,19.08897 -0.16276,0.92247 -0.6464,3.70223 -1.07476,6.17723 -1.12406,6.49454 -1.799,9.73864 -3.1154,14.97394 -1.17142,4.65877 -1.37916,5.27606 -1.77555,5.27606 -0.11815,0 -9.70128,-9.4709 -21.29585,-21.04644 z"
         id="path4169"
         inkscape:connector-curvature="0"
         sodipodi:nodetypes="ccssssscssssssssccssscssssssssssscccsscsssssssssssssssssscsssssssssssscsscscsssssssssssssssccssscsccsscsscssssscsssssssscccsscssscsccscsssscsssssss" />
      <path
         style="fill:#f6b194"
         d="m 325.41643,713.80151 c 0.0193,-8.26615 1.47264,-14.02629 4.9446,-19.59682 2.8039,-4.49867 6.71242,-7.62335 13.11506,-10.48487 10.1196,-4.52273 14.82369,-9.51341 12.52339,-13.28636 -1.23166,-2.02017 -4.36971,-2.40814 -6.47704,-0.8008 -0.59871,0.45666 -1.51082,1.44004 -2.02692,2.18529 -4.50689,6.50802 -6.97591,8.23627 -13.23835,9.26648 -3.1938,0.5254 -8.09094,1.47172 -9.15,1.76813 -0.4125,0.11545 0.1275,-0.37704 1.2,-1.09443 1.0725,-0.71739 3.165,-2.52925 4.65,-4.02636 3.15331,-3.17901 4.71497,-5.73757 6.31376,-10.34417 2.26742,-6.53314 5.91524,-12.92487 9.31873,-16.32836 1.962,-1.96201 5.8441,-4.62948 8.35095,-5.73813 0.95338,-0.42163 2.89962,-1.12517 4.32499,-1.56341 2.37397,-0.7299 3.03237,-0.79799 7.84157,-0.81084 26.07904,2.156 37.91198,32.96098 21.74311,50.19849 -3.63156,3.8011 -6.88676,5.84041 -13.31082,8.33892 -6.32771,2.46103 -9.63559,4.60261 -10.98795,7.11379 -0.31943,0.59315 -0.7004,1.07845 -0.84661,1.07845 -0.14849,0 -0.20256,-1.82073 -0.12249,-4.125 0.21198,-6.10094 1.2957,-8.5103 5.10708,-11.35422 3.39623,-2.53415 4.01076,-4.1877 2.22134,-5.97712 -1.40913,-1.40913 -2.74725,-1.59764 -4.76101,-0.67072 -2.78737,1.28302 -4.13795,3.06921 -5.31477,7.02895 -2.18262,7.3441 -6.53801,11.7687 -13.37788,13.59044 -1.32,0.35157 -4.425,0.82823 -6.9,1.05925 -2.475,0.23102 -5.04,0.57428 -5.7,0.7628 -2.78988,0.79692 -6.20818,3.47845 -8.29946,6.51062 -0.48365,0.70125 -0.94038,1.275 -1.01495,1.275 -0.0746,0 -0.13142,-1.78875 -0.12633,-3.975 z m 88.64074,-2.3158 c -0.33,-0.13902 -2.79375,-2.46846 -5.475,-5.17654 l -4.875,-4.92377 0,-1.63261 c 0,-1.7705 -0.72384,-0.50248 15.45428,-27.07276 l 3.25537,-5.34647 -0.55356,-1.62853 c -0.30445,-0.89568 -0.66747,-1.62852 -0.80671,-1.62852 -0.13924,0 -1.70357,0.82565 -3.47627,1.83478 -3.2532,1.85192 -4.7381,2.30928 -6.27999,1.93433 -0.58002,-0.14104 -6.724,-6.07397 -19.6884,-19.01207 -10.36491,-10.34387 -19.03866,-19.17159 -19.275,-19.61714 -0.89935,-1.69545 -0.57824,-3.12019 1.52028,-6.74518 1.0725,-1.85265 1.95,-3.49128 1.95,-3.64141 0,-0.15013 -0.70249,-0.53988 -1.56109,-0.86612 l -1.5611,-0.59317 -9.0139,5.45991 c -4.95765,3.00295 -11.84891,7.19771 -15.31391,9.32169 -6.28942,3.85529 -6.30314,3.86179 -8.17148,3.86808 l -1.87148,0.006 -4.82291,-4.8 c -2.6526,-2.64 -4.9616,-5.05057 -5.13111,-5.35683 -0.45153,-0.81579 -0.40991,-2.9327 0.0755,-3.84108 0.2318,-0.43376 3.32395,-4.07051 6.87145,-8.08167 9.33991,-10.56063 11.3306,-12.82369 15.54371,-17.67042 2.07972,-2.3925 5.59419,-6.375 7.80993,-8.85 2.21575,-2.475 4.97373,-5.55667 6.12886,-6.84815 1.15513,-1.29149 2.40694,-2.46477 2.78181,-2.60729 0.37487,-0.14253 5.45251,-0.54168 11.28364,-0.88702 10.75938,-0.6372 20.35113,-1.35261 22.68894,-1.69226 1.22854,-0.1785 1.38374,-0.32478 3.42287,-3.22613 26.15504,-37.21436 52.35196,-61.62923 82.11367,-76.52786 6.45567,-3.2317 16.50036,-7.36129 17.90536,-7.36129 0.46613,0 7.26461,6.60564 23.66841,22.99703 l 23.01443,22.99703 -0.17793,1.11276 c -0.51506,3.22099 -7.33779,18.18833 -11.89435,26.09318 -10.06342,17.45831 -24.81625,34.9556 -42.73936,50.69013 -9.13616,8.02054 -20.95773,17.1202 -32.18954,24.77791 -0.24862,0.1695 -1.06451,10.2588 -1.69675,20.98196 -0.24322,4.125 -0.52926,8.9175 -0.63565,10.65 -0.1064,1.7325 -0.37997,3.51209 -0.60794,3.95465 -0.22796,0.44256 -2.54199,2.6663 -5.1423,4.94165 -2.6003,2.27534 -5.94917,5.22075 -7.44193,6.54534 -13.77625,12.22427 -30.32813,26.7573 -31.02764,27.24316 -0.78692,0.54658 -3.00265,0.6691 -4.05824,0.2244 z m 79.50161,-144.17223 c 6.18927,-1.61209 11.32161,-6.88748 12.60838,-12.95979 1.68075,-7.93145 -2.11799,-15.84406 -9.23843,-19.24324 -5.22674,-2.49516 -9.92181,-2.50298 -15.07157,-0.0251 -4.13609,1.99015 -7.1097,5.22501 -8.75448,9.52363 -0.94372,2.46641 -1.27833,7.00462 -0.70934,9.62057 1.32764,6.10383 6.4998,11.46438 12.61382,13.07327 2.19758,0.57828 6.35246,0.58346 8.55162,0.0107 z m 38.8184,-59.82422 c -16.27445,-16.22741 -21.01336,-21.11465 -20.6636,-21.31038 0.70736,-0.39586 9.84158,-2.58071 14.99358,-3.58637 5.46542,-1.06685 13.87175,-2.43046 20.4,-3.30913 2.5575,-0.34422 5.38127,-0.75659 6.27503,-0.91637 0.89377,-0.15977 2.56529,-0.2905 3.71448,-0.2905 2.06705,0 2.10348,0.014 3.39996,1.31053 1.25306,1.25305 1.31053,1.38863 1.31053,3.09166 0,3.20945 -2.83921,22.2399 -4.81781,32.29247 -0.79253,4.02656 -2.9062,12.72282 -3.23526,13.31082 -0.20319,0.36309 -4.84002,-4.10365 -21.37691,-20.59273 z"
         id="path4167"
         inkscape:connector-curvature="0"
         sodipodi:nodetypes="ssssssssssssssccsssssssssssssscscsscssscssssscssccsscsssscsssssscssscsscssscccssssssccscsscscssss" />
      <path
         style="fill:#e18f6b"
         d="m 325.42375,714.32651 c -0.0426,-10.29173 2.49184,-17.93841 7.85795,-23.70857 2.65392,-2.85374 5.15989,-4.52049 10.27547,-6.83433 6.4501,-2.91747 10.31396,-5.63858 12.19858,-8.59083 2.68482,-4.20576 -1.58698,-8.4089 -5.94849,-5.85288 -0.92209,0.54038 -1.81672,1.52631 -3.06249,3.375 -2.86383,4.24987 -5.78673,6.59979 -9.61559,7.73065 -0.75461,0.22287 -3.22818,0.68744 -5.49682,1.03238 -2.26865,0.34494 -4.76615,0.81318 -5.55,1.04052 -0.92827,0.26923 -1.23113,0.2904 -0.86862,0.0607 1.96877,-1.24743 4.55697,-3.44263 6.52261,-5.53217 2.61317,-2.77789 4.13574,-5.46547 5.91012,-10.43226 2.02406,-5.66567 5.22368,-11.34135 8.36037,-14.8301 3.10299,-3.45127 8.65788,-6.70784 13.90033,-8.14911 2.21636,-0.60932 3.19765,-0.69826 7.5,-0.67977 18.84074,0.26465 33.33054,18.9913 28.85183,36.71414 -1.53492,5.64604 -3.99254,9.98575 -7.83172,13.82942 -3.63505,3.6393 -6.75707,5.52388 -13.62814,8.2265 -2.4519,0.96441 -5.2194,2.24603 -6.15,2.84805 -1.61256,1.04318 -4.542,3.96816 -4.542,4.53509 0,0.14716 -0.15292,0.26756 -0.33982,0.26756 -0.49566,0 -0.14459,-7.26252 0.44044,-9.11113 0.73135,-2.31096 2.3485,-4.46936 4.44359,-5.93082 3.33762,-2.3282 4.12017,-4.44177 2.30252,-6.21885 -1.64538,-1.60867 -3.64007,-1.60409 -6.08288,0.0139 -1.93078,1.27889 -2.95097,2.91958 -4.24966,6.83434 -1.76485,5.31998 -3.96688,8.41052 -7.74067,10.86397 -3.00184,1.95159 -6.47493,2.81711 -14.12352,3.51969 -3.35401,0.30809 -5.72828,1.0777 -7.87176,2.55161 -1.30999,0.90078 -3.69062,3.4459 -4.9375,5.27867 -0.49262,0.72409 -0.50976,0.63089 -0.52416,-2.85144 z m 88.63342,-2.89487 c -0.93659,-0.50986 -9.43978,-9.00854 -9.9205,-9.91523 -0.69601,-1.31277 -0.52635,-2.86953 0.51395,-4.71564 0.51889,-0.92084 4.77531,-7.97279 9.45871,-15.671 l 8.51527,-13.99674 -0.75425,-1.70549 -0.75425,-1.70549 -1.09694,0.67795 c -5.44017,3.36221 -7.12025,3.96978 -9.01746,3.261 -0.8784,-0.32815 -36.69708,-35.84583 -38.22574,-37.9045 -1.49172,-2.00892 -1.12756,-3.63558 1.96028,-8.75651 0.58816,-0.97541 1.06973,-1.92423 1.07016,-2.10848 3e-4,-0.18425 -0.69818,-0.62547 -1.55244,-0.98049 l -1.55321,-0.64548 -6.62179,4.01372 c -3.64198,2.20755 -10.13179,6.14796 -14.42179,8.75647 -4.29,2.6085 -8.34,5.05567 -9,5.43814 -1.29472,0.75031 -3.08067,0.9099 -4.14472,0.37039 -0.93727,-0.47523 -9.46222,-8.95923 -9.97577,-9.92785 -0.48605,-0.91675 -0.55989,-2.55791 -0.16216,-3.60403 0.14704,-0.38675 4.0812,-5.01929 8.74257,-10.29453 4.66138,-5.27523 10.10982,-11.46895 12.10765,-13.76382 1.99784,-2.29486 5.45493,-6.21231 7.68243,-8.70543 2.2275,-2.49313 5.31639,-5.97476 6.86421,-7.73695 1.54782,-1.7622 3.23532,-3.39712 3.75,-3.63316 0.65735,-0.30148 4.23857,-0.62208 12.03579,-1.07749 11.02745,-0.64407 20.7768,-1.38408 22.5,-1.70781 0.74944,-0.1408 1.37675,-0.85347 3.75,-4.26023 4.66399,-6.69512 11.34009,-15.451 16.52295,-21.67029 22.29565,-26.75418 44.70027,-44.7292 70.17704,-56.30238 5.11218,-2.32228 11.67662,-4.88378 12.51582,-4.88378 0.30956,0 10.2721,9.73707 23.60354,23.06936 22.34109,22.3425 23.06205,23.09861 22.88222,23.99772 -0.10212,0.5106 -0.93572,2.8214 -1.85244,5.13509 -13.55469,34.21035 -39.72244,64.58282 -80.09914,92.96973 -2.80402,1.97138 -4.88814,3.64565 -5.01198,4.02637 -0.332,1.02075 -1.04084,10.10573 -1.75956,22.55173 -0.44694,7.73972 -0.79019,11.69038 -1.06906,12.30439 -0.22784,0.50166 -2.91367,3.10676 -6.03129,5.85 -3.09129,2.72009 -12.56735,11.07631 -21.05789,18.5694 -8.49055,7.49308 -15.90234,13.93933 -16.47065,14.325 -1.12121,0.76087 -3.04869,0.92841 -4.09956,0.35634 z m 79.19999,-144.00507 c 2.94142,-0.61888 5.82604,-2.26376 8.27583,-4.71909 3.48157,-3.48944 5.07417,-7.31262 5.07417,-12.18097 0,-4.79988 -1.62641,-8.67525 -5.1,-12.15214 -3.54636,-3.54973 -7.29119,-5.09786 -12.33142,-5.09786 -4.52737,0 -8.28155,1.49631 -11.593,4.62064 -3.72804,3.51738 -5.49733,7.50841 -5.53556,12.48669 -0.0372,4.84595 1.64952,9.00994 5.02291,12.39997 4.28907,4.31023 9.99253,5.94608 16.18707,4.64276 z m 39.19392,-60.05125 c -18.89814,-18.90395 -21.03223,-21.13309 -20.4,-21.30873 5.43828,-1.51083 13.42149,-3.25396 20.85453,-4.55359 6.44439,-1.12676 22.83351,-3.43295 24.40155,-3.43365 2.52158,-10e-4 4.49669,1.93955 4.49888,4.42042 0.002,1.90043 -2.83137,21.37244 -4.05424,27.86549 -1.15384,6.1265 -2.91815,14.00487 -3.70403,16.54001 l -0.49061,1.58263 z"
         id="path4165"
         inkscape:connector-curvature="0"
         sodipodi:nodetypes="csssssssscssssccsssssssscsssssccsssscccscsscscsssssssssscsssssssssscssssssssssssssssssccsscs" />
      <path
         style="fill:#cf704b"
         d="m 325.53478,712.82651 c 0.27993,-8.52254 1.89537,-14.15277 5.59718,-19.50764 2.6536,-3.83855 6.6823,-7.03091 11.36546,-9.00602 5.3369,-2.25082 9.03381,-4.48335 11.59467,-7.00192 3.30095,-3.24644 3.5157,-6.08866 0.62322,-8.2482 -0.57381,-0.42842 -1.245,-0.59422 -2.3387,-0.57772 -2.02611,0.0306 -3.59999,1.12558 -5.31529,3.69807 -4.11557,6.17229 -7.14541,8.02132 -14.98706,9.14618 -1.8606,0.2669 -4.08792,0.66815 -4.94959,0.89166 -0.86168,0.22352 -1.5928,0.38029 -1.62471,0.34838 -0.0319,-0.0319 1.03724,-0.8646 2.3759,-1.85041 4.59395,-3.38306 7.61626,-7.70597 9.85252,-14.09238 2.64161,-7.54406 6.7061,-13.88863 11.14704,-17.40025 25.87001,-15.19458 53.81818,5.45126 47.2258,30.60025 -1.78599,6.74287 -5.41497,12.207 -10.92121,16.44395 -2.42306,1.8645 -4.95856,3.20126 -9.37559,4.94295 -6.50477,2.56493 -8.94595,4.03548 -10.78844,6.49888 -1.22534,1.63827 -1.4552,1.40835 -1.48546,-1.48578 -0.0496,-4.74537 1.30349,-8.48321 3.85842,-10.65859 4.58777,-3.90624 5.11905,-4.70438 4.34959,-6.53438 -0.84925,-2.01978 -3.68148,-2.74196 -5.9858,-1.52631 -2.65867,1.40258 -3.80676,3.07811 -5.35723,7.81843 -2.95684,9.04001 -8.62611,12.93889 -19.99553,13.75136 -7.00399,0.50052 -9.74155,1.94806 -14.18283,7.49949 l -0.84002,1.05 z m 88.52239,-1.50823 c -1.11072,-0.54865 -9.27754,-8.74246 -9.8964,-9.9291 -0.63732,-1.22203 -0.56174,-2.5037 0.23806,-4.03683 0.6528,-1.25134 5.24507,-8.84554 12.50283,-20.67584 1.77145,-2.8875 3.78482,-6.21119 4.47416,-7.38597 l 1.25336,-2.13598 -0.63613,-1.61402 c -0.34986,-0.88772 -0.68518,-1.66315 -0.74515,-1.72318 -0.06,-0.06 -1.67059,0.78748 -3.57916,1.88336 -3.84107,2.20549 -4.73726,2.49546 -6.20972,2.00919 -0.71791,-0.23709 -6.44341,-5.77302 -20.20185,-19.53301 l -19.2,-19.20215 0,-1.57412 c 0,-1.39623 0.22885,-1.97133 2.025,-5.08885 1.11375,-1.93309 2.025,-3.57039 2.025,-3.63842 0,-0.068 -0.78598,-0.41763 -1.74661,-0.77688 l -1.74661,-0.65319 -8.40343,5.08131 c -4.62189,2.79471 -8.97471,5.44194 -9.67295,5.88272 -0.69824,0.44078 -1.69948,1.04439 -2.22497,1.34137 -0.52548,0.29697 -3.08703,1.841 -5.69232,3.43115 -2.6053,1.59017 -5.06993,2.9748 -5.47698,3.07696 -1.93676,0.48609 -2.75264,-0.0281 -7.58437,-4.78034 -4.66447,-4.5877 -5.45269,-5.66725 -5.45064,-7.46531 0.002,-1.40805 0.52069,-2.1233 6.17757,-8.51218 2.78922,-3.15015 7.90631,-8.94678 11.37131,-12.88141 18.40369,-20.89804 20.69659,-23.43247 21.71647,-24.00415 0.96969,-0.54354 2.16535,-0.67188 10.53865,-1.13124 8.27916,-0.45419 13.95973,-0.85317 22.56073,-1.5846 l 2.31585,-0.19694 3.21466,-4.53706 c 11.49447,-16.22294 21.14098,-27.83493 32.94386,-39.65621 12.49869,-12.51818 25.22036,-22.51378 38.70977,-30.41483 7.63932,-4.47452 18.40095,-9.52019 25.72556,-12.06161 l 2.02556,-0.70281 23.15373,23.15374 23.15374,23.15373 -0.77958,2.36621 c -1.96999,5.97938 -6.85396,16.52623 -11.04336,23.84795 -14.9117,26.06086 -37.75306,49.67778 -70.36349,72.75262 l -5.12785,3.62842 -0.34409,3.84787 c -0.53675,6.00227 -0.92146,11.47665 -1.51525,21.56169 -0.3247,5.51479 -0.69281,9.5837 -0.90247,9.97545 -0.30113,0.56266 -5.43141,5.2445 -13.2325,12.07584 -1.0725,0.93917 -4.9875,4.39447 -8.69999,7.67843 -16.25354,14.37738 -21.65868,19.04361 -22.37446,19.31575 -1.07679,0.40939 -2.22665,0.35058 -3.27554,-0.16753 z m 78.01989,-143.56011 c 6.86771,-1.22816 12.30282,-6.1489 14.09305,-12.75932 0.61769,-2.28083 0.61355,-6.63884 -0.009,-8.95925 -1.16409,-4.34221 -4.89868,-8.96624 -8.85424,-10.963 -9.48618,-4.78861 -20.98946,-0.16764 -24.46562,9.82806 -4.28645,12.32568 6.49263,25.1323 19.23534,22.85351 z m 40.36594,-60.39582 -21.11318,-21.11478 5.66367,-1.37328 c 9.23438,-2.23909 19.50477,-4.03808 34.71863,-6.08144 l 6.25496,-0.84009 1.37449,0.73687 c 0.91953,0.49296 1.57277,1.12459 1.97348,1.90816 0.56301,1.10097 0.5766,1.35311 0.22639,4.2 -1.93307,15.7138 -4.88099,32.33501 -7.30792,41.20403 l -0.67735,2.4753 z"
         id="path4163"
         inkscape:connector-curvature="0"
         sodipodi:nodetypes="ssssscssssssccsssssssssscsssssscccssscsssscsssssscssssscsssscccssscssssssscscssccccsscsssscc" />
      <path
         style="fill:#f65213"
         d="m 325.90959,716.37893 c -0.28394,-0.28394 -0.20536,-6.21307 0.1087,-8.20242 0.14326,-0.9075 0.40087,-2.5275 0.57246,-3.6 0.35976,-2.24861 1.88929,-6.5364 2.91404,-8.16904 0.38631,-0.61547 0.70238,-1.23951 0.70238,-1.38676 0,-1.04075 6.83842,-8.02551 7.675,-7.83924 0.11436,0.0255 0.29051,-0.0782 0.39146,-0.23031 0.3062,-0.46144 2.72538,-1.76214 5.70707,-3.06848 5.03951,-2.2079 8.47032,-4.42106 10.79284,-6.96227 1.6788,-1.83686 2.35253,-3.63299 2.02254,-5.39196 -0.52023,-2.77309 -3.96007,-4.13284 -6.72586,-2.6587 -1.58722,0.84597 -1.88801,1.14256 -3.20144,3.15676 -1.83726,2.81751 -4.58736,5.75082 -6.29535,6.71475 -1.38184,0.77986 -4.34868,1.72035 -6.25103,1.98158 -0.36588,0.0502 -1.99773,0.31412 -3.62633,0.58641 -1.62861,0.27228 -3.04199,0.41417 -3.14085,0.31531 -0.0989,-0.0989 0.28863,-0.5438 0.8611,-0.98874 4.00102,-3.10975 7.15241,-7.38519 8.69071,-11.79053 0.36851,-1.05533 0.78929,-2.04703 0.93508,-2.20378 0.14578,-0.15675 0.26506,-0.52146 0.26506,-0.81047 0,-1.34799 4.73142,-10.45453 5.43178,-10.45453 0.14752,0 0.23529,-0.10125 0.19505,-0.225 -0.14328,-0.44063 1.15792,-2.04566 3.52123,-4.34344 1.31894,-1.28236 2.54677,-2.33156 2.72851,-2.33156 0.18174,0 0.55354,-0.24653 0.82623,-0.54784 0.78337,-0.86562 6.09799,-3.26328 8.8972,-4.01393 3.68193,-0.98735 10.97694,-0.99383 14.74166,-0.0131 5.31252,1.38398 10.13467,4.26292 14.11201,8.4252 1.4129,1.4786 2.75429,3.10715 2.98085,3.61901 0.22657,0.51185 0.48635,0.93063 0.57729,0.93063 0.24717,0 2.07624,3.65909 2.23115,4.46348 0.0739,0.38376 0.25996,0.85272 0.41345,1.04213 0.3205,0.39551 1.03384,3.11008 1.51427,5.76245 0.49491,2.73225 0.39209,7.14058 -0.23746,10.18194 -0.62858,3.03668 -3.13606,9.30985 -3.88991,9.73172 -0.27132,0.15185 -0.45956,0.35307 -0.41831,0.44718 0.18619,0.42477 0.0432,0.76462 -0.29288,0.6961 -0.20233,-0.0412 -0.41302,0.21959 -0.4682,0.57963 -0.19461,1.26997 -7.73122,8.19538 -8.91865,8.19538 -0.2174,0 -0.44027,0.11464 -0.49527,0.25477 -0.13038,0.33216 -4.05098,2.07894 -8.15239,3.63219 -3.62803,1.37398 -7.05815,3.5206 -8.7108,5.45134 l -1.08681,1.2697 0,-2.86955 c 0,-2.67545 0.2977,-4.27697 1.29906,-6.98845 0.34716,-0.94005 2.48545,-3.45 2.93915,-3.45 0.14398,0 0.52878,-0.23625 0.85509,-0.525 0.32632,-0.28875 1.06898,-0.92846 1.65036,-1.42158 2.63781,-2.23735 1.91966,-5.7536 -1.32395,-6.48239 -1.48396,-0.33343 -2.44647,-0.14143 -4.1438,0.82657 -2.31061,1.31776 -3.62464,3.33617 -4.75403,7.3024 -0.4806,1.68777 -0.9532,2.73192 -2.6478,5.85 -0.17935,0.33 -0.67694,0.94517 -1.10576,1.36705 -0.42883,0.42187 -0.83338,0.90232 -0.899,1.06765 -0.20259,0.51041 -3.33924,2.68394 -4.90061,3.39587 -0.81471,0.37148 -1.96221,0.7512 -2.55,0.84381 -0.58779,0.0926 -1.14188,0.2788 -1.2313,0.41374 -0.20782,0.31357 -6.20983,1.16188 -8.22066,1.16188 -1.86465,0 -5.66636,1.01645 -6.78745,1.81474 -0.45206,0.32189 -0.94661,0.58526 -1.099,0.58526 -0.35688,0 -3.53442,3.21297 -4.23749,4.28474 -0.29589,0.45105 -0.62906,0.72901 -0.74039,0.61768 z m 88.68687,-5.19232 c -0.69015,-0.16413 -2.21094,-1.48921 -5.4,-4.70506 -2.44161,-2.46212 -4.60804,-4.77365 -4.81429,-5.13674 -0.20625,-0.36309 -0.375,-1.13654 -0.375,-1.71877 0,-0.98778 0.307,-1.63108 2.61787,-5.48553 0.36733,-0.6127 0.80489,-1.4234 0.97235,-1.80156 0.16746,-0.37815 0.81192,-1.46136 1.43212,-2.40712 1.50737,-2.29859 1.60418,-2.4575 3.55187,-5.83032 0.92899,-1.60875 1.80984,-2.925 1.95744,-2.925 0.14759,0 0.26835,-0.14709 0.26835,-0.32686 0,-0.17977 0.97875,-1.93726 2.175,-3.90553 1.19625,-1.96827 2.4265,-4.01494 2.7339,-4.54814 0.30739,-0.53321 0.67369,-1.04188 0.81399,-1.13037 0.5003,-0.31557 2.06914,-3.75249 2.04912,-4.4891 -0.0307,-1.13028 -1.25207,-3.16553 -1.83988,-3.06599 -0.27287,0.0462 -1.67462,0.8239 -3.115,1.72821 -3.25396,2.04289 -4.50896,2.45655 -6.04213,1.99153 -0.90368,-0.27409 -4.79784,-4.0164 -19.79432,-19.02248 -10.26813,-10.2747 -18.87008,-18.95127 -19.11546,-19.28127 -0.72102,-0.96968 -0.58556,-3.19371 0.26683,-4.38064 0.40263,-0.56065 1.0148,-1.55936 1.36038,-2.21936 0.34558,-0.66 0.88717,-1.6725 1.20354,-2.25 0.82576,-1.50737 0.75932,-2.01822 -0.29253,-2.24924 -0.49311,-0.10831 -0.97358,-0.32154 -1.06771,-0.47384 -0.39454,-0.63839 -2.06873,-0.20765 -4.35404,1.12021 -1.32249,0.76841 -2.47486,1.51091 -2.56082,1.65 -0.086,0.13908 -0.40179,0.25287 -0.70184,0.25287 -0.30006,0 -0.70858,0.19643 -0.90783,0.4365 -0.19925,0.24008 -1.26203,0.93025 -2.36173,1.53373 -1.09971,0.60347 -2.06697,1.20384 -2.14947,1.33416 -0.0825,0.13032 -3.5925,2.29199 -7.8,4.8037 -4.2075,2.51171 -8.325,4.99533 -9.15,5.51916 -2.32563,1.47662 -3.07627,1.72057 -4.59402,1.49297 -1.26507,-0.18971 -1.68413,-0.52712 -5.88403,-4.73751 -2.48707,-2.4933 -4.70996,-4.89775 -4.93975,-5.34323 -0.2827,-0.54806 -0.3555,-1.26453 -0.22513,-2.21567 0.16154,-1.17856 0.51678,-1.77476 2.1985,-3.68975 1.1032,-1.25623 2.15033,-2.41906 2.32697,-2.58406 0.17663,-0.165 0.70735,-0.7725 1.17939,-1.35 0.47203,-0.5775 1.4837,-1.7336 2.24816,-2.5691 3.57721,-3.9097 5.92872,-6.55959 6.33991,-7.14439 0.2475,-0.352 0.89222,-1.11171 1.43271,-1.68825 2.0822,-2.22107 2.39721,-2.58207 3.20534,-3.67326 0.45824,-0.61875 0.98589,-1.12524 1.17256,-1.12554 0.18666,-2.9e-4 0.7242,-0.60964 1.19453,-1.3541 0.47033,-0.74446 1.07783,-1.52252 1.35,-1.72903 0.27217,-0.2065 0.62986,-0.59314 0.79486,-0.85919 0.66607,-1.07399 5.97706,-7.02562 6.49458,-7.27798 0.30548,-0.14897 0.55542,-0.39475 0.55542,-0.54618 0,-0.52072 2.48162,-3.21795 2.78704,-3.02919 0.16811,0.1039 0.21974,0.0499 0.11473,-0.12002 -0.10501,-0.16992 1.12288,-1.68164 2.72865,-3.35938 l 2.91958,-3.05045 2.4,-0.28162 c 1.32,-0.1549 7.395,-0.56237 13.5,-0.9055 9.96884,-0.5603 14.44897,-0.8943 18.38121,-1.37034 1.4141,-0.17119 1.41353,-0.17071 2.95533,-2.51648 0.59646,-0.9075 1.2423,-1.785 1.43519,-1.95 0.19289,-0.165 0.73683,-0.975 1.20875,-1.8 0.73656,-1.28762 3.86403,-5.70485 4.35431,-6.15 0.0909,-0.0825 0.49272,-0.6225 0.89302,-1.2 0.40029,-0.5775 0.90654,-1.15796 1.125,-1.28991 0.21845,-0.13195 0.39719,-0.4357 0.39719,-0.675 0,-0.2393 0.2025,-0.43509 0.45,-0.43509 0.2475,0 0.45,-0.19092 0.45,-0.42426 0,-0.23334 1.0126,-1.68459 2.25023,-3.225 4.07553,-5.0726 6.45569,-7.97242 7.43469,-9.05793 1.3254,-1.46959 1.73281,-1.9479 2.7077,-3.17886 2.24089,-2.82947 13.94278,-14.88041 18.36646,-18.91428 4.47348,-4.0793 6.58853,-5.90863 7.7195,-6.67671 0.66978,-0.45488 1.39573,-1.08109 1.61321,-1.39159 0.21748,-0.3105 1.17455,-1.07735 2.12681,-1.70413 0.95227,-0.62677 1.93389,-1.35056 2.18139,-1.60841 0.2475,-0.25786 1.125,-0.93653 1.95,-1.50817 0.825,-0.57164 1.69808,-1.23257 1.94017,-1.46874 0.36529,-0.35635 3.20816,-2.30892 5.08411,-3.49192 0.26165,-0.165 0.54322,-0.37763 0.62572,-0.47252 0.32713,-0.37622 3.88413,-2.67748 4.13853,-2.67748 0.1493,0 0.83054,-0.405 1.51386,-0.9 0.68333,-0.495 1.35313,-0.9 1.48845,-0.9 0.13531,0 0.51181,-0.24761 0.83665,-0.55025 0.68308,-0.63639 5.02135,-3.04975 5.48223,-3.04975 0.17061,0 0.89072,-0.39065 1.60024,-0.86812 0.70953,-0.47746 2.77504,-1.56556 4.59004,-2.418 4.31353,-2.0259 4.74628,-2.22106 7.05,-3.17942 1.0725,-0.44617 2.355,-0.98414 2.85,-1.19549 3.593,-1.53411 4.94415,-1.99678 5.94431,-2.03551 1.05666,-0.0409 1.30617,0.12768 3.25733,2.20111 1.16215,1.23499 2.25185,2.38043 2.42155,2.54543 0.16969,0.165 1.22747,1.21893 2.35061,2.34207 1.12313,1.12314 2.20588,2.20314 2.40609,2.4 0.20022,0.19686 1.29873,1.30293 2.44115,2.45793 1.14241,1.155 2.21846,2.235 2.39121,2.4 0.17276,0.165 7.26607,7.22432 15.76291,15.68738 l 15.4488,15.38738 -0.13984,1.45528 c -0.0769,0.80041 -0.43105,2.01399 -0.78697,2.69686 -0.35593,0.68287 -0.64715,1.43873 -0.64715,1.6797 0,1.0264 -6.50086,14.87486 -8.65786,18.4434 -0.34907,0.5775 -0.76902,1.32 -0.93322,1.65 -0.1642,0.33 -0.63694,1.14 -1.05054,1.8 -0.4136,0.66 -0.8723,1.47 -1.01934,1.8 -0.14704,0.33 -0.7981,1.41 -1.4468,2.4 -0.6487,0.99 -1.73673,2.6775 -2.41786,3.75 -1.31909,2.07705 -2.59032,3.87694 -5.0545,7.15648 -0.84157,1.12003 -1.66416,2.27592 -1.82797,2.56863 -0.16381,0.29271 -0.85791,1.16056 -1.54244,1.92855 -0.68454,0.76799 -1.84968,2.22018 -2.58921,3.2271 -0.73954,1.00692 -1.88813,2.39083 -2.55243,3.07535 -0.66431,0.68452 -1.20783,1.32945 -1.20783,1.43319 0,0.36212 -2.54429,2.8107 -2.92057,2.8107 -0.20868,0 -0.37943,0.26329 -0.37943,0.58509 0,0.3218 -0.23625,0.7227 -0.525,0.89088 -0.28875,0.16818 -0.40682,0.30989 -0.26238,0.31491 0.37005,0.0129 -11.19208,11.6567 -13.91262,14.01096 -1.2375,1.07088 -3.195,2.80283 -4.35,3.84878 -1.155,1.04595 -2.75944,2.41869 -3.56542,3.05055 -0.80598,0.63186 -2.58346,2.12758 -3.94997,3.32383 -1.3665,1.19625 -2.6241,2.175 -2.79467,2.175 -0.17057,0 -0.41808,0.16875 -0.55003,0.375 -0.22804,0.35645 -2.26149,2.01172 -4.88319,3.975 -0.661,0.495 -1.50063,1.14236 -1.86583,1.43857 -0.3652,0.29622 -1.14255,0.83186 -1.72744,1.19032 -0.5849,0.35846 -1.30949,0.95984 -1.61022,1.33642 -0.30073,0.37658 -0.72823,0.68469 -0.95,0.68469 -0.22177,0 -0.44823,0.11426 -0.50323,0.25391 -0.093,0.23613 -4.08586,3.12111 -8.14783,5.88709 -0.9613,0.6546 -1.7983,1.27184 -1.85998,1.37164 -0.32706,0.5292 -0.89148,6.62558 -1.48479,16.03736 -0.65705,10.42303 -0.73266,11.66217 -0.92441,15.15 -0.20404,3.7114 -0.50058,4.61828 -1.90953,5.83963 -0.57761,0.5007 -1.25958,1.11287 -1.51548,1.36037 -0.2559,0.2475 -2.21863,1.98142 -4.36162,3.85317 -2.143,1.87174 -4.77386,4.19696 -5.84636,5.16715 -3.30685,2.9914 -4.00043,3.57968 -4.22041,3.57968 -0.11679,0 -1.31434,1.08 -2.66122,2.4 -1.34688,1.32 -2.57714,2.4 -2.73392,2.4 -0.15678,0 -0.99367,0.7199 -1.85975,1.59978 -0.86608,0.87987 -2.23756,2.12862 -3.04773,2.775 -0.81017,0.64637 -1.83466,1.51272 -2.27664,1.92522 -2.3444,2.18801 -8.92903,8.05555 -12.50716,11.14509 -1.72026,1.48535 -2.40842,1.66336 -4.50387,1.16501 z m 80.34497,-143.927 c 3.11186,-1.12529 5.85598,-2.96632 7.64079,-5.1262 2.70998,-3.27946 3.9039,-6.32907 4.42663,-11.3069 0.27223,-2.5924 -1.74262,-8.72497 -3.47442,-10.575 -0.34752,-0.37125 -0.52231,-0.675 -0.38841,-0.675 0.4045,0 -3.22192,-3.29655 -4.18886,-3.80783 -0.495,-0.26174 -0.9675,-0.57648 -1.05,-0.69942 -0.0825,-0.12295 -1.1625,-0.58518 -2.4,-1.02719 -1.67447,-0.59808 -3.06659,-0.84761 -5.44243,-0.97554 -2.9336,-0.15796 -3.42008,-0.10219 -6,0.68796 -4.39991,1.34754 -8.15232,4.42914 -10.22817,8.39968 -1.48245,2.83553 -2.0294,5.0904 -2.0294,8.3664 0,4.74553 1.30039,8.23244 4.38249,11.75138 2.30953,2.63687 5.58446,4.60458 9.20765,5.53231 1.79259,0.459 7.70106,0.12182 9.54413,-0.54465 z m 37.9458,-59.8688 c -11.15404,-11.13506 -20.28007,-20.45832 -20.28007,-20.71837 0,-0.45241 0.32042,-0.57723 3.6,-1.40251 2.89486,-0.72846 7.61556,-1.7619 12.9,-2.82401 1.2375,-0.24872 4.4775,-0.79437 7.2,-1.21254 2.7225,-0.41818 5.76,-0.89491 6.75,-1.05942 3.71491,-0.61728 11.0432,-1.47526 11.29126,-1.32195 0.14173,0.0876 0.55796,-0.0511 0.92497,-0.30812 1.61251,-1.12945 4.35487,-0.0986 5.79552,2.17861 l 0.83992,1.32763 -0.51151,3.18819 c -0.50065,3.12053 -1.74046,11.61728 -2.30374,15.78819 -0.43371,3.21147 -2.45861,13.94637 -3.70653,19.65 -0.71253,3.2566 -1.60172,6.34183 -1.91932,6.65943 -0.20058,0.20058 -7.04094,-6.4286 -20.5805,-19.94513 z"
         id="path4161"
         inkscape:connector-curvature="0" />
      <path
         style="fill:#e64304"
         d="m 339.73567,708.86433 c 0.37317,-0.0718 0.91317,-0.069 1.2,0.006 0.28682,0.0751 -0.0185,0.1338 -0.6785,0.13047 -0.66,-0.003 -0.89468,-0.0648 -0.5215,-0.13652 z m 6.61525,-0.89275 c 0.21656,-0.0867 0.47531,-0.076 0.575,0.0237 0.0997,0.0997 -0.0775,0.17059 -0.39375,0.15756 -0.34948,-0.0144 -0.42057,-0.0855 -0.18125,-0.18126 z m 61.07774,-3.17007 -0.57149,-0.675 0.675,0.5715 c 0.63433,0.53706 0.81157,0.7785 0.57149,0.7785 -0.0569,0 -0.36067,-0.30375 -0.675,-0.675 z m 18.77851,-1.23827 c 0,-0.0623 0.23625,-0.29854 0.525,-0.525 0.47581,-0.37316 0.48642,-0.36255 0.11326,0.11327 -0.39191,0.49973 -0.63826,0.65864 -0.63826,0.41173 z m 1.2,-0.9 c 0,-0.0623 0.23625,-0.29854 0.525,-0.525 0.47581,-0.37316 0.48642,-0.36255 0.11326,0.11327 -0.39191,0.49972 -0.63826,0.65864 -0.63826,0.41173 z m -96.7048,-8.12712 c -0.0929,-0.24222 -0.0679,-0.50287 0.0556,-0.57922 0.12354,-0.0764 0.24425,0.12182 0.26825,0.44039 0.0519,0.68897 -0.0895,0.74958 -0.32388,0.13883 z m 77.38872,-3.2145 c 0.0866,-0.14019 0.28321,-0.17723 0.43681,-0.0823 0.39251,0.24259 0.34831,0.33719 -0.15754,0.33719 -0.24024,0 -0.36591,-0.1147 -0.27927,-0.25489 z m -17.88392,-0.35838 c 0,-0.0623 0.23625,-0.29854 0.525,-0.525 0.47582,-0.37316 0.48643,-0.36255 0.11327,0.11327 -0.39192,0.49973 -0.63827,0.65864 -0.63827,0.41173 z m 50.8809,-0.73673 c -0.085,-0.1375 0.0361,-0.25 0.2691,-0.25 0.23298,0 0.35407,0.1125 0.26909,0.25 -0.085,0.1375 -0.20607,0.25 -0.26909,0.25 -0.063,0 -0.18412,-0.1125 -0.2691,-0.25 z m -30.6309,-2.75 c 0.10197,-0.165 0.24494,-0.3 0.3177,-0.3 0.0728,0 0.1323,0.135 0.1323,0.3 0,0.165 -0.14297,0.3 -0.31771,0.3 -0.17474,0 -0.23427,-0.135 -0.13229,-0.3 z m -65.85,-3.9 c 0.2475,-0.15995 0.585,-0.29081 0.75,-0.29081 0.165,0 0.0975,0.13086 -0.15,0.29081 -0.2475,0.15995 -0.585,0.29081 -0.75,0.29081 -0.165,0 -0.0975,-0.13086 0.15,-0.29081 z m 2.7,-0.6 c -0.27039,-0.17474 -0.30739,-0.29265 -0.0927,-0.29541 0.19652,-0.002 0.44073,0.13041 0.54271,0.29541 0.23019,0.37246 0.12634,0.37246 -0.45,0 z m 66.16928,-0.38794 c 0.11266,-0.29587 0.28041,-0.46236 0.37278,-0.37 0.0924,0.0924 1.9e-4,0.33444 -0.20484,0.53794 -0.29628,0.29408 -0.33074,0.25962 -0.16794,-0.16794 z m -85.06928,-1.09435 c 0,-0.15527 0.13345,-0.36478 0.29656,-0.46559 0.17006,-0.1051 0.22036,0.0153 0.11791,0.2823 -0.19944,0.51972 -0.41447,0.61481 -0.41447,0.18329 z m 1.74375,-0.22264 c 0.21656,-0.0867 0.47531,-0.076 0.575,0.0237 0.0997,0.0997 -0.0775,0.17059 -0.39375,0.15756 -0.34948,-0.0144 -0.42057,-0.0855 -0.18125,-0.18126 z m 24.2332,-2.46529 c -0.411,-0.45415 -0.43573,-0.6166 -0.12149,-0.7981 0.217,-0.12533 0.29299,-0.11594 0.16888,0.0209 -0.12411,0.13682 -0.002,0.49596 0.2715,0.7981 0.27343,0.30214 0.42965,0.54935 0.34715,0.54935 -0.0825,0 -0.38222,-0.2566 -0.66604,-0.57022 z m -12.77695,-0.74305 c 0,-0.0623 0.23625,-0.29854 0.525,-0.525 0.47582,-0.37316 0.48643,-0.36255 0.11327,0.11327 -0.39191,0.49973 -0.63827,0.65864 -0.63827,0.41173 z m 113.99999,-0.3 c 0,-0.0623 0.23625,-0.29854 0.525,-0.525 0.47582,-0.37316 0.48643,-0.36255 0.11327,0.11327 -0.39191,0.49972 -0.63827,0.65864 -0.63827,0.41173 z m -59.03039,-2.88673 c 0,-0.5775 0.0617,-0.81375 0.1372,-0.525 0.0754,0.28875 0.0754,0.76125 0,1.05 -0.0755,0.28875 -0.1372,0.0525 -0.1372,-0.525 z m -48.2972,-4.9493 c 0.12231,-0.13502 0.082,-0.41465 -0.0896,-0.62139 -0.22054,-0.26573 -0.19779,-0.44178 0.0776,-0.6007 0.21426,-0.12364 0.28949,-0.11433 0.16717,0.0207 -0.12232,0.13502 -0.082,0.41464 0.0896,0.62139 0.22053,0.26572 0.19779,0.44178 -0.0776,0.6007 -0.21427,0.12364 -0.28949,0.11433 -0.16717,-0.0207 z m 1.59041,-1.32997 c -0.0949,-0.1536 -0.0579,-0.35016 0.0823,-0.4368 0.14019,-0.0866 0.25489,0.039 0.25489,0.27927 0,0.50585 -0.0946,0.55004 -0.33719,0.15753 z m 112.40678,-7.22073 c 0,-0.5775 0.0617,-0.81375 0.1372,-0.525 0.0755,0.28875 0.0755,0.76125 0,1.05 -0.0755,0.28875 -0.1372,0.0525 -0.1372,-0.525 z m 0.25409,-6.175 c 0.0144,-0.34948 0.0855,-0.42057 0.18125,-0.18125 0.0867,0.21656 0.076,0.47531 -0.0237,0.575 -0.0997,0.0997 -0.17059,-0.0775 -0.15757,-0.39375 z m -71.83976,-0.17989 c 0.0867,-0.14019 0.28321,-0.17723 0.43681,-0.0823 0.39251,0.24259 0.34832,0.33719 -0.15754,0.33719 -0.24024,0 -0.36591,-0.1147 -0.27927,-0.25489 z m -13.76392,-10.18234 c 0.2035,-0.20502 0.44557,-0.2972 0.53794,-0.20483 0.0924,0.0924 -0.0741,0.26011 -0.37,0.37277 -0.42756,0.16281 -0.46202,0.12835 -0.16794,-0.16794 z m 86.80368,-4.33777 c 0.0144,-0.34948 0.0855,-0.42057 0.18125,-0.18125 0.0867,0.21656 0.076,0.47531 -0.0237,0.575 -0.0997,0.0997 -0.17059,-0.0775 -0.15757,-0.39375 z m 0.3,-3 c 0.0144,-0.34948 0.0855,-0.42057 0.18125,-0.18125 0.0867,0.21656 0.076,0.47531 -0.0237,0.575 -0.0997,0.0997 -0.17059,-0.0775 -0.15757,-0.39375 z m 3.87631,-3.23827 c 0,-0.0623 0.23625,-0.29854 0.525,-0.525 0.47582,-0.37316 0.48643,-0.36255 0.11327,0.11327 -0.39191,0.49972 -0.63827,0.65864 -0.63827,0.41173 z m -132.14787,-1.0833 c -0.1051,-0.17005 0.0153,-0.22035 0.2823,-0.1179 0.51972,0.19944 0.61481,0.41447 0.18328,0.41447 -0.15526,0 -0.36477,-0.13345 -0.46558,-0.29657 z m 139.34787,-4.0167 c 0,-0.0623 0.23625,-0.29854 0.525,-0.525 0.47582,-0.37316 0.48643,-0.36255 0.11327,0.11327 -0.39191,0.49972 -0.63827,0.65864 -0.63827,0.41173 z M 371.38217,577.76971 c 0.28875,-0.0755 0.76125,-0.0755 1.05,0 0.28875,0.0755 0.0525,0.1372 -0.525,0.1372 -0.5775,0 -0.81375,-0.0617 -0.525,-0.1372 z m 11.70571,-0.6011 c 0.29189,-0.0761 0.69689,-0.0711 0.9,0.0111 0.20311,0.0822 -0.0357,0.14441 -0.53071,0.1383 -0.495,-0.006 -0.66118,-0.0734 -0.36929,-0.1494 z m 8.24429,-0.59078 c 0.20625,-0.0832 0.54375,-0.0832 0.75,0 0.20625,0.0832 0.0375,0.15131 -0.375,0.15131 -0.4125,0 -0.58125,-0.0681 -0.375,-0.15131 z m 7.35571,-0.60922 c 0.29189,-0.0761 0.69689,-0.0711 0.9,0.0111 0.2031,0.0822 -0.0357,0.14441 -0.53071,0.1383 -0.495,-0.006 -0.66119,-0.0734 -0.36929,-0.1494 z m 90.29428,-7.7989 c 0.28875,-0.0755 0.76125,-0.0755 1.05,0 0.28875,0.0755 0.0525,0.1372 -0.525,0.1372 -0.5775,0 -0.81375,-0.0617 -0.525,-0.1372 z m -80.59107,-0.44809 c 0.0866,-0.14019 0.28321,-0.17723 0.43681,-0.0823 0.39251,0.24259 0.34831,0.33719 -0.15754,0.33719 -0.24024,0 -0.36591,-0.1147 -0.27927,-0.25489 z m 2.06608,-2.64511 c 0.29864,-0.33 0.61049,-0.6 0.69299,-0.6 0.0825,0 -0.0944,0.27 -0.39299,0.6 -0.29865,0.33 -0.6105,0.6 -0.693,0.6 -0.0825,0 0.0944,-0.27 0.393,-0.6 z m 64.91173,-3.525 c -0.37317,-0.47582 -0.36255,-0.48643 0.11326,-0.11327 0.28875,0.22646 0.525,0.46271 0.525,0.525 0,0.24691 -0.24635,0.088 -0.63826,-0.41173 z m -61.96173,-0.175 c 0,-0.22 0.17785,-0.4 0.39523,-0.4 0.29535,0 0.31134,0.10109 0.0633,0.4 -0.18258,0.22 -0.36044,0.4 -0.39524,0.4 -0.0348,0 -0.0633,-0.18 -0.0633,-0.4 z m 2.22,-3.23723 c 0.2035,-0.20502 0.44557,-0.2972 0.53793,-0.20483 0.0924,0.0924 -0.0741,0.26011 -0.36999,0.37277 -0.42756,0.16281 -0.46202,0.12835 -0.16794,-0.16794 z m 55.92736,-5.66277 c 0,-0.4125 0.0681,-0.58125 0.15132,-0.375 0.0832,0.20625 0.0832,0.54375 0,0.75 -0.0832,0.20625 -0.15132,0.0375 -0.15132,-0.375 z m -0.0237,-1.975 c 0.0144,-0.34948 0.0855,-0.42057 0.18125,-0.18125 0.0867,0.21656 0.076,0.47531 -0.0237,0.575 -0.0997,0.0997 -0.17059,-0.0775 -0.15757,-0.39375 z m 0.3,-3.6 c 0.0144,-0.34948 0.0855,-0.42057 0.18125,-0.18125 0.0867,0.21656 0.076,0.47531 -0.0237,0.575 -0.0997,0.0997 -0.17059,-0.0775 -0.15757,-0.39375 z m 75.4456,-1.71294 c 0.11266,-0.29587 0.28041,-0.46237 0.37277,-0.37 0.0924,0.0924 2e-4,0.33444 -0.20483,0.53794 -0.29629,0.29408 -0.33074,0.25962 -0.16794,-0.16794 z m 0.7307,-1.99435 c 0,-0.15527 0.13346,-0.36478 0.29657,-0.46559 0.17005,-0.1051 0.22035,0.0153 0.1179,0.2823 -0.19944,0.51972 -0.41447,0.61481 -0.41447,0.18329 z m -44.73827,-3.24271 c -0.37316,-0.47582 -0.36255,-0.48643 0.11327,-0.11327 0.49973,0.39191 0.65865,0.63827 0.41173,0.63827 -0.0623,0 -0.29854,-0.23625 -0.525,-0.525 z m -4.66173,-4.7118 c 0,-0.24025 0.1147,-0.36592 0.2549,-0.27927 0.14019,0.0866 0.17722,0.2832 0.0823,0.4368 -0.24259,0.39251 -0.33719,0.34832 -0.3372,-0.15753 z m 49.12217,-2.38649 c -0.24016,-0.28937 -0.25178,-0.4848 -0.0367,-0.61771 0.17302,-0.10692 0.3249,-0.15269 0.33752,-0.10171 0.13467,0.54389 0.20658,1.14271 0.13724,1.14271 -0.0477,0 -0.24481,-0.19048 -0.43802,-0.42329 z m -109.64126,-0.12671 c -0.085,-0.1375 0.0361,-0.25 0.2691,-0.25 0.23298,0 0.35407,0.1125 0.26909,0.25 -0.085,0.1375 -0.20607,0.25 -0.26909,0.25 -0.063,0 -0.18412,-0.1125 -0.2691,-0.25 z m 104.24278,-4.43827 c -0.0213,-0.30453 0.8442,-1.24148 0.89926,-0.97346 0.22783,1.10899 0.21357,1.18251 -0.16786,0.86595 -0.29262,-0.24285 -0.43755,-0.22756 -0.55223,0.0583 -0.0923,0.2301 -0.16511,0.25011 -0.17917,0.0493 z m -96.62369,-3.225 c 0,-0.0623 0.23625,-0.29854 0.525,-0.525 0.47582,-0.37316 0.48643,-0.36255 0.11327,0.11327 -0.39191,0.49973 -0.63827,0.65864 -0.63827,0.41173 z m 103.46173,-1.31173 c -0.37316,-0.47582 -0.36255,-0.48643 0.11327,-0.11327 0.49973,0.39191 0.65864,0.63827 0.41173,0.63827 -0.0623,0 -0.29854,-0.23625 -0.525,-0.525 z m -11.63804,-0.26327 c -0.0213,-0.30453 0.8442,-1.24148 0.89926,-0.97346 0.22783,1.10899 0.21357,1.18251 -0.16786,0.86595 -0.29262,-0.24285 -0.43755,-0.22756 -0.55223,0.0583 -0.0923,0.2301 -0.16511,0.25011 -0.17917,0.0493 z m 9.23804,-2.13673 c -0.37316,-0.47582 -0.36255,-0.48643 0.11327,-0.11327 0.49973,0.39191 0.65864,0.63827 0.41173,0.63827 -0.0623,0 -0.29854,-0.23625 -0.525,-0.525 z M 535.573,520.70213 c -0.0966,-0.15629 -0.0477,-0.36319 0.10854,-0.45978 0.15629,-0.0966 0.36319,-0.0477 0.45978,0.10854 0.0966,0.15629 0.0478,0.36319 -0.10854,0.45978 -0.15629,0.0966 -0.36319,0.0478 -0.45978,-0.10854 z m -84.58191,-0.38051 c 0.0866,-0.14019 0.2832,-0.17723 0.4368,-0.0823 0.39252,0.24259 0.34832,0.33719 -0.15753,0.33719 -0.24024,0 -0.36591,-0.1147 -0.27927,-0.25489 z m 0.71607,-0.45838 c 0,-0.17229 0.23625,-0.49854 0.525,-0.725 0.48563,-0.38085 0.492,-0.36673 0.0849,0.18827 -0.24207,0.33 -0.47832,0.65625 -0.525,0.725 -0.0467,0.0688 -0.0849,-0.016 -0.0849,-0.18827 z m 81.62217,-1.41002 c -0.24015,-0.28937 -0.25178,-0.4848 -0.0367,-0.61771 0.17302,-0.10692 0.3249,-0.15269 0.33752,-0.10171 0.13467,0.54389 0.20658,1.14271 0.13724,1.14271 -0.0477,0 -0.24481,-0.19048 -0.43802,-0.42329 z m -77.87217,-1.97671 c 0.29865,-0.33 0.6105,-0.6 0.693,-0.6 0.0825,0 -0.0944,0.27 -0.393,0.6 -0.29864,0.33 -0.61049,0.6 -0.69299,0.6 -0.0825,0 0.0944,-0.27 0.39299,-0.6 z m 86.51173,0.075 c -0.37316,-0.47582 -0.36255,-0.48643 0.11327,-0.11327 0.28875,0.22646 0.525,0.46271 0.525,0.525 0,0.24691 -0.24636,0.088 -0.63827,-0.41173 z m -11.1778,-1.02989 c 0.0866,-0.14019 0.2832,-0.17723 0.4368,-0.0823 0.39252,0.24259 0.34832,0.33719 -0.15753,0.33719 -0.24024,0 -0.36591,-0.1147 -0.27927,-0.25489 z m 8.7778,-1.37011 c -0.37316,-0.47582 -0.36255,-0.48643 0.11327,-0.11327 0.28875,0.22646 0.525,0.46271 0.525,0.525 0,0.24691 -0.24636,0.088 -0.63827,-0.41173 z m -11.03956,-0.49829 c -0.24015,-0.28937 -0.25178,-0.4848 -0.0367,-0.61771 0.17302,-0.10692 0.3249,-0.15269 0.33752,-0.10171 0.13467,0.5439 0.20658,1.14271 0.13724,1.14271 -0.0477,0 -0.24481,-0.19048 -0.43802,-0.42329 z m 8.63956,-1.90171 c -0.37316,-0.47582 -0.36255,-0.48643 0.11327,-0.11327 0.49973,0.39191 0.65865,0.63827 0.41173,0.63827 -0.0623,0 -0.29854,-0.23625 -0.525,-0.525 z m -2.4,-2.4 c -0.37316,-0.47582 -0.36255,-0.48643 0.11327,-0.11327 0.28875,0.22646 0.525,0.46271 0.525,0.525 0,0.24691 -0.24636,0.088 -0.63827,-0.41173 z m -11.03956,-0.49829 c -0.24015,-0.28937 -0.25178,-0.4848 -0.0367,-0.61771 0.17302,-0.10692 0.3249,-0.15269 0.33752,-0.10171 0.13467,0.54389 0.20658,1.14271 0.13724,1.14271 -0.0477,0 -0.24481,-0.19048 -0.43802,-0.42329 z m 8.63956,-1.90171 c -0.37316,-0.47582 -0.36255,-0.48643 0.11327,-0.11327 0.28875,0.22646 0.525,0.46271 0.525,0.525 0,0.24691 -0.24636,0.088 -0.63827,-0.41173 z m -11.1778,-1.02989 c 0.0866,-0.14019 0.2832,-0.17723 0.4368,-0.0823 0.39252,0.24259 0.34832,0.33719 -0.15753,0.33719 -0.24024,0 -0.36591,-0.1147 -0.27927,-0.25489 z m -2.26176,-1.8684 c -0.24015,-0.28937 -0.25178,-0.4848 -0.0367,-0.61771 0.17302,-0.10692 0.3249,-0.15269 0.33752,-0.10171 0.13467,0.5439 0.20658,1.14271 0.13724,1.14271 -0.0477,0 -0.24481,-0.19048 -0.43802,-0.42329 z m -44.32217,-0.31351 c 0,-0.24025 0.1147,-0.36592 0.2549,-0.27927 0.14019,0.0866 0.17722,0.2832 0.0823,0.4368 -0.24259,0.39251 -0.33719,0.34832 -0.3372,-0.15753 z m 52.96173,-1.5882 c -0.37316,-0.47582 -0.36255,-0.48643 0.11327,-0.11327 0.28875,0.22646 0.525,0.46271 0.525,0.525 0,0.24691 -0.24636,0.088 -0.63827,-0.41173 z m -11.1778,-1.02989 c 0.0866,-0.14019 0.2832,-0.17723 0.4368,-0.0823 0.39252,0.24259 0.34832,0.33719 -0.15753,0.33719 -0.24024,0 -0.36591,-0.1147 -0.27927,-0.25489 z m -36.9701,-0.65894 c 0.0378,-0.25784 0.15259,-0.55258 0.25498,-0.65498 0.10239,-0.10239 0.15521,0.0248 0.11737,0.28264 -0.0378,0.25784 -0.15259,0.55258 -0.25498,0.65498 -0.1024,0.10239 -0.15521,-0.0248 -0.11737,-0.28264 z m 45.48617,-1.08617 c -0.35247,-0.495 -0.57336,-0.9 -0.49086,-0.9 0.0825,0 0.43839,0.405 0.79086,0.9 0.35247,0.495 0.57336,0.9 0.49086,0.9 -0.0825,0 -0.43839,-0.405 -0.79086,-0.9 z m -10.77783,-0.12329 c -0.24015,-0.28937 -0.25178,-0.4848 -0.0367,-0.61771 0.17302,-0.10692 0.3249,-0.15269 0.33752,-0.10171 0.13467,0.5439 0.20658,1.14271 0.13724,1.14271 -0.0477,0 -0.24481,-0.19048 -0.43802,-0.42329 z m -26.42217,-2.57671 c -0.2475,-0.15995 -0.315,-0.29081 -0.15,-0.29081 0.165,0 0.5025,0.13086 0.75,0.29081 0.2475,0.15995 0.315,0.29081 0.15,0.29081 -0.165,0 -0.5025,-0.13086 -0.75,-0.29081 z m 23.88393,-0.35489 c 0.0866,-0.14019 0.2832,-0.17723 0.4368,-0.0823 0.39252,0.24259 0.34832,0.33719 -0.15753,0.33719 -0.24024,0 -0.36591,-0.1147 -0.27927,-0.25489 z m 8.7778,-1.37011 c -0.37316,-0.47582 -0.36255,-0.48643 0.11327,-0.11327 0.49973,0.39191 0.65865,0.63827 0.41173,0.63827 -0.0623,0 -0.29854,-0.23625 -0.525,-0.525 z m -11.03956,-0.49829 c -0.24015,-0.28937 -0.25178,-0.4848 -0.0367,-0.61771 0.17302,-0.10692 0.3249,-0.15269 0.33753,-0.10171 0.13466,0.5439 0.20658,1.14271 0.13723,1.14271 -0.0477,0 -0.24481,-0.19048 -0.43802,-0.42329 z m -2.53824,-2.9316 c 0.0866,-0.14019 0.2832,-0.17723 0.4368,-0.0823 0.39252,0.24259 0.34832,0.33719 -0.15753,0.33719 -0.24024,0 -0.36591,-0.1147 -0.27927,-0.25489 z m 53.53976,-0.42011 c 0.0144,-0.34948 0.0855,-0.42057 0.18124,-0.18125 0.0867,0.21656 0.076,0.47531 -0.0237,0.575 -0.0997,0.0997 -0.17059,-0.0775 -0.15756,-0.39375 z m -44.76196,-0.95 c -0.37316,-0.47582 -0.36255,-0.48643 0.11327,-0.11327 0.28875,0.22646 0.525,0.46271 0.525,0.525 0,0.24691 -0.24636,0.088 -0.63827,-0.41173 z m -10.16173,-0.975 c -0.27038,-0.17474 -0.30739,-0.29265 -0.0927,-0.29541 0.19651,-0.003 0.44073,0.13041 0.5427,0.29541 0.23019,0.37246 0.12634,0.37246 -0.45,0 z m 9.1215,-0.375 -0.5715,-0.675 0.675,0.5715 c 0.37125,0.31432 0.675,0.61807 0.675,0.675 0,0.24007 -0.24144,0.0628 -0.7785,-0.5715 z m 10.32225,-5.52993 c 0.21656,-0.0867 0.47532,-0.076 0.575,0.0237 0.0997,0.0997 -0.0775,0.17059 -0.39375,0.15757 -0.34948,-0.0144 -0.42057,-0.0855 -0.18125,-0.18125 z m 13.5,-2.4 c 0.21656,-0.0867 0.47531,-0.076 0.575,0.0237 0.0997,0.0997 -0.0775,0.17059 -0.39375,0.15757 -0.34948,-0.0144 -0.42057,-0.0855 -0.18125,-0.18125 z m 8.1,-1.2 c 0.21656,-0.0867 0.47531,-0.076 0.575,0.0237 0.0997,0.0997 -0.0775,0.17059 -0.39375,0.15757 -0.34948,-0.0144 -0.42057,-0.0855 -0.18125,-0.18125 z m 4.8,-0.6 c 0.21656,-0.0867 0.47531,-0.076 0.575,0.0237 0.0997,0.0997 -0.0775,0.17059 -0.39375,0.15757 -0.34948,-0.0144 -0.42057,-0.0855 -0.18125,-0.18125 z"
         id="path4159"
         inkscape:connector-curvature="0"
         sodipodi:nodetypes="cccccccscccsscssssssssccscccsscscsscscsccssscssssscccccsccssccsccscccccsccscssscsssccsscccccsccscssssccccccssccsccccccccccccscssccscscsssssscscccsscccccsssscssccscsccssccscscccccscssccccccccccscsssscscssccccccscscccscsccsscccscsscssccssccccsscccccccsscscccscscscccscscscsscsscscsscscscccsscscsscscsccscsscssccscsccccccscsscssccccccssssscscsccssssscssccssccscscccssccccccscssccccccssccccccccccccccccccccc" />
    </g>
  </g>
</svg>
