<?xml version="1.0" encoding="UTF-8" standalone="no"?>
<svg
   xmlns:dc="http://purl.org/dc/elements/1.1/"
   xmlns:cc="http://creativecommons.org/ns#"
   xmlns:rdf="http://www.w3.org/1999/02/22-rdf-syntax-ns#"
   xmlns:svg="http://www.w3.org/2000/svg"
   xmlns="http://www.w3.org/2000/svg"
   xmlns:sodipodi="http://sodipodi.sourceforge.net/DTD/sodipodi-0.dtd"
   xmlns:inkscape="http://www.inkscape.org/namespaces/inkscape"
   width="131.00723"
   height="252.48755"
   viewBox="0 0 131.00723 252.48755"
   preserveAspectRatio="xMidYMid meet"
   id="svg2"
   version="1.1"
   inkscape:version="0.91 r13725"
   sodipodi:docname="mobile-frame.svg">
  <metadata
     id="metadata160">
    <rdf:RDF>
      <cc:Work
         rdf:about="">
        <dc:format>image/svg+xml</dc:format>
        <dc:type
           rdf:resource="http://purl.org/dc/dcmitype/StillImage" />
        <dc:title></dc:title>
      </cc:Work>
    </rdf:RDF>
  </metadata>
  <sodipodi:namedview
     pagecolor="#ffffff"
     bordercolor="#ffffff"
     borderopacity="0"
     objecttolerance="10"
     gridtolerance="10"
     guidetolerance="10"
     inkscape:pageopacity="0"
     inkscape:pageshadow="2"
     inkscape:window-width="1920"
     inkscape:window-height="1017"
     id="namedview158"
     showgrid="false"
     fit-margin-top="0"
     fit-margin-left="0"
     fit-margin-right="0"
     fit-margin-bottom="0"
     inkscape:zoom="2"
     inkscape:cx="32.097747"
     inkscape:cy="207.76632"
     inkscape:window-x="1912"
     inkscape:window-y="-8"
     inkscape:window-maximized="1"
     inkscape:current-layer="svg2" />
  <defs
     id="defs4">
    <clipPath
       id="animationMask_WUf42bIMNX">
      <rect
         width="800"
         height="400"
         x="0"
         y="0"
         id="rect7" />
    </clipPath>
    <clipPath
       id="WnDLIXnXer">
      <path
         d="m 1102.25,645.5 c 0,0 -230.25,0 -230.25,0 0,0 0,337.75 0,337.75 0,0 230.25,0 230.25,0 0,0 0,-337.75 0,-337.75"
         id="path10"
         inkscape:connector-curvature="0"
         style="clip-rule:nonzero;fill:#ffffff" />
    </clipPath>
  </defs>
  <rect
     style="opacity:1;fill:none"
     y="-76.524887"
     x="-332.5538"
     id="rect14"
     height="400"
     width="800" />
  <g
     transform="matrix(0.52,0,0,0.52,-4.73824,-2.0597274)"
     id="g18">
    <path
       d="m 206.339,4.073 c -4.301,-0.03 -138.841,0 -143.139,0 C 49.729,4.073 9.112,0.25 9.112,37.278 l 0,415.101 c 0,37.026 40.617,37.135 54.088,37.135 l 143.139,0 c 13.471,0 54.71,-0.109 54.71,-37.135 l 0,-415.101 c 0,-37.028 -41.226,-33.11 -54.71,-33.205 z M 250,55.673077 250,429.75 l -230,0 0,-374.076923 z"
       style="fill:#414141;fill-opacity:1"
       id="path22"
       inkscape:connector-curvature="0"
       sodipodi:nodetypes="cssssssscccccc" />
    <path
       d="m 161.8,25.322 c 0,0.01 -0.006,0.017 -0.014,0.017 0,0 -53.411,0 -53.411,0 -0.008,0 -0.017,-0.007 -0.017,-0.017 0,0 0,-3.022 0,-3.022 0,-0.007 0.009,-0.015 0.017,-0.015 0,0 53.411,0 53.411,0 0.008,0 0.014,0.008 0.014,0.015 0,0 0,3.022 0,3.022 z"
       style="fill:#ededed;fill-opacity:1"
       id="path26"
       inkscape:connector-curvature="0" />
    <path
       d="m 161.8,472.702 c 0,0.008 -0.006,0.018 -0.014,0.018 0,0 -53.411,0 -53.411,0 -0.008,0 -0.017,-0.01 -0.017,-0.018 0,0 0,-3.021 0,-3.021 0,-0.008 0.009,-0.016 0.017,-0.016 0,0 53.411,0 53.411,0 0.008,0 0.014,0.008 0.014,0.016 0,0 0,3.021 0,3.021 z"
       style="fill:#ededed;fill-opacity:1"
       id="path28"
       inkscape:connector-curvature="0" />
  </g>
</svg>
