<?xml version="1.0" encoding="UTF-8" standalone="no"?>
<!-- Created with Inkscape (http://www.inkscape.org/) -->

<svg
   xmlns:dc="http://purl.org/dc/elements/1.1/"
   xmlns:cc="http://creativecommons.org/ns#"
   xmlns:rdf="http://www.w3.org/1999/02/22-rdf-syntax-ns#"
   xmlns:svg="http://www.w3.org/2000/svg"
   xmlns="http://www.w3.org/2000/svg"
   xmlns:sodipodi="http://sodipodi.sourceforge.net/DTD/sodipodi-0.dtd"
   xmlns:inkscape="http://www.inkscape.org/namespaces/inkscape"
   width="133.02182mm"
   height="126.55035mm"
   viewBox="0 0 471.33716 448.40676"
   id="svg4173"
   version="1.1"
   inkscape:version="0.91 r13725"
   sodipodi:docname="process-circle.svg">
  <defs
     id="defs4175">
    <inkscape:path-effect
       vertical="false"
       scale_y_rel="false"
       prop_scale="1"
       bendpath="m 165.41248,625.19218 44.37753,0"
       is_visible="true"
       id="path-effect4818"
       effect="bend_path" />
    <inkscape:path-effect
       end_linecap_type="round"
       miter_limit="4"
       linejoin_type="round"
       start_linecap_type="round"
       interpolator_beta="0.2"
       interpolator_type="Linear"
       sort_points="true"
       offset_points="0,1 | 2,1 | 4,1"
       is_visible="true"
       id="path-effect4816"
       effect="powerstroke" />
    <inkscape:path-effect
       is_visible="true"
       id="path-effect4800"
       effect="spiro" />
    <inkscape:path-effect
       vertical="false"
       scale_y_rel="false"
       prop_scale="1"
       bendpath="m 165.41248,625.19218 44.37753,0"
       is_visible="true"
       id="path-effect4818-7"
       effect="bend_path" />
    <inkscape:path-effect
       end_linecap_type="round"
       miter_limit="4"
       linejoin_type="round"
       start_linecap_type="round"
       interpolator_beta="0.2"
       interpolator_type="Linear"
       sort_points="true"
       offset_points="0,1 | 2,1 | 4,1"
       is_visible="true"
       id="path-effect4816-3"
       effect="powerstroke" />
    <inkscape:path-effect
       is_visible="true"
       id="path-effect4800-2"
       effect="spiro" />
    <inkscape:path-effect
       vertical="false"
       scale_y_rel="false"
       prop_scale="1"
       bendpath="m 165.41248,625.19218 44.37753,0"
       is_visible="true"
       id="path-effect4818-1"
       effect="bend_path" />
    <inkscape:path-effect
       end_linecap_type="round"
       miter_limit="4"
       linejoin_type="round"
       start_linecap_type="round"
       interpolator_beta="0.2"
       interpolator_type="Linear"
       sort_points="true"
       offset_points="0,1 | 2,1 | 4,1"
       is_visible="true"
       id="path-effect4816-7"
       effect="powerstroke" />
    <inkscape:path-effect
       is_visible="true"
       id="path-effect4800-1"
       effect="spiro" />
    <inkscape:path-effect
       vertical="false"
       scale_y_rel="false"
       prop_scale="1"
       bendpath="m 165.41248,625.19218 44.37753,0"
       is_visible="true"
       id="path-effect4818-8"
       effect="bend_path" />
    <inkscape:path-effect
       end_linecap_type="round"
       miter_limit="4"
       linejoin_type="round"
       start_linecap_type="round"
       interpolator_beta="0.2"
       interpolator_type="Linear"
       sort_points="true"
       offset_points="0,1 | 2,1 | 4,1"
       is_visible="true"
       id="path-effect4816-9"
       effect="powerstroke" />
    <inkscape:path-effect
       is_visible="true"
       id="path-effect4800-27"
       effect="spiro" />
  </defs>
  <sodipodi:namedview
     id="base"
     pagecolor="#ffffff"
     bordercolor="#666666"
     borderopacity="1.0"
     inkscape:pageopacity="0.0"
     inkscape:pageshadow="2"
     inkscape:zoom="0.70710678"
     inkscape:cx="397.26246"
     inkscape:cy="350.10196"
     inkscape:document-units="px"
     inkscape:current-layer="layer2"
     showgrid="false"
     fit-margin-top="0"
     fit-margin-left="0"
     fit-margin-right="0"
     fit-margin-bottom="0"
     inkscape:window-width="1920"
     inkscape:window-height="1017"
     inkscape:window-x="1912"
     inkscape:window-y="-8"
     inkscape:window-maximized="1" />
  <metadata
     id="metadata4178">
    <rdf:RDF>
      <cc:Work
         rdf:about="">
        <dc:format>image/svg+xml</dc:format>
        <dc:type
           rdf:resource="http://purl.org/dc/dcmitype/StillImage" />
        <dc:title></dc:title>
      </cc:Work>
    </rdf:RDF>
  </metadata>
  <g
     inkscape:label="Layer 1"
     inkscape:groupmode="layer"
     id="layer1"
     style="display:inline"
     transform="translate(687.64287,-178.94605)">
    <g
       id="g4971"
       transform="translate(-1.4142136,-10.000494)">
      <circle
         r="63.63961"
         cy="382.39078"
         cx="-622.58905"
         id="path4877-4"
         style="display:inline;opacity:1;fill:#002d0a;fill-opacity:1;fill-rule:nonzero;stroke:none;stroke-width:3.53299999;stroke-linecap:round;stroke-linejoin:miter;stroke-miterlimit:4;stroke-dasharray:none;stroke-opacity:1" />
      <g
         transform="matrix(0.87506367,0,0,0.87506367,84.820474,1.573568)"
         id="g4933">
        <path
           inkscape:connector-curvature="0"
           style="fill:#ccccde;fill-opacity:1;fill-rule:evenodd;stroke:#000000;stroke-width:0.1;stroke-linecap:butt;stroke-linejoin:miter;stroke-miterlimit:4;stroke-dasharray:none;stroke-opacity:1"
           d="m -921.70117,248.38281 c 0,0 -11.05438,3.90481 -17.57031,10.16992 -6.33735,4.83654 -16.58594,18.81055 -16.58594,18.81055 l -11.48242,0.91992 c 0,0 -0.19444,0.012 -0.29102,0.0605 -0.0911,0.0457 -0.23437,0.19531 -0.23437,0.19531 l -12.64844,14.40039 c 0,0 -0.38491,0.49076 -0.39649,0.75 -0.0132,0.29581 0.375,0.76758 0.375,0.76758 l 3.21289,3.10352 c 0,0 0.29677,0.26474 0.49805,0.27734 0.18001,0.0113 0.57422,-0.1875 0.57422,-0.1875 l 10.19531,-6.13477 c 0.12367,-0.0529 0.14271,-0.0475 0.22852,-0.0176 l 0.8125,0.39843 c 0.0947,0.07 0.0827,0.11223 0.0449,0.2129 l -1.14648,2.14843 c -0.16091,0.3962 -0.15941,0.71317 0.043,1.07031 l 12.99219,12.83594 c 0.33634,0.23624 0.65426,0.23901 1.04883,0.0664 L -950,307.0918 c 0,0 0.11108,-0.0852 0.18359,-0.0605 0.0645,0.0219 0.0977,0.13672 0.0977,0.13672 l 0.28906,0.67578 c 0,0 0.0781,0.13539 0.0723,0.21875 -0.005,0.07 -0.082,0.19141 -0.082,0.19141 l -6.09571,10.04297 c -0.21205,0.37947 -0.34479,0.79042 0,1.13867 l 3.33594,3.37109 c 0.41087,0.41499 0.98191,0.42439 1.42969,0.0215 l 14.42578,-12.98046 c 0,0 0.10066,-0.1058 0.12891,-0.17188 0.0384,-0.0899 0.0469,-0.18164 0.0469,-0.18164 l 0.83399,-11.53125 c 0,0 13.38296,-9.54427 18.82617,-16.42187 6.95135,-7.62323 10.25781,-17.82032 10.25781,-17.82032 l -15.45117,-15.33789 z m -5.20508,14.91407 a 5.8869395,5.8869395 0 0 1 5.88672,5.88671 5.8869395,5.8869395 0 0 1 -5.88672,5.88672 5.8869395,5.8869395 0 0 1 -5.88672,-5.88672 5.8869395,5.8869395 0 0 1 5.88672,-5.88671 z"
           transform="translate(134.01521,150.16965)"
           id="path4922" />
        <path
           style="fill:#ff9999;fill-opacity:1;fill-rule:evenodd;stroke:#000000;stroke-width:0.1;stroke-linecap:butt;stroke-linejoin:miter;stroke-miterlimit:4;stroke-dasharray:none;stroke-opacity:1"
           d="m -785.48479,397.92209 13.875,13.9375 c 0,0 1.60554,-6.05966 2.01433,-9.15867 0.4163,-2.79198 0.78116,-5.0233 0.74068,-6.21544 -0.0234,-0.69011 -0.0721,-0.81239 -0.32532,-1.05558 -0.20255,-0.19452 -0.59344,-0.21693 -0.87422,-0.21143 -5.38647,0.10549 -15.43047,2.70362 -15.43047,2.70362 z"
           id="path4924"
           inkscape:connector-curvature="0"
           sodipodi:nodetypes="cccsssc" />
        <path
           style="fill:#ffcc00;fill-opacity:1;fill-rule:evenodd;stroke:#000000;stroke-width:0.1;stroke-linecap:butt;stroke-linejoin:miter;stroke-miterlimit:4;stroke-dasharray:none;stroke-opacity:1"
           d="m -827.11968,452.60902 c -4.00254,-3.67267 -9.99235,-2.89916 -13.25825,-0.0442 -2.17843,1.90432 -2.69622,5.15966 -4.11006,7.6456 -0.76244,1.34058 -3.35876,3.18198 -3.35876,3.18198 0,0 4.42387,-0.239 5.92202,-1.63519 0.96002,-0.89469 1.22014,-2.04291 2.20971,-2.60745 0.53221,-0.30362 1.3924,-0.75591 1.81196,-0.30936 1.00671,1.07146 0.42265,1.58773 0.13258,2.29809 -0.33116,0.81098 -1.19055,1.32184 -1.94454,1.76777 -2.02836,1.19962 -4.24654,1.88251 -5.78944,3.53554 -2.52099,2.70094 -2.07712,8.61786 -2.07712,8.61786 0,0 1.8044,-2.70914 2.98245,-2.73024 3.26561,-0.0585 4.93465,-0.20723 6.76171,-1.63518 2.30039,-1.79789 1.44795,-3.64384 2.82843,-4.94975 0.6461,-0.6112 1.38366,-1.21771 2.01148,-0.84949 1.44886,0.84977 0.85344,1.57746 0.30936,1.94454 -1.15329,0.77811 -1.52141,1.05586 -1.90035,1.85616 -0.50627,1.06921 -0.30936,3.53553 -0.30936,3.53553 0,0 1.33446,-1.31634 2.12133,-1.81196 1.32257,-0.83303 2.9915,-1.02556 4.28683,-1.90035 1.17415,-0.79294 2.29128,-1.76408 3.0494,-2.96101 3.05827,-4.82844 1.52758,-10.00623 -1.67938,-12.94889 z"
           id="path4930"
           inkscape:connector-curvature="0"
           sodipodi:nodetypes="ssscsssssscsssssscssss" />
      </g>
    </g>
  </g>
  <g
     inkscape:groupmode="layer"
     id="layer2"
     inkscape:label="Layer 2"
     transform="translate(687.64287,-178.94605)">
    <g
       id="g4979"
       transform="translate(2.5253296,5.6568542)">
      <circle
         r="63.63961"
         cy="236.9288"
         cx="-448.84277"
         id="path4877"
         style="display:inline;opacity:1;fill:#002d0a;fill-opacity:1;fill-rule:nonzero;stroke:none;stroke-width:3.53299999;stroke-linecap:round;stroke-linejoin:miter;stroke-miterlimit:4;stroke-dasharray:none;stroke-opacity:1" />
      <g
         inkscape:label="Layer 1"
         id="layer1-4"
         style="display:inline;opacity:1"
         transform="matrix(0.33228235,0,0,0.33228235,-567.55241,89.914971)">
        <path
           style="fill:#f7da22;fill-opacity:1"
           d="m 334.01839,589.27126 c -0.18617,-0.13039 -0.25623,-0.29595 -0.25623,-0.60545 0,-0.47788 -0.0279,-0.37857 3.3439,-11.89699 1.34574,-4.59719 2.69545,-9.21457 2.99933,-10.26083 0.30389,-1.04626 1.02994,-3.53652 1.61344,-5.53392 0.58351,-1.9974 1.31019,-4.48767 1.61486,-5.53393 0.30467,-1.04626 0.86974,-2.98015 1.25572,-4.29752 0.38597,-1.31738 0.70177,-2.47555 0.70177,-2.5737 0,-0.16021 -0.85291,-0.16992 -8.34112,-0.0949 l -8.34111,0.0836 -0.24801,-0.248 c -0.14695,-0.14696 -0.248,-0.39338 -0.248,-0.60478 0,-0.21626 3.38819,-8.26423 8.6032,-20.43518 4.73176,-11.04313 8.70079,-20.27123 8.82007,-20.5069 0.11929,-0.23567 0.31706,-0.4821 0.4395,-0.54763 0.15079,-0.0807 6.7307,-0.11914 20.39044,-0.11914 l 20.16781,0 0.30377,0.23895 c 0.22782,0.1792 0.30377,0.34288 0.30377,0.65461 0,0.39211 -0.23362,0.65127 -4.12162,4.57196 -2.26689,2.28596 -4.14756,4.18432 -4.17927,4.21858 -0.13586,0.14679 -9.68806,9.80585 -14.21024,14.3692 -2.71036,2.73503 -4.92792,5.03074 -4.92792,5.10159 0,0.094 2.94201,0.12881 10.87937,0.12881 10.8318,0 10.8807,9.4e-4 11.18314,0.23895 0.22045,0.1734 0.30378,0.34517 0.30378,0.62616 0,0.33307 -0.20596,0.61808 -1.47275,2.03804 -0.81001,0.90795 -2.60736,2.92188 -3.9941,4.47542 -7.16166,8.023 -9.86286,11.05136 -10.38555,11.64343 -0.49425,0.55986 -4.17585,4.68425 -11.99009,13.43218 -2.11782,2.37087 -4.74347,5.31291 -8.0704,9.04292 -1.26819,1.42183 -3.00619,3.36933 -3.86222,4.32776 -0.85603,0.95844 -2.78967,3.12592 -4.29697,4.81664 -1.50731,1.69072 -2.85478,3.15403 -2.99438,3.25181 -0.3234,0.22651 -0.6589,0.22594 -0.98389,-0.002 z"
           id="path4873"
           inkscape:connector-curvature="0" />
        <path
           style="display:inline;opacity:1;fill:#f7da22;fill-opacity:1"
           d="m 271.59768,555.15195 c -0.13661,-0.0957 -0.18802,-0.21716 -0.18802,-0.44427 0,-0.35066 -0.0205,-0.27779 2.45371,-8.72983 0.98748,-3.37335 1.97788,-6.76152 2.20086,-7.52925 0.22299,-0.76773 0.75575,-2.59504 1.18392,-4.06071 0.42817,-1.46566 0.9614,-3.29298 1.18496,-4.06071 0.22356,-0.76773 0.6382,-2.18679 0.92143,-3.15346 0.28322,-0.96667 0.51495,-1.81652 0.51495,-1.88854 0,-0.11756 -0.62586,-0.12468 -6.12059,-0.0696 l -6.12059,0.0614 -0.18198,-0.18198 c -0.10783,-0.10784 -0.18198,-0.28866 -0.18198,-0.44378 0,-0.15869 2.4862,-6.06417 6.3129,-14.99503 3.47209,-8.10328 6.38451,-14.87472 6.47203,-15.04765 0.0875,-0.17294 0.23266,-0.35376 0.3225,-0.40185 0.11065,-0.0592 4.93889,-0.0874 14.9622,-0.0874 l 14.79884,0 0.2229,0.17534 c 0.16717,0.13149 0.2229,0.2516 0.2229,0.48034 0,0.28773 -0.17142,0.47789 -3.02438,3.35484 -1.66341,1.6774 -3.04342,3.07039 -3.06668,3.09553 -0.0997,0.10771 -7.10896,7.19538 -10.42727,10.5439 -1.98882,2.00693 -3.61603,3.69148 -3.61603,3.74347 0,0.069 2.1588,0.0945 7.98312,0.0945 7.94821,0 7.98409,6.9e-4 8.20602,0.17534 0.16176,0.12724 0.22291,0.25328 0.22291,0.45947 0,0.2444 -0.15113,0.45353 -1.08068,1.49548 -0.59438,0.66624 -1.91324,2.14403 -2.93081,3.284 -5.25512,5.88715 -7.23722,8.10932 -7.62077,8.54377 -0.36267,0.41082 -3.06417,3.43723 -8.79814,9.85633 -1.55403,1.73971 -3.48069,3.89854 -5.92194,6.63556 -0.93058,1.04332 -2.2059,2.47237 -2.83404,3.17565 -0.62814,0.70329 -2.04702,2.29375 -3.15305,3.53438 -1.10605,1.24062 -2.0948,2.31438 -2.19724,2.38613 -0.2373,0.16621 -0.48349,0.16579 -0.72196,-10e-4 z"
           id="path4873-1"
           inkscape:connector-curvature="0" />
        <path
           style="display:inline;opacity:1;fill:#f7da22;fill-opacity:1"
           d="m 411.61255,555.40448 c -0.13661,-0.0957 -0.18802,-0.21716 -0.18802,-0.44427 0,-0.35066 -0.0205,-0.27779 2.45371,-8.72983 0.98748,-3.37335 1.97788,-6.76152 2.20086,-7.52925 0.22299,-0.76773 0.75575,-2.59504 1.18392,-4.06071 0.42817,-1.46566 0.9614,-3.29298 1.18496,-4.06071 0.22356,-0.76773 0.6382,-2.18679 0.92143,-3.15346 0.28322,-0.96667 0.51495,-1.81652 0.51495,-1.88854 0,-0.11756 -0.62586,-0.12468 -6.12059,-0.0696 l -6.12059,0.0614 -0.18198,-0.18198 c -0.10783,-0.10784 -0.18198,-0.28866 -0.18198,-0.44378 0,-0.15869 2.4862,-6.06417 6.3129,-14.99503 3.47209,-8.10328 6.38451,-14.87472 6.47203,-15.04765 0.0875,-0.17294 0.23266,-0.35376 0.3225,-0.40185 0.11065,-0.0592 4.93889,-0.0874 14.9622,-0.0874 l 14.79884,0 0.2229,0.17534 c 0.16717,0.13149 0.2229,0.2516 0.2229,0.48034 0,0.28773 -0.17142,0.47789 -3.02438,3.35484 -1.66341,1.6774 -3.04342,3.07039 -3.06668,3.09553 -0.0997,0.10771 -7.10896,7.19538 -10.42727,10.5439 -1.98882,2.00693 -3.61603,3.69148 -3.61603,3.74347 0,0.069 2.1588,0.0945 7.98312,0.0945 7.94821,0 7.98409,6.9e-4 8.20602,0.17534 0.16176,0.12724 0.22291,0.25328 0.22291,0.45947 0,0.2444 -0.15113,0.45353 -1.08068,1.49548 -0.59438,0.66624 -1.91324,2.14403 -2.93081,3.284 -5.25512,5.88715 -7.23722,8.10932 -7.62077,8.54377 -0.36267,0.41082 -3.06417,3.43723 -8.79814,9.85633 -1.55403,1.73971 -3.48069,3.89854 -5.92194,6.63556 -0.93058,1.04332 -2.2059,2.47237 -2.83404,3.17565 -0.62814,0.70329 -2.04702,2.29375 -3.15305,3.53438 -1.10605,1.24062 -2.0948,2.31438 -2.19724,2.38613 -0.2373,0.16621 -0.48349,0.16579 -0.72196,-10e-4 z"
           id="path4873-1-2"
           inkscape:connector-curvature="0" />
        <path
           style="display:inline;opacity:1;fill:#eaa661;fill-opacity:1"
           d="m 359.18509,518.16735 c -5.00302,-1.85793 -10.12488,-5.55824 -11.66647,-8.42849 -0.6794,-1.26498 -2.29675,-6.33462 -3.59413,-11.26587 l -2.35884,-8.96588 -0.0955,5.83528 c -0.0525,3.20941 0.5469,8.31206 1.33212,11.33921 l 1.42771,5.50393 -4.85583,-0.007 c -14.07348,-0.0178 -23.55418,-7.5705 -24.88347,-19.82505 -1.43306,-13.21142 -2.4514,-13.93092 -3.13833,-2.21738 l -0.45791,7.80837 -7.17465,0.6627 c -14.35948,1.32636 -24.75802,-2.19934 -29.17065,-9.89051 -4.23483,-7.38128 -4.30201,-8.62137 -0.73388,-13.547 4.69119,-6.47601 3.95352,-7.0196 -2.32189,-1.71106 -7.39708,6.25787 -9.20563,7.08193 -15.54148,7.08193 -5.89623,0 -9.86918,-1.61911 -13.34241,-5.43754 -6.79205,-7.46705 -7.50706,-15.86806 -2.04174,-23.98949 3.75134,-5.57446 2.61923,-5.83965 -2.93681,-0.68791 -2.84068,2.63398 -3.15101,2.6974 -5.53974,1.13224 -4.22544,-2.7686 -8.06928,-9.61882 -8.62133,-15.36431 -0.58796,-6.11895 1.34448,-12.12892 6.86993,-21.36572 l 3.65856,-6.11593 2.02145,4.08573 c 2.36341,4.77686 6.12041,7.81266 12.00406,9.69972 2.32058,0.74429 5.20052,1.71751 6.39987,2.16275 1.46231,0.54282 3.25544,3.53874 5.44347,9.0947 4.52376,11.48704 5.14491,16.75256 2.56388,21.73402 -1.12723,2.17555 -1.83212,3.95554 -1.56645,3.95554 1.88295,0 4.52712,-2.59699 5.50745,-5.4092 2.3591,-6.76732 1.50405,-10.97817 -5.64865,-27.81734 -1.9714,-4.64118 -3.89395,-10.1429 -4.27231,-12.22607 -1.58904,-8.74859 4.47725,-18.89085 11.29897,-18.89085 4.32224,0 6.11663,1.57464 6.11663,5.36763 0,2.42945 -0.56714,2.95268 -3.95554,3.64937 l -3.95554,0.8133 5.17008,0.93753 c 2.84355,0.51565 5.56991,0.53771 6.0586,0.049 0.48869,-0.48869 0.45271,-5.49479 -0.08,-11.12464 -1.61093,-17.02723 0.50223,-25.80912 7.73943,-32.16346 6.70471,-5.88681 20.26883,-5.4532 29.08002,0.9296 l 4.34784,3.14955 -0.66089,9.1857 c -0.90113,12.52439 -2.29289,20.15292 -4.2108,23.08001 -2.05329,3.13372 -0.50326,3.18652 2.405,0.082 3.82757,-4.08598 4.62933,-8.14271 5.52581,-27.95945 0.71948,-15.9045 1.21812,-19.85291 2.86402,-22.67843 4.27282,-7.33516 17.86967,-11.47597 30.47487,-9.28087 13.21056,2.30052 20.44515,7.69127 20.45489,15.24169 0.002,1.67923 -2.09127,7.62403 -4.65211,13.21068 -7.17873,15.66099 -10.24417,30.11333 -8.18443,38.58636 l 1.02567,4.21924 0.10596,-5.05481 c 0.2866,-13.6718 6.03739,-30.75485 14.89561,-44.24815 8.88483,-13.53384 14.59255,-16.64475 26.55799,-14.47499 8.27998,1.50144 15.4131,5.11164 19.66262,9.95156 3.80178,4.33 4.08903,7.13763 1.72987,16.90803 -1.99034,8.24294 -1.95869,16.61395 0.0964,25.4749 0.91158,3.93064 1.37553,8.82541 1.03098,10.87727 -0.58615,3.49072 -0.52317,3.59896 0.97961,1.6831 2.00165,-2.55184 2.02713,-6.48881 0.10171,-15.69171 -1.36664,-6.53183 -1.36419,-10.5238 0.0106,-17.33323 0.41662,-2.06355 1.13051,-2.37029 5.46942,-2.35014 9.87515,0.046 17.46516,5.91641 24.35006,18.8338 3.76659,7.06683 6.49023,16.65563 6.46653,22.76596 -0.009,2.34372 -0.95842,8.72404 -2.10963,14.17845 -1.15119,5.4544 -2.08957,10.20104 -2.08526,10.54809 0.004,0.34707 3.14542,-6.1036 6.98023,-14.33477 3.83481,-8.23117 7.68876,-15.24066 8.56434,-15.57666 0.87559,-0.33599 2.32528,-0.009 3.22156,0.72584 2.97079,2.43683 8.63969,16.37654 9.84976,24.22037 2.38701,15.47281 -1.95621,24.31175 -15.96691,32.49443 -10.46306,6.11077 -13.2279,8.79114 -17.54765,17.01164 -6.57461,12.51129 -15.14532,17.79651 -28.85963,17.79651 -3.85239,0 -9.42825,-0.71983 -12.39083,-1.59962 -5.09259,-1.51234 -5.48058,-1.88283 -7.11037,-6.78968 -1.75061,-5.27061 -9.74836,-18.62124 -10.6281,-17.7415 -0.26453,0.26453 1.242,4.2101 3.34784,8.76794 2.10584,4.55782 4.06763,10.06755 4.35953,12.24383 0.79156,5.9015 -3.33432,12.30124 -10.46548,16.23323 -5.21394,2.87487 -6.52442,3.11739 -18.27445,3.38214 -8.63588,0.19457 -13.86927,-0.16471 -16.47079,-1.13085 z m -30.98754,-37.534 c -0.98247,-11.09874 1.0808,-18.55577 6.4348,-23.25665 5.44634,-4.78194 7.76616,-5.36942 18.26091,-4.62449 l 9.34437,0.66329 -0.93826,3.27149 c -2.45121,8.54687 0.82022,16.83007 10.25436,25.96385 l 5.99224,5.80146 -4.90563,-6.99729 c -7.153,-10.20291 -9.46898,-15.97138 -8.63776,-21.51441 0.99492,-6.63445 5.6406,-12.37677 12.89501,-15.9389 5.67599,-2.78708 7.06223,-3.01588 18.27228,-3.01588 20.423,0 23.80714,3.29445 25.30463,24.63389 0.51817,7.38401 1.52622,13.81953 2.43689,15.55763 1.44548,2.75877 1.52258,2.27262 1.1119,-7.01068 -0.40782,-9.21858 -1.44997,-23.13789 -1.80426,-24.09823 -0.0832,-0.22585 2.06968,-0.97466 4.78445,-1.66396 6.9312,-1.7599 11.82365,-5.89052 15.23467,-12.86237 2.44917,-5.00592 2.97245,-7.56048 3.18881,-15.56724 0.25167,-9.3133 0.2315,-9.40442 -0.72837,-3.29074 -1.74318,11.10302 -4.06653,17.32252 -8.16955,21.86953 -6.66218,7.38312 -14.73318,9.30517 -19.18321,4.56835 -2.60707,-2.7751 -8.55982,-5.28039 -15.05269,-6.33515 l -3.95224,-0.64203 2.25466,-3.04958 c 3.33056,-4.50481 3.65971,-12.03606 1.07485,-24.59318 -1.2186,-5.91991 -2.64807,-12.89947 -3.1766,-15.51014 l -0.96098,-4.74663 -0.12655,5.80145 c -0.0696,3.1908 0.58544,9.52187 1.45556,14.06903 3.13196,16.36743 1.16819,24.2621 -6.83132,27.46287 -2.35788,0.94344 -5.10813,1.72661 -6.11165,1.74038 -3.35001,0.046 -13.55906,4.83152 -18.11127,8.48978 -4.0657,3.26728 -5.12356,3.60844 -10.98313,3.54214 -12.76528,-0.14448 -19.75921,-3.92226 -24.46943,-13.21744 -5.74492,-11.33706 -5.72431,-27.93738 0.0666,-53.55783 1.49157,-6.59917 2.46106,-12.24936 2.15445,-12.55598 -1.1641,-1.1641 -3.70573,7.25703 -6.42243,21.2792 -2.33094,12.03112 -2.74664,16.66846 -2.40615,26.84133 0.47559,14.20822 2.20049,19.24257 9.19155,26.82696 l 4.30058,4.6656 -3.7199,2.64675 c -2.04595,1.45572 -4.88414,4.2248 -6.30711,6.15353 l -2.58722,3.50675 -11.13014,0.0712 -11.13015,0.0712 0.65431,-3.88834 c 1.25343,-7.44893 -5.14172,-15.36745 -13.86024,-17.16187 -2.68224,-0.55205 -3.50213,-1.42806 -4.5218,-4.83148 -0.8458,-2.823 -2.48325,-4.99822 -5.10224,-6.77787 -5.03118,-3.41877 -5.60062,-2.6218 -1.47998,2.07134 4.01058,4.5678 4.37297,9.01306 0.93148,11.42641 -2.27539,1.59562 -2.17328,1.63944 2.47476,1.06232 3.58024,-0.44454 6.1086,-0.0444 9.66804,1.53014 9.1023,4.02638 11.06356,11.44519 5.18843,19.62617 l -3.3958,4.72857 4.91142,-2.74505 c 4.06422,-2.27152 6.20569,-2.73195 12.41443,-2.6691 11.91038,0.12051 12.2597,0.40528 12.66438,10.32308 0.29591,7.2528 2.03618,14.20337 3.55617,14.20337 0.25733,0 0.13542,-3.75586 -0.27094,-8.34634 z m 135.30314,-18.63333 c 6.26489,-3.12192 9.79969,-6.93165 13.52037,-14.572 1.44295,-2.96307 1.87926,-4.43806 0.96957,-3.27778 -4.24798,5.4182 -12.68176,13.20598 -16.18392,14.94435 -4.06425,2.01735 -15.64284,2.64469 -21.80739,1.18156 -2.13758,-0.50734 -1.453,0.0871 2.10961,1.83235 7.14736,3.50102 14.2204,3.46515 21.39176,-0.10844 z M 302.6926,431.22882 c -12.44842,-12.15957 -15.12626,-22.00102 -9.9468,-36.5561 2.21458,-6.22332 2.92046,-12.25972 1.42594,-12.19421 -1.63013,0.0715 -7.64736,20.65826 -7.64736,26.16396 0,8.75687 4.68675,16.56438 15.14131,25.22338 8.4437,6.99352 9.11678,5.26511 1.02691,-2.63703 z m 184.22958,-13.02557 c -5.008,-9.97201 -10.17369,-12.09912 -15.11669,-6.22473 -3.17355,3.77155 -3.8537,3.92238 -3.8537,0.85462 0,-1.27042 -0.56565,-5.04848 -1.25701,-8.39571 -1.14731,-5.55472 -1.07826,-6.28932 0.7911,-8.41714 2.14969,-2.44685 2.12707,-2.44978 -2.96221,-0.38339 -0.78104,0.31713 -2.55368,-1.66744 -4.34846,-4.86825 -2.4516,-4.37219 -2.7536,-5.57863 -1.58221,-6.32065 0.79624,-0.50438 1.7872,-0.92433 2.20212,-0.93322 0.41492,-0.009 2.3442,-1.41202 4.28731,-3.11808 3.31964,-2.91466 3.80126,-3.03381 7.97823,-1.97358 5.3975,1.37004 8.26933,4.76273 9.18172,10.84704 0.94522,6.3032 -0.0188,8.59123 -4.0374,9.58271 l -3.39692,0.83812 3.49705,0.41426 c 1.92336,0.22787 4.23145,-0.1952 5.12906,-0.94017 1.37857,-1.14411 2.10499,-0.8251 4.67773,2.05431 2.76751,3.09737 3.04425,4.1058 3.02957,11.03947 -0.0216,10.27389 -1.20662,11.94321 -4.21929,5.94439 z m -239.1652,0.80862 c -5.00961,-1.81716 -9.57456,-6.58696 -10.37194,-10.83741 -0.4796,-2.5565 0.009,-5.71141 1.58293,-10.23057 3.50018,-10.047 3.6199,-11.10029 0.74271,-6.53418 -1.46225,2.3206 -3.12871,4.93125 -3.70329,5.80147 -0.7386,1.11864 -1.06286,-0.78918 -1.1067,-6.51163 -0.0749,-9.78903 1.61633,-12.37418 11.56527,-17.67692 6.97115,-3.71559 9.06596,-6.35515 12.65072,-15.94074 3.86366,-10.33133 11.29881,-15.31919 20.93057,-14.04125 2.11206,0.28022 6.92542,1.62449 10.69637,2.98725 3.77095,1.36278 8.75202,3.13116 11.06903,3.92977 2.35434,0.81147 4.36608,2.24807 4.56029,3.25656 0.30491,1.58326 -0.70311,1.80454 -8.2207,1.80454 -5.59105,0 -9.64201,0.55528 -11.65864,1.59813 -2.07223,1.07159 -4.57459,1.39539 -7.595,0.98279 -4.16907,-0.56953 -4.35593,-0.495 -2.50904,1.00084 1.09753,0.88891 2.52151,1.80131 3.16442,2.02754 0.74685,0.26281 0.51691,1.14747 -0.63675,2.44997 -3.31002,3.73701 -5.20162,10.0894 -5.81258,19.51972 l -0.60509,9.33938 -5.08275,0 c -4.38385,0 -5.58083,0.49807 -8.70497,3.62221 -4.67637,4.67637 -6.27766,9.72387 -5.74394,18.10574 0.46311,7.27298 0.36806,7.37049 -5.21092,5.34679 z m 12.06928,-42.46404 c 1.71537,-2.34589 1.94726,-14.07711 0.2446,-12.37446 -0.62592,0.62592 -1.39782,3.07482 -1.71531,5.44199 -0.62706,4.6751 -2.27797,6.62724 -7.16733,8.47508 -2.93695,1.10996 -2.78991,1.16547 2.04549,0.77211 3.4245,-0.27857 5.68372,-1.0718 6.59255,-2.31472 z m 193.77585,4.69754 c -4.09746,-4.31585 -12.12506,-8.28168 -18.22639,-9.00429 l -4.98657,-0.5906 0.38031,-5.94252 c 0.2919,-4.56143 -0.10259,-6.71092 -1.69769,-9.24852 -6.29291,-10.01169 -26.90463,-17.08953 -37.78877,-12.97623 -1.63317,0.61719 -5.16845,2.9719 -7.85618,5.23265 l -4.88677,4.11045 -0.65278,-3.26387 c -3.14884,-15.74421 -43.06895,-20.10014 -54.93799,-5.9946 -2.87218,3.41341 -4.76573,9.1135 -4.7747,14.37307 l -0.007,3.44958 -4.32284,-2.20535 c -3.41034,-1.73982 -4.20486,-2.65646 -3.76397,-4.34242 0.30736,-1.17538 0.29646,-2.82083 -0.0243,-3.65655 -0.75072,-1.95635 -5.90404,-4.61899 -11.92908,-6.16359 -5.37789,-1.37869 -7.88325,-5.32065 -5.33392,-8.39242 1.9322,-2.32816 9.21942,-4.05618 13.67538,-3.24286 5.80082,1.05877 8.32338,3.24078 10.07421,8.71423 l 1.60136,5.00615 -0.41509,-5.27406 c -0.22831,-2.90072 -0.74856,-6.55547 -1.1561,-8.12167 -0.63978,-2.45881 -0.25747,-3.1424 2.79999,-5.00642 4.36522,-2.66131 10.94448,-2.90115 11.89142,-0.43347 0.36579,0.95325 0.53524,1.83995 0.37656,1.97044 -0.15868,0.13046 -1.71253,1.01665 -3.45297,1.96927 l -3.16445,1.73202 4.21926,-0.67557 c 5.689,-0.91089 7.12792,-2.14123 5.67632,-4.85355 -1.8521,-3.46069 1.12894,-5.39725 9.08851,-5.90407 6.42516,-0.40912 13.18764,1.08587 13.18764,2.9154 0,0.40745 -1.77999,1.23921 -3.95554,1.84836 -3.60002,1.00801 -3.19714,1.10533 4.48296,1.08279 4.64115,-0.0142 7.13315,-0.22249 5.53775,-0.46416 -4.45019,-0.67416 -3.48772,-3.32209 2.10961,-5.80403 7.60081,-3.37026 17.89831,-3.07736 26.43084,0.75181 5.85697,2.62845 10.75125,6.70918 10.75125,8.96414 0,0.41927 -2.8451,1.05967 -6.32244,1.42312 -5.14509,0.53777 -10.91215,2.33166 -14.82151,4.61035 -0.31632,0.18437 -1.62165,-0.63975 -2.90072,-1.8314 -2.89638,-2.69838 -2.92263,-2.16211 -0.1262,2.57753 l 2.19942,3.72777 4.01049,-2.04602 c 5.87299,-2.99616 16.15875,-4.35145 24.2503,-3.19532 3.74924,0.5357 6.97634,0.81444 7.17135,0.61943 0.19503,-0.19501 -2.04188,-1.21632 -4.97086,-2.26957 -4.23774,-1.52387 -5.32544,-2.39653 -5.32544,-4.27258 0,-1.35156 0.81738,-2.617 1.91558,-2.96554 3.00796,-0.9547 12.70568,1.27295 16.11735,3.70226 2.64773,1.88535 6.22772,6.96785 6.22772,8.84149 0,0.31888 -2.72933,0.62102 -6.06517,0.67141 -6.00474,0.0907 -5.93979,0.1223 6.52036,3.17643 16.58371,4.06479 23.80543,8.33222 23.80543,14.06699 0,2.35691 -5.91242,2.19894 -7.27484,-0.19438 -0.97844,-1.71877 -1.21259,-1.68601 -3.39937,0.47552 -2.15196,2.12715 -2.24254,2.67519 -1.08213,6.54829 1.667,5.56395 2.79047,6.09348 2.79047,1.31523 0,-3.84296 0.0142,-3.85494 4.15962,-3.52128 8.95019,0.72044 14.33933,5.06694 14.52843,11.7177 0.091,3.20604 -2.23757,6.76872 -5.60086,8.56872 -1.24794,0.66786 -2.52102,0.0511 -4.75846,-2.30569 z"
           id="path4860-5"
           inkscape:connector-curvature="0" />
      </g>
    </g>
    <g
       id="g4959"
       transform="translate(-9.8994949,-6.9700681)">
      <circle
         r="63.63961"
         cy="379.36035"
         cx="-270.04581"
         id="path4877-5"
         style="display:inline;opacity:1;fill:#002d0a;fill-opacity:1;fill-rule:nonzero;stroke:none;stroke-width:3.53299999;stroke-linecap:round;stroke-linejoin:miter;stroke-miterlimit:4;stroke-dasharray:none;stroke-opacity:1" />
      <g
         inkscape:label="Layer 1"
         id="layer1-6"
         style="display:inline;opacity:1"
         transform="matrix(0.36234372,0,0,0.36234372,-664.6827,280.50796)">
        <g
           id="g4964"
           transform="translate(606.09152,-25.253813)">
          <path
             style="fill:#a1a1a1"
             d="m 473.2316,413.5461 c -41.35333,-8.19797 -73.50816,-37.87505 -88.01509,-81.23294 -5.406,-16.15728 -6.79161,-26.40799 -6.17197,-45.66013 0.97181,-30.19441 8.19858,-51.35658 23.91348,-70.02588 14.65387,-17.4088 39.49927,-30.32596 65.20791,-33.9017 15.81212,-2.19927 37.83132,-1.00762 53.65662,2.90382 35.18117,8.6955 60.45501,32.16493 65.03853,60.39513 1.26007,7.76088 -0.43961,22.84371 -3.59756,31.92439 -4.64987,13.37069 -11.83043,22.08221 -28.71731,34.84007 -6.42696,4.8555 -12.83946,10.34126 -14.25,12.19057 -3.53434,4.63376 -3.40306,10.42856 0.45451,20.06238 4.18869,10.46076 5.11253,16.19482 4.00616,24.86545 -2.57391,20.17169 -13.80421,34.16024 -33.52528,41.75934 -5.00816,1.92979 -8.23165,2.35816 -19.5,2.59134 -7.425,0.15366 -15.75,-0.16667 -18.5,-0.71184 z m 28.02278,-30.35355 c 15.34272,-8.99144 14.26359,-32.6092 -1.83238,-40.10337 -17.61068,-8.19941 -36.18643,6.05524 -32.60822,25.02286 1.56135,8.27652 7.52481,14.97123 15.68186,17.60479 4.85839,1.56856 13.83633,0.36044 18.75874,-2.52428 z"
             id="path4978"
             inkscape:connector-curvature="0"
             sodipodi:nodetypes="ssssssssssssssssssss" />
          <path
             style="fill:#eaa661;fill-opacity:1"
             d="m 473.7316,413.17178 c -22.24271,-3.78484 -41.94354,-14.47116 -58.69711,-31.83909 -31.74936,-32.91362 -43.61438,-79.86876 -31.72504,-125.55008 9.68539,-37.21329 36.34476,-61.95684 76.92215,-71.39429 11.90755,-2.76945 38.31002,-2.97285 52.5,-0.40446 36.50974,6.60829 62.33318,25.83202 71.57989,53.2862 2.45435,7.28717 2.61622,8.78994 2.14162,19.88297 -1.04755,24.48488 -9.12696,38.41949 -32.19975,55.53509 -11.68685,8.66941 -15.06116,12.03925 -16.53898,16.51708 -1.36152,4.12546 -1.04111,5.74822 3.58456,18.15416 2.76125,7.40563 3.43266,10.64074 3.43266,16.5399 0,18.81511 -9.64907,35.32681 -25.72758,44.02562 -11.52982,6.23787 -28.13733,8.16262 -45.27242,5.2469 z m 24.28212,-27.86721 c 14.65476,-6.14112 19.16657,-24.7577 8.90545,-36.74551 -4.60134,-5.37563 -10.09755,-7.85607 -17.46969,-7.88407 -13.78929,-0.0524 -23.1439,9.2352 -23.1439,22.97804 0,9.88042 5.06465,17.74003 13.92602,21.61115 3.93684,1.71983 13.72138,1.74205 17.78212,0.0404 z"
             id="path4976"
             inkscape:connector-curvature="0"
             sodipodi:nodetypes="sssssssssssssssssss" />
        </g>
        <g
           id="g5022"
           transform="translate(-2.0203015,2.5253847)">
          <ellipse
             ry="22.209261"
             rx="22.573351"
             cy="287.08719"
             cx="1033.3022"
             id="path4984"
             style="opacity:1;fill:#f94320;fill-opacity:1;fill-rule:nonzero;stroke:none;stroke-width:5;stroke-linecap:round;stroke-linejoin:round;stroke-miterlimit:4;stroke-dasharray:none;stroke-opacity:0.24179107" />
          <ellipse
             ry="22.209261"
             rx="22.573351"
             cy="224.15269"
             cx="1038.4419"
             id="path4984-4"
             style="display:inline;opacity:1;fill:#4db151;fill-opacity:1;fill-rule:nonzero;stroke:none;stroke-width:5;stroke-linecap:round;stroke-linejoin:round;stroke-miterlimit:4;stroke-dasharray:none;stroke-opacity:0.24179107" />
          <ellipse
             ry="22.209261"
             rx="22.573351"
             cy="194.99825"
             cx="1096.6036"
             id="path4984-4-9"
             style="display:inline;opacity:1;fill:#4a8df1;fill-opacity:1;fill-rule:nonzero;stroke:none;stroke-width:5;stroke-linecap:round;stroke-linejoin:round;stroke-miterlimit:4;stroke-dasharray:none;stroke-opacity:0.24179107" />
          <ellipse
             ry="22.209261"
             rx="22.573351"
             cy="228.7858"
             cx="1149.1859"
             id="path4984-4-1"
             style="display:inline;opacity:1;fill:#9c00ae;fill-opacity:1;fill-rule:nonzero;stroke:none;stroke-width:5;stroke-linecap:round;stroke-linejoin:round;stroke-miterlimit:4;stroke-dasharray:none;stroke-opacity:0.24179107" />
        </g>
      </g>
    </g>
    <g
       id="g4953"
       transform="translate(3.939645,-2.5253714)">
      <circle
         r="63.63961"
         cy="566.23859"
         cx="-347.82755"
         id="path4877-9"
         style="display:inline;opacity:1;fill:#002d0a;fill-opacity:1;fill-rule:nonzero;stroke:none;stroke-width:3.53299999;stroke-linecap:round;stroke-linejoin:miter;stroke-miterlimit:4;stroke-dasharray:none;stroke-opacity:1" />
      <g
         inkscape:label="Layer 1"
         id="layer1-7"
         style="display:inline;opacity:1"
         transform="matrix(0.20393305,0,0,0.20393305,-569.65215,435.87621)">
        <path
           style="fill:#eaa661;fill-opacity:1"
           d="m 939.20701,797.14783 c -2.28275,-1.1249 -5.65775,-4.0214 -7.5,-6.4368 l -3.34953,-4.3914 0,-147.06963 0,-147.06961 3.36694,-4.41428 c 6.96368,-9.12986 -4.27976,-8.51611 156.00808,-8.51611 160.2878,0 149.0444,-0.61375 156.008,8.51611 l 3.367,4.41428 0,147.06961 0,147.06963 -3.367,4.4143 c -6.9653,9.132 4.3099,8.5193 -156.1969,8.4876 -130.9398,-0.026 -144.56742,-0.2164 -148.33659,-2.0737 z M 1097.5873,669.11867 c 13.1423,-35.47848 23.8952,-65.01288 23.8952,-65.632 0,-0.61912 -4.1021,-2.60102 -9.1157,-4.40422 l -9.1157,-3.27855 -24.6343,66.54734 c -13.5489,36.60103 -24.6343,67.05428 -24.6343,67.67388 0,0.6196 4.0781,2.59089 9.0625,4.38064 8.068,2.897 9.1494,3.03272 9.8548,1.23666 0.4357,-1.10958 11.5451,-31.04527 24.6875,-66.52374 z m -59.5853,45.49082 c 3.2893,-3.23978 5.9805,-6.46734 5.9805,-7.17236 0,-0.70503 -8.2899,-9.58554 -18.4219,-19.73449 l -18.4219,-18.45264 18.4219,-18.45264 c 10.132,-10.14895 18.4219,-18.989 18.4219,-19.64456 0,-1.63319 -11.4641,-13.1528 -13.0895,-13.1528 -0.7196,0 -12.8293,11.53125 -26.9105,25.625 l -25.6022,25.625 25.6022,25.625 c 14.0812,14.09375 26.1504,25.625 26.8206,25.625 0.6702,0 3.9097,-2.65072 7.1989,-5.89051 z m 133.4805,-19.73449 25.6021,-25.625 -25.6021,-25.625 C 1157.4013,629.53125 1145.332,618 1144.6619,618 c -1.6365,0 -13.1794,11.44092 -13.1794,13.06287 0,0.70503 8.2898,9.58554 18.4219,19.73449 l 18.4218,18.45264 -18.4218,18.45264 c -10.1321,10.14895 -18.4219,18.989 -18.4219,19.64456 0,1.63319 11.4641,13.1528 13.0894,13.1528 0.7197,0 12.8294,-11.53125 26.9106,-25.625 z m 56.25,-175.625 0,-20 -140,0 -140.00002,0 0,20 0,20 140.00002,0 140,0 0,-20 z m -266.9318,6.93182 c -6.2003,-6.20024 -1.8068,-16.93182 6.9318,-16.93182 5.1389,0 10,4.86113 10,10 0,2.43547 -1.1342,4.99777 -3.0682,6.93182 -1.934,1.93404 -4.4964,3.06818 -6.9318,3.06818 -2.4355,0 -4.9978,-1.13414 -6.9318,-3.06818 z m 25,0 c -1.9341,-1.93405 -3.0682,-4.49635 -3.0682,-6.93182 0,-8.73859 10.7316,-13.13206 16.9318,-6.93182 1.934,1.93405 3.0682,4.49635 3.0682,6.93182 0,2.43547 -1.1342,4.99777 -3.0682,6.93182 -1.934,1.93404 -4.4964,3.06818 -6.9318,3.06818 -2.4355,0 -4.9978,-1.13414 -6.9318,-3.06818 z m 25,0 c -6.2003,-6.20024 -1.8068,-16.93182 6.9318,-16.93182 5.1389,0 10,4.86113 10,10 0,5.13887 -4.8611,10 -10,10 -2.4355,0 -4.9978,-1.13414 -6.9318,-3.06818 z"
           id="path5068"
           inkscape:connector-curvature="0" />
      </g>
    </g>
    <g
       id="g4939"
       transform="translate(-14.546121,-4.5456961)">
      <circle
         r="63.63961"
         cy="568.25891"
         cx="-543.79718"
         id="path4877-0"
         style="display:inline;opacity:1;fill:#002d0a;fill-opacity:1;fill-rule:nonzero;stroke:none;stroke-width:3.53299999;stroke-linecap:round;stroke-linejoin:miter;stroke-miterlimit:4;stroke-dasharray:none;stroke-opacity:1" />
      <g
         inkscape:label="Layer 1"
         id="layer1-3"
         style="display:inline;opacity:1"
         transform="matrix(0.27454762,0,0,0.27454762,-930.76976,384.31424)">
        <g
           id="g5127"
           transform="translate(-141.42137,-61.619313)">
          <path
             style="fill:none;fill-opacity:0"
             d="m 1340.5099,730.55035 0,-225.50003 200,0 200.0001,0 0,225.50003 0,225.50003 -200.0001,0 -200,0 0,-225.50003 z"
             id="path5143"
             inkscape:connector-curvature="0" />
          <path
             sodipodi:nodetypes="sssccsssscscscssscsssscsssccssccscccccccccccccscccccsccsccccssccccsccccscscscccscccccsscccssscssscccscccccsscccccscsssssccsscsssscssss"
             style="fill:#fbd8cc"
             d="m 1517.816,850.05037 c -1.182,-3.13148 -4.214,-3.97602 -7.2906,-2.03071 -1.0528,0.66567 -2.1323,0.33011 -3.7119,-1.15382 -1.8758,-1.76218 -2.1329,-2.78166 -1.6289,-6.45841 0.5755,-4.1989 0.4784,-4.40775 -2.5381,-5.45932 -2.5351,-0.88372 -3.1366,-1.64503 -3.1366,-3.96989 0,-2.16485 0.7199,-3.24875 2.9097,-4.38114 3.5211,-1.82083 4.0821,-3.18032 2.8236,-6.84232 -1.5149,-4.40813 1.24,-6.80686 6.923,-6.02792 4.2403,0.5812 4.4573,0.48289 5.5968,-2.53592 0.9915,-2.62682 1.7132,-3.14056 4.4116,-3.14056 2.53,0 3.5136,0.59347 4.558,2.75 1.132,2.33757 1.9479,2.75 5.4397,2.75 5.095,0 8.7801,2.80469 7.3054,5.56013 -1.6504,3.0839 -1.0842,4.96664 2.0259,6.73638 2.2811,1.29801 2.9937,2.41758 2.9937,4.70349 0,2.28591 -0.7126,3.40548 -2.9937,4.70349 -3.1694,1.80346 -3.678,3.64928 -1.914,6.94544 1.7904,3.34529 -1.3299,5.85987 -6.924,5.57992 -4.0996,-0.20517 -4.7118,0.0556 -5.9187,2.52116 -1.0542,2.15357 -2.0458,2.75 -4.5723,2.75 -2.6664,0 -3.4227,-0.52059 -4.3586,-3 z m 9.3795,-14.17432 c 4.8076,-4.5165 1.3313,-12.82569 -5.3659,-12.82569 -3.1798,0 -7.3197,4.24183 -7.3197,7.5 0,3.41014 4.1663,7.5 7.6401,7.5 1.5021,0 3.7725,-0.97844 5.0455,-2.17431 z m 15.9315,4.61878 c -0.4192,-1.09253 0.293,-1.86577 2.393,-2.59783 2.8935,-1.00868 2.9899,-1.2456 2.9899,-7.34664 0,-6.13014 -0.084,-6.33376 -3.0531,-7.36867 -2.672,-0.93148 -2.9173,-1.31813 -1.9648,-3.09783 1.0692,-1.99786 1.8676,-2.0335 45.5531,-2.0335 l 44.4648,0 0,-85.50001 0,-85.50001 -17.2768,0 -17.2768,0 -6.9464,7 -6.9463,7 -29.0537,0 -29.0536,0 -6.9464,-7 -6.9463,-7 -17.7682,0 -17.7683,0 -0.2586,54.25001 c -0.2221,46.60863 -0.4484,53.79222 -1.6064,51 l -1.3478,-3.25 -8.6522,0.005 -8.6522,0.005 -1.6539,3.7449 c -1.5607,3.53359 -1.6594,-0.0215 -1.75,-63.00511 l -0.096,-66.7498 18.25,-0.006 c 10.0375,-0.003 19.9833,-0.48685 22.1017,-1.07507 2.6381,-0.73254 6.4524,-3.5663 12.1064,-8.99443 l 8.2548,-7.92451 41.2871,0 41.2871,0 8.2548,7.92493 c 5.6541,5.42813 9.4683,8.26189 12.1065,8.99443 2.1184,0.58822 12.0641,1.07201 22.1016,1.07507 l 18.25,0.006 0,109.50001 0,109.50001 -56.893,0 c -50.5517,0 -56.9595,-0.17338 -57.4899,-1.55553 z m -85.0732,-7.96872 c -1.2764,-3.34226 -2.6533,-5.03717 -5.002,-6.15716 -3.0215,-1.44087 -3.569,-1.4002 -8.0934,0.60118 l -4.8527,2.14658 -4.0215,-4.02152 c -3.9175,-3.91746 -3.9869,-4.10591 -2.6836,-7.28317 3.4613,-8.43765 2.0381,-12.62162 -5.1003,-14.99388 l -4.2904,-1.42579 -0.2986,-5.62902 -0.2987,-5.62902 4.7897,-2.29197 c 2.6343,-1.26059 5.4653,-3.51943 6.2913,-5.01964 1.3568,-2.46468 1.3247,-3.22571 -0.333,-7.89328 l -1.8347,-5.16562 4.0581,-4.05811 4.0581,-4.05811 3.5678,1.70139 c 7.259,3.46154 11.9263,1.347 14.4544,-6.54862 l 1.2007,-3.75 5.8823,0 5.8823,0 1.2188,4.06794 c 1.3674,4.56376 4.9609,7.93206 8.4625,7.93206 1.2821,0 3.9367,-0.76562 5.899,-1.70138 l 3.5678,-1.70139 4.1898,4.18973 c 4.093,4.09299 4.1588,4.26505 2.8517,7.45139 -3.3156,8.08267 -1.6507,12.27278 5.8619,14.75215 l 4.1152,1.35814 -0.2932,5.99632 -0.2932,5.99631 -4.271,1.41972 c -2.8715,0.9545 -4.7557,2.35688 -5.75,4.27971 -1.9395,3.75054 -1.8676,5.27725 0.4638,9.84711 l 1.9427,3.80813 -4.292,4.21228 -4.292,4.21229 -4.6361,-2.25243 c -4.42,-2.1474 -4.7951,-2.17662 -8.0453,-0.62673 -2.5658,1.22353 -3.764,2.69349 -4.844,5.94217 l -1.4348,4.31649 -6.0181,0.29376 -6.018,0.29375 z m 14.4663,-24.72575 c 5.4077,-3.68042 7.4991,-7.26844 7.4189,-12.72748 -0.1229,-8.3584 -5.9467,-14.01504 -14.4291,-14.01504 -7.3578,0 -11.8924,3.64381 -14.0958,11.32676 -3.2685,11.3965 11.3371,22.0644 21.106,15.41576 z m 66.4792,-32.96902 c -3.8442,-4.52047 -13.8658,-15.27001 -22.2702,-23.88786 l -15.2809,-15.66881 4.6716,-4.11216 c 2.5695,-2.26169 5.0733,-4.11216 5.5642,-4.11216 1.6908,0 11.3477,5.27019 20.5594,11.2202 l 9.2335,5.96404 13.2018,-13.67056 c 7.261,-7.51882 17.5301,-17.15208 22.8202,-21.40726 10.0076,-8.04983 28.9832,-21.10643 30.6747,-21.10643 0.5354,0 1.6777,1.4625 2.5384,3.25 l 1.5649,3.25001 -12.1856,12.5 c -17.0945,17.53558 -27.4303,31.6033 -45.0012,61.25001 -4.8081,8.1125 -8.8229,14.75 -8.9217,14.75 -0.099,0 -3.325,-3.69856 -7.1691,-8.21902 z"
             id="path5141"
             inkscape:connector-curvature="0" />
          <path
             sodipodi:nodetypes="csccsscsssssccscscsscccsssccssscscccccccccccccsscccssscsscccsscccsccscccsscscscccscssscccscscccssscsscccccscsssssscccssssssscsscs"
             style="fill:#f9c7b4"
             d="m 1517.7708,849.93058 c -1.1327,-3.00097 -1.3435,-3.09491 -5.5339,-2.46651 -3.6234,0.54336 -4.6666,0.31046 -6.2003,-1.38428 -1.5244,-1.68439 -1.6478,-2.46809 -0.7122,-4.52164 1.4282,-3.13447 0.5788,-5.40776 -2.4509,-6.55964 -3.175,-1.20716 -3.4438,-7.47052 -0.3625,-8.44849 3.0196,-0.95838 4.2274,-3.90414 2.8449,-6.93845 -0.9681,-2.12472 -0.8645,-2.88331 0.6178,-4.52123 1.4424,-1.59379 2.5968,-1.85635 6.0691,-1.38042 4.0353,0.5531 4.3831,0.4037 5.9032,-2.53592 2.2864,-4.42152 6.7806,-4.42899 8.6092,-0.0143 1.209,2.91888 1.538,3.07576 5.3713,2.56125 3.2472,-0.43583 4.5363,-0.12277 6.2948,1.52867 1.7691,1.66147 2.0021,2.4677 1.1649,4.03189 -1.5639,2.92219 -0.2781,6.4512 2.615,7.17733 2.0327,0.51016 2.5075,1.24274 2.5024,3.86059 -0.01,2.56412 -0.6465,3.59536 -3.1083,4.99662 -2.8288,1.61013 -3.0428,2.08147 -2.4296,5.35038 0.9646,5.1418 -1.4066,7.57536 -6.5759,6.74876 -3.518,-0.56254 -3.9756,-0.35804 -5.6053,2.505 -1.3721,2.4105 -2.4619,3.11899 -4.8053,3.12388 -2.4777,0.005 -3.2457,-0.56304 -4.2084,-3.11349 z m 8.2685,-12.52988 c 0.9312,-0.35731 2.2715,-2.02537 2.9785,-3.70679 3.3304,-7.92074 -5.9896,-14.25274 -12.0533,-8.189 -2.9997,2.99969 -3.1314,6.41533 -0.382,9.91059 2.0756,2.63863 5.7461,3.40915 9.4568,1.9852 z m 17.1449,3.24312 c -0.3423,-0.89186 0.5334,-1.85104 2.393,-2.62132 2.8034,-1.16122 2.9327,-1.49172 2.9327,-7.49564 0,-6.10394 -0.086,-6.31083 -3.0531,-7.34517 -2.672,-0.93148 -2.9173,-1.31813 -1.9648,-3.09783 1.0692,-1.99786 1.8676,-2.0335 45.5531,-2.0335 l 44.4648,0 0,-86.00001 0,-86.00001 -16.775,0 -16.775,0 -7.45,7.5 -7.4499,7.5 -29.0501,0 -29.05,0 -7.45,-7.5 -7.4499,-7.5 -17.2665,0 -17.2665,0 -0.2585,54.75001 c -0.2221,47.02805 -0.4487,54.29162 -1.6064,51.5 l -1.3478,-3.25 -8.8044,0 -8.8043,0 -1.0458,3 c -0.5752,1.65 -1.2943,3 -1.5979,3 -0.3036,0 -0.552,-29.7 -0.552,-66.00001 l 0,-66 19.25,-0.022 c 22.9942,-0.0262 23.8626,-0.30197 34.2232,-10.86717 l 6.9732,-7.11084 41.5536,0 41.5537,0 6.9732,7.11088 c 10.3244,10.52834 11.2944,10.8409 33.7231,10.86717 l 18.75,0.022 0,109.50001 0,109.50001 -56.393,0 c -47.5391,0 -56.4777,-0.22083 -56.9327,-1.40658 z m -84.7232,-7.34346 c -2.4473,-7.62281 -6.7385,-9.55599 -14.1551,-6.37687 l -4.5588,1.95412 -3.7466,-3.8369 -3.7466,-3.83689 1.8233,-5.0704 c 2.4988,-6.94899 1.3994,-9.88158 -4.818,-12.85235 l -4.7493,-2.26928 0,-5.88289 c 0,-5.72185 0.088,-5.91349 3.207,-7.00085 7.3927,-2.5771 9.4577,-7.51889 6.0916,-14.57767 l -1.7014,-3.56784 4.0449,-4.04491 4.0449,-4.04489 3.7787,1.5788 c 7.4477,3.11186 11.5154,1.36971 14.5121,-6.21528 1.2925,-3.27158 1.3426,-3.29209 7.3324,-3 5.7205,0.27894 6.0803,0.44858 6.9877,3.29409 2.2592,7.0847 7.0356,9.05883 14.4362,5.96665 l 3.6698,-1.53335 3.8901,3.89007 3.8901,3.89008 -1.8347,5.16562 c -1.6578,4.66757 -1.6899,5.4286 -0.333,7.89328 0.8259,1.50021 3.657,3.75905 6.2913,5.01964 l 4.7896,2.29197 -0.2986,5.62902 -0.2987,5.62902 -4.2903,1.42579 c -7.1317,2.37003 -8.5616,6.55947 -5.1093,14.97019 1.2858,3.13257 1.2047,3.36524 -2.4891,7.14804 l -3.818,3.91007 -4.5309,-2.00421 c -6.7577,-2.98925 -10.066,-1.75335 -13.2624,4.95457 l -2.5,5.24645 -5.6724,0.004 -5.6725,0.004 -1.204,-3.75 z m 14.0645,-25.1041 c 3.9698,-2.11238 7.9436,-8.31056 7.968,-12.42802 0.039,-6.5631 -4.5576,-12.53405 -11.3155,-14.69929 -3.2343,-1.03627 -4.5165,-0.9663 -8.2215,0.44868 -9.0224,3.44568 -12.5325,12.00652 -8.2961,20.23377 3.9706,7.71119 12.3664,10.43504 19.8651,6.44486 z m 67.9802,-31.91455 c -3.0227,-3.67241 -13.0318,-14.3826 -22.2426,-23.80041 l -16.7467,-17.1233 5.153,-4.34513 5.1531,-4.34513 6.5002,3.44131 c 3.5751,1.89271 10.1107,5.8038 14.5236,8.6913 4.4129,2.8875 8.2859,5.25 8.6065,5.25 0.3207,0 5.6585,-5.38568 11.8618,-11.96818 6.2034,-6.58249 15.6476,-15.6173 20.9871,-20.07734 9.5016,-7.93653 32.2066,-23.95449 33.955,-23.95449 0.4855,0 1.621,1.54795 2.5232,3.4399 l 1.6404,3.43991 -5.8805,5.09437 c -14.2248,12.32311 -32.3112,35.97804 -49.0554,64.15861 -5.6755,9.55198 -10.581,17.68413 -10.901,18.07146 -0.3201,0.38733 -3.055,-2.30047 -6.0777,-5.97288 z"
             id="path5139"
             inkscape:connector-curvature="0" />
          <path
             sodipodi:nodetypes="ssccccsscsssscscssscsssssscssscscccccccccccccssccccscsscccsscccsccsccssscccsscsscscsscscscscccsccssscccccssssssscccsscsssssscs"
             style="fill:#f7b198"
             d="m 1517.946,849.92673 c -1.5201,-2.93962 -1.8679,-3.08902 -5.9032,-2.53592 -3.4206,0.46885 -4.6322,0.20728 -5.9901,-1.29317 -1.3308,-1.47055 -1.4666,-2.32104 -0.6225,-3.89835 1.7641,-3.29616 1.2554,-5.14198 -1.914,-6.94544 -2.3377,-1.33027 -2.995,-2.40078 -3,-4.8861 0,-2.25765 0.5487,-3.35877 1.9034,-3.78873 3.3345,-1.05832 4.4125,-3.16579 3.2804,-6.41327 -0.8733,-2.50506 -0.6942,-3.23265 1.244,-5.05349 1.8017,-1.69254 2.7655,-1.93653 4.7177,-1.19429 3.0378,1.15497 5.6211,-0.14 6.8789,-3.44833 1.3548,-3.56348 6.6723,-3.4509 7.5787,0.16045 0.7718,3.07507 3.9736,4.5106 7.2805,3.2642 3.9214,-1.47804 6.1816,1.35564 5.4336,6.81236 -0.5812,4.24032 -0.4828,4.45728 2.536,5.59676 2.5718,0.97076 3.1394,1.73427 3.1342,4.21619 -0.01,2.34395 -0.7134,3.43326 -3.1266,4.80691 -2.8366,1.61469 -3.066,2.11047 -2.5234,5.45413 0.8597,5.29778 -1.276,7.37781 -6.7981,6.62093 -3.9843,-0.54611 -4.2784,-0.41047 -5.4988,2.53591 -1.8301,4.4182 -6.3233,4.41259 -8.6107,-0.0108 z m 8.5245,-12.85526 c 2.8449,-1.52257 4.044,-6.10499 2.5359,-9.69162 -1.3927,-3.31222 -3.1562,-4.32949 -7.5057,-4.32949 -3.399,0 -6.9908,4.01797 -6.9908,7.82041 0,5.42159 6.8149,8.9546 11.9606,6.2007 z m 16.7072,3.55552 c -0.3566,-0.92935 0.4739,-1.77898 2.393,-2.44798 2.849,-0.99315 2.9392,-1.22579 2.9392,-7.57663 0,-3.60361 -0.364,-6.55202 -0.8088,-6.55202 -2.0047,0 -4.2617,-2.65265 -3.6386,-4.27638 0.6123,-1.59568 3.9567,-1.72362 45.0544,-1.72362 l 44.393,0 0,-86.00001 0,-86.00001 -16.775,0 -16.775,0 -7.45,7.5 -7.4499,7.5 -29.0501,0 -29.05,0 -7.45,-7.5 -7.4499,-7.5 -17.275,0 -17.2751,0 -0.064,54.75001 c -0.06,51.13176 -0.1708,54.53522 -1.6814,51.5 l -1.6175,-3.25 -8.7207,0 -8.7208,0 -1.3478,3.25 c -1.1535,2.78136 -1.3852,-6.12285 -1.6069,-61.75001 -0.1425,-35.75 -0.044,-65.5625 0.2186,-66.25 0.3583,-0.93757 5.172,-1.25549 19.2591,-1.27196 22.4643,-0.0263 23.4278,-0.33647 33.7546,-10.86717 l 6.9732,-7.11088 41.5536,0 41.5537,0 6.9732,7.07637 c 10.686,10.84417 10.9292,10.92364 33.4333,10.92364 l 19.0398,0 0,109.50001 0,109.50001 -56.393,0 c -47.8552,0 -56.4757,-0.21549 -56.9392,-1.42337 z m -84.6916,-7.64865 c -1.4379,-4.35714 -5.0821,-7.92798 -8.0908,-7.92798 -1.0147,0 -3.6947,0.74016 -5.9557,1.64479 l -4.1107,1.64479 -4.0066,-4.00662 c -3.9899,-3.98986 -4,-4.01955 -2.4095,-7.09513 3.344,-6.46653 1.6253,-11.40312 -4.9884,-14.32869 l -4.4145,-1.95273 0,-5.81735 0,-5.81734 4.5114,-1.72293 c 6.6993,-2.55846 8.186,-6.9215 4.7872,-14.04877 l -1.7014,-3.56784 4.0633,-4.06323 c 4.0492,-4.04921 4.0738,-4.05771 7.1517,-2.46609 3.4959,1.80782 8.4238,2.07638 11.1665,0.60854 1.0159,-0.54372 2.6225,-3.01872 3.5701,-5.5 l 1.7229,-4.51141 5.7429,0 c 5.5492,0 5.786,0.10957 7.0259,3.25 2.9759,7.53736 8.2932,9.69726 15.1474,6.15287 3.0778,-1.59162 3.1025,-1.58312 7.1517,2.46609 l 4.0632,4.06323 -1.7014,3.56784 c -2.013,4.22129 -2.1418,8.33655 -0.3353,10.71448 0.7164,0.94298 3.4021,2.61449 5.9682,3.71447 l 4.6657,1.99996 0,5.28553 0,5.28554 -5.2464,2.5 c -6.7766,3.22911 -7.8728,5.96648 -5.2786,13.18079 l 1.8585,5.16813 -3.9132,3.34155 c -3.9829,3.40109 -4.4786,3.45933 -10.1272,1.18964 -5.0855,-2.04341 -8.3174,-0.3635 -11.286,5.86633 l -2.5,5.24645 -5.5899,0.004 -5.59,0.004 -1.3438,-4.07202 z m 13.4073,-24.31484 c 5.0849,-2.12463 8.1165,-7.08847 8.1165,-13.28981 0,-8.62984 -5.9921,-14.70795 -14.5,-14.70795 -11.3015,0 -18.0671,11.253 -12.8124,21.31063 3.773,7.22165 11.4859,9.90854 19.1959,6.68713 z m 65.6165,-35.81992 c -4.675,-5.54153 -14.5165,-16.13951 -21.8701,-23.55107 l -13.3702,-13.47556 4.47,-4.46997 4.47,-4.46996 7.9002,4.02825 c 4.345,2.21554 11.208,6.25709 15.2509,8.98124 l 7.3508,4.95299 9.2945,-10.14458 c 8.8154,-9.62159 17.8079,-18.08468 29.0185,-27.31 5.8483,-4.81263 27.135,-19.33458 28.3412,-19.33458 0.8893,0 3.1442,4.41768 3.1442,6.15977 0,0.58611 -3.1763,4.00647 -7.0585,7.6008 -15.0223,13.90834 -35.0486,40.95569 -51.4511,69.48945 -3.7149,6.4625 -6.8075,11.72046 -6.8724,11.68436 -0.065,-0.0361 -3.943,-4.59961 -8.618,-10.14114 z"
             id="path5137"
             inkscape:connector-curvature="0" />
          <path
             sodipodi:nodetypes="ssscccsccsscsscscsssssssssssscssscsscccccccccccccscssscscscccssscccsccsscsssccsscccssccccccscccsscsssssscccssssssssscccsscssccsscs"
             style="fill:#f48f6b"
             d="m 1518.5406,850.63109 c -1.3064,-3.43603 -3.7757,-4.56558 -7.2971,-3.33799 -2.4341,0.84854 -3.2511,0.68421 -4.9262,-0.99091 -1.6274,-1.62742 -1.7995,-2.39797 -0.9078,-4.06425 1.7851,-3.33547 1.2865,-5.1747 -1.8933,-6.98409 -2.3582,-1.34193 -2.995,-2.39329 -3,-4.95349 0,-2.05891 0.4867,-3.25 1.3387,-3.25 0.7398,0 2.1799,-0.92254 3.2004,-2.0501 1.5432,-1.70527 1.6723,-2.53476 0.7676,-4.93156 -0.9415,-2.49455 -0.7859,-3.16491 1.1594,-4.99239 1.9459,-1.82807 2.6002,-1.94998 4.8832,-0.90978 2.2308,1.0164 2.9446,0.92218 4.6404,-0.61249 1.1022,-0.99751 2.004,-2.41891 2.004,-3.15867 0,-0.86546 1.2239,-1.34501 3.4326,-1.34501 2.555,0 3.595,0.51163 4.0678,2.00106 0.9476,2.98586 3.8557,4.19427 7.1131,2.9558 2.272,-0.86383 3.0802,-0.70762 4.6954,0.90762 1.5947,1.59467 1.7726,2.47019 0.9741,4.79328 -1.2751,3.70956 -0.7236,5.06303 2.8074,6.88896 4.2156,2.17996 4.092,6.56852 -0.2309,8.20023 -3.0188,1.13948 -3.1172,1.35644 -2.536,5.59676 0.4941,3.6048 0.2448,4.73699 -1.3635,6.19248 -1.6379,1.4823 -2.3965,1.58597 -4.5212,0.61788 -3.2268,-1.47021 -5.9753,-0.13685 -6.8428,3.31956 -0.8939,3.5615 -6.2232,3.63694 -7.5653,0.1071 z m 9.4193,-14.66301 c 2.8152,-2.70444 2.6216,-8.63155 -0.3608,-11.04656 -7.5347,-6.10125 -17.979,4.33151 -10.8392,10.82725 4.0704,3.70316 7.5035,3.77039 11.2,0.21931 z m 16.2167,5.41561 c -1.3446,-1.3446 -0.5961,-2.46198 2.3333,-3.48317 2.9055,-1.01287 3,-1.24439 3,-7.35016 0,-6.15617 -0.073,-6.32985 -3.1119,-7.38919 -2.2396,-0.7807 -2.9404,-1.53194 -2.5,-2.67961 0.3365,-0.87713 0.6119,-1.78297 0.6119,-2.01299 0,-0.23001 20.025,-0.41821 44.5,-0.41821 l 44.5,0 0,-86.00001 0,-86.00001 -16.775,0 -16.775,0 -7.45,7.5 -7.4499,7.5 -29.0501,0 -29.05,0 -7.4719,-7.52207 -7.4719,-7.52207 -17.5031,0.27207 -17.5031,0.27207 -0.5,53.50001 c -0.275,29.425 -0.7953,52.4875 -1.1564,51.25 -0.6174,-2.11662 -1.1863,-2.25 -9.5972,-2.25 -8.2837,0 -9.0205,0.16535 -10.0259,2.25 -0.7928,1.64384 -1.1034,-15.32856 -1.1528,-63.00001 l -0.068,-65.25 19.0321,0 c 14.0574,0 19.8733,-0.36399 22.25,-1.39252 1.7699,-0.76588 6.5817,-4.81589 10.6929,-9.00001 l 7.475,-7.60748 41.55,0 41.5501,0 7.475,7.60748 c 4.1112,4.18412 8.923,8.23413 10.6928,9.00001 2.3768,1.02853 8.1927,1.39252 22.25,1.39252 l 19.0321,0 0,109.50001 0,109.50001 -55.8333,0 c -30.7083,0 -56.1333,-0.3 -56.5,-0.66667 z m -85.6167,-8.71673 c -3.1604,-7.37301 -7.6583,-9.2016 -14.55,-5.91522 l -3.5678,1.70139 -4.0632,-4.06322 c -4.0492,-4.04921 -4.0577,-4.07386 -2.4661,-7.15172 3.5122,-6.79179 1.1997,-12.62504 -5.9029,-14.88992 -2.843,-0.90659 -3.0153,-1.27054 -3.2933,-6.95603 l -0.2932,-5.99938 4.0071,-1.20055 c 6.8054,-2.03897 8.6852,-7.05447 5.5006,-14.67631 l -1.5788,-3.77862 3.8529,-3.85292 3.8529,-3.85292 5.1202,2.1632 c 5.0732,2.14337 5.1501,2.14573 8.3838,0.25716 2.1647,-1.26427 3.7851,-3.3363 4.8124,-6.1538 l 1.5487,-4.24775 5.6575,0 5.6575,0 1.7445,4.568 c 1.26,3.29913 2.6448,4.99728 4.9853,6.11341 3.0216,1.44087 3.569,1.4002 8.0935,-0.60118 l 4.8527,-2.14658 3.9992,3.99926 3.9993,3.99928 -1.7014,3.56784 c -3.4373,7.20817 -1.4593,12.5934 5.3781,14.64193 l 4.0071,1.20055 -0.2933,5.99351 c -0.285,5.82435 -0.3886,6.02548 -3.6704,7.12658 -6.4513,2.16457 -8.9714,8.67982 -5.6229,14.53741 2.1092,3.68969 1.8934,4.34918 -2.6078,7.96642 -4.0789,3.27788 -4.132,3.28963 -7.5339,1.66737 -6.8025,-3.24386 -11.9297,-0.99253 -14.3345,6.29419 l -1.3439,4.07202 -5.3755,0 -5.3755,0 z m 14.7092,-24.6112 c 5.1962,-3.16819 7.421,-7.57442 6.9616,-13.78749 -0.3218,-4.35171 -0.9795,-5.8896 -3.7336,-8.73116 -6.0512,-6.24323 -13.8942,-6.96024 -19.9937,-1.82784 -6.0121,5.05885 -7.5556,11.72561 -4.2419,18.32116 3.7679,7.49962 13.8478,10.3907 21.0076,6.02533 z m 63.1165,-36.7554 c -5.1502,-5.91251 -14.9331,-16.31514 -21.7397,-23.11696 l -12.3758,-12.36696 4.4708,-4.47073 4.4707,-4.47073 6.8992,3.50573 c 3.7945,1.92815 10.6233,5.972 15.175,8.98633 l 8.2759,5.48059 5.6697,-6.14864 c 16.5923,-17.99405 32.4952,-31.82943 50.0479,-43.54135 11.9606,-7.98064 11.8027,-7.93388 13.1368,-3.8916 l 1.1065,3.3528 -11.2721,11.46576 c -16.8936,17.18381 -35.7005,43.36715 -49.3447,68.69879 -2.1427,3.97816 -4.1795,7.24066 -4.5261,7.25 -0.3466,0.009 -4.8439,-4.82053 -9.9941,-10.73303 z"
             id="path5135"
             inkscape:connector-curvature="0" />
          <path
             sodipodi:nodetypes="scssccssscscsssccssccssssssssccsscscccccccccccccscssscssscccssscccsccccccccssscscscccscscscccsscscsccccscscssssssscccsscsscccsscs"
             style="fill:#f38157"
             d="m 1518.5099,850.70536 c 0,-0.73976 -0.9018,-2.16116 -2.004,-3.15867 -1.6958,-1.53467 -2.4096,-1.62889 -4.6404,-0.61249 -2.283,1.0402 -2.9373,0.91829 -4.8832,-0.90978 -1.9453,-1.82748 -2.1009,-2.49784 -1.1594,-4.9924 0.9047,-2.3968 0.7756,-3.22629 -0.7676,-4.93156 -1.0205,-1.12756 -2.4606,-2.0501 -3.2004,-2.0501 -0.8623,0 -1.345,-1.21721 -1.345,-3.39159 0,-2.77817 0.4494,-3.50439 2.4848,-4.01523 2.8783,-0.7224 4.2076,-4.43096 2.6389,-7.36205 -1.4703,-2.74738 2.4792,-6.60256 5.1988,-5.07459 2.6617,1.49544 6.1653,0.26312 7.4846,-2.63256 1.6944,-3.71868 6.1516,-3.46263 8.3964,0.48234 1.8094,3.17979 3.6486,3.67838 6.9841,1.89329 1.6713,-0.89444 2.4413,-0.71521 4.1141,0.95761 1.7874,1.78739 1.8983,2.40845 0.8436,4.72322 -0.9996,2.19398 -0.9389,3.08553 0.3433,5.04239 0.8566,1.30744 2.2222,2.37717 3.0345,2.37717 2.4345,0 1.9657,6.71011 -0.5241,7.50034 -3.0379,0.96419 -4.2269,3.90531 -2.8237,6.9849 1.0184,2.23516 0.8959,2.88804 -0.8736,4.65755 -1.7472,1.74715 -2.3976,1.87625 -4.3063,0.85473 -2.8061,-1.50179 -6.5309,-0.0362 -7.476,2.94153 -0.4932,1.55397 -1.4986,2.06096 -4.0868,2.06096 -2.2087,0 -3.4326,-0.47955 -3.4326,-1.34501 z m 9.0769,-14.57808 c 3.4189,-3.41886 3.7251,-6.78765 0.9389,-10.32968 -5.9399,-7.55141 -17.1757,-0.78938 -13.4422,8.08994 2.3564,5.6043 8.1084,6.63466 12.5033,2.23974 z m 15.9231,4.02091 c 0,-0.4962 1.35,-1.37279 3,-1.94799 2.9155,-1.01632 3,-1.22774 3,-7.5 0,-6.31412 -0.067,-6.47757 -3.0902,-7.53144 -1.7629,-0.61454 -2.9083,-1.62298 -2.6668,-2.34782 0.3322,-0.99692 10.0438,-1.32664 45.0902,-1.53088 l 44.6668,-0.26029 0,-86.48972 0,-86.48971 -16.7768,0 -16.7768,0 -6.9464,7 -6.9463,7 -30.0537,0 -30.0536,0 -6.9464,-7 -6.9463,-7 -17.7769,0 -17.7768,0 -0.03,53.25001 c -0.021,36.66325 -0.3479,52.7049 -1.0497,51.5 -0.851,-1.46114 -2.502,-1.75 -10.0018,-1.75 -8.3806,0 -9.0431,0.15078 -9.8869,2.25 -0.554,1.37827 -0.929,-22.80083 -0.9678,-62.40799 l -0.063,-64.65797 19.25,-0.34203 c 18.7919,-0.33388 19.3571,-0.40569 23.75,-3.01772 2.475,-1.47164 7.412,-5.63415 10.9711,-9.25001 l 6.4711,-6.5743 40.5578,0 40.5578,0 6.4711,6.5743 c 3.5591,3.61586 8.4961,7.77837 10.9711,9.25001 4.393,2.61203 4.9581,2.68384 23.75,3.01772 l 19.25,0.34203 0,108.40798 0,108.40799 -56.5,0 c -32.9157,0 -56.5,-0.37659 -56.5,-0.90217 z m -84.9223,-7.30481 c -2.5644,-7.35618 -7.1805,-9.31932 -14.612,-6.21421 l -3.7787,1.5788 -3.8078,-3.8288 -3.8078,-3.82881 1.9835,-4.40198 c 1.1517,-2.5561 1.7175,-5.28174 1.3493,-6.5 -0.9739,-3.22243 -4.3439,-6.42301 -8.0512,-7.64655 -3.2537,-1.07382 -3.353,-1.26652 -3.353,-6.50973 l 0,-5.40317 4.75,-2.26928 c 2.9819,-1.4246 5.2641,-3.35231 6.1311,-5.17887 1.2328,-2.59733 1.1522,-3.4512 -0.7513,-7.95656 l -2.1323,-5.04699 3.6199,-3.70707 3.6198,-3.70706 4.5588,1.95412 c 7.399,3.1716 13.0469,0.41806 14.7143,-7.17383 0.6262,-2.85092 0.8464,-2.95304 6.3683,-2.95304 5.7073,0 5.7225,0.008 7.0435,3.75 2.7171,7.69645 7.1153,9.65408 14.4252,6.42058 l 4.446,-1.96666 3.6904,3.77936 3.6904,3.77936 -1.6563,3.203 c -3.5755,6.91426 -1.3354,13.10992 5.4782,15.15131 l 4.004,1.19964 0,5.76416 c 0,5.65277 -0.065,5.78554 -3.3529,6.87073 -3.522,1.16235 -6.9006,4.28351 -8.003,7.39317 -0.3675,1.03662 0.2388,3.86289 1.3842,6.45212 l 2.0381,4.60748 -3.8313,3.83123 -3.8312,3.83123 -3.6698,-1.53335 c -7.4574,-3.11588 -12.2494,-1.09068 -14.8118,6.25967 -1.085,3.11256 -1.2888,3.20698 -6.9223,3.20698 -5.6334,0 -5.8372,-0.0944 -6.9223,-3.20698 z m 11.0231,-22.93154 c 13.1094,-4.3908 14.8788,-21.52321 2.8992,-28.0714 -7.0667,-3.86274 -16.9299,-0.67222 -20.3767,6.59136 -3.7875,7.98156 -0.805,16.25045 7.3467,20.36856 5.1342,2.59371 5.5644,2.64092 10.1308,1.11148 z m 64.4735,-41.38191 c -6.5318,-7.40865 -16.3502,-17.81184 -21.8187,-23.11822 l -9.9427,-9.64796 4.499,-4.49898 4.499,-4.49899 7.8446,4.29362 c 4.3145,2.36149 11.0553,6.45434 14.9796,9.09522 l 7.1351,4.8016 17.3649,-17.23568 c 16.3935,-16.27151 28.1799,-25.93127 43.6117,-35.7429 l 6.1957,-3.93923 1.6025,3.0989 1.6025,3.09891 -11.3635,11.65706 c -17.0808,17.52202 -31.611,37.4205 -47.2137,64.65708 -3.1507,5.5 -6.0417,10.32621 -6.4244,10.72491 -0.3826,0.39871 -6.0399,-5.3367 -12.5716,-12.74534 z"
             id="path5133"
             inkscape:connector-curvature="0" />
          <path
             sodipodi:nodetypes="sssssccccsccccssscsssssssscsscscccccccccccccscscscsscccsscccsccsscccssscccscsccccsccccssscccccscccscscscsssscscssscscccsscsscccsssc"
             style="fill:#f2774a"
             d="m 1518.3367,849.56959 c -1.3756,-3.0191 -3.7293,-3.88697 -7.0834,-2.61176 -3.3539,1.27515 -7.2123,-2.33676 -5.5868,-5.22991 1.5642,-2.78407 0.1783,-6.55541 -2.6718,-7.27074 -3.7966,-0.95289 -3.4781,-5.84181 0.5152,-7.90682 3.0966,-1.60128 3.8935,-4.53849 2.0307,-7.48454 -0.6656,-1.05278 -0.3302,-2.13219 1.1533,-3.71134 1.675,-1.78293 2.4817,-2.01822 4.0472,-1.18042 2.8101,1.50395 6.2429,0.32597 7.5759,-2.59972 1.6944,-3.71868 6.1516,-3.46263 8.3964,0.48234 1.7677,3.10651 3.6527,3.67622 6.7243,2.03235 1.375,-0.73591 2.3076,-0.41708 3.9767,1.35968 1.8964,2.01857 2.024,2.66454 0.9794,4.95727 -1.0164,2.23075 -0.9222,2.94452 0.6124,4.64032 0.9976,1.10223 2.419,2.00406 3.1587,2.00406 0.8655,0 1.345,1.22387 1.345,3.43261 0,2.55496 -0.5116,3.595 -2.001,4.06773 -3.0379,0.96419 -4.2269,3.90531 -2.8237,6.9849 1.0184,2.23516 0.8959,2.88804 -0.8736,4.65755 -1.6728,1.67282 -2.4428,1.85205 -4.1141,0.95761 -3.3355,-1.78509 -5.1747,-1.2865 -6.9841,1.89329 -2.2313,3.92119 -6.7017,4.20166 -8.3767,0.52554 z m 9.2501,-13.44231 c 3.4189,-3.41886 3.7251,-6.78765 0.9389,-10.32968 -5.9399,-7.55141 -17.1757,-0.78938 -13.4422,8.08994 2.3564,5.6043 8.1084,6.63466 12.5033,2.23974 z m 15.9231,4.02091 c 0,-0.4962 1.35,-1.37279 3,-1.94799 2.9139,-1.01579 3,-1.23035 3,-7.4765 0,-6.22014 -0.1,-6.4719 -3.0377,-7.68895 -7.4229,-3.0747 -2.822,-3.48132 42.3709,-3.74469 l 44.6668,-0.26029 0,-86.48972 0,-86.48971 -17.2768,0 -17.2768,0 -6.9464,7 -6.9463,7 -29.0537,0 -29.0536,0 -6.9464,-7 -6.9463,-7 -18.2769,0 -18.2768,0 -0.116,53.25001 c -0.064,29.2875 -0.3218,52.4625 -0.5733,51.5 -0.3949,-1.51109 -1.7486,-1.75 -9.9162,-1.75 -8.8746,0 -9.5148,0.13899 -10.3633,2.25 -0.554,1.37826 -0.929,-22.80711 -0.9678,-62.42355 l -0.063,-64.67354 19.25,-0.32646 c 22.703,-0.38502 23.1879,-0.55153 34.2232,-11.7501 l 6.9732,-7.07637 40.5536,0 40.5537,0 6.9732,7.07637 c 11.0352,11.19857 11.5202,11.36508 34.2231,11.7501 l 19.25,0.32646 0,108.42355 0,108.42355 -56.5,0 c -32.9157,0 -56.5,-0.37659 -56.5,-0.90217 z m -84.9005,-7.69922 c -2.6316,-7.27757 -6.9933,-9.01221 -14.6338,-5.8198 l -3.7787,1.5788 -3.7932,-3.8288 -3.7933,-3.82881 2.1047,-4.81345 c 1.9765,-4.52032 2.0081,-5.01612 0.5178,-8.14132 -1.1606,-2.43376 -2.8143,-3.79659 -6.155,-5.07241 l -4.568,-1.74454 0,-5.25804 0,-5.25805 4.75,-2.3561 c 2.9179,-1.44733 5.2827,-3.47833 6.1311,-5.26567 1.2263,-2.58357 1.1559,-3.44248 -0.6284,-7.66579 l -2.0095,-4.75622 3.829,-3.73894 3.829,-3.73892 4.3329,1.65472 c 2.383,0.9101 5.0445,1.65472 5.9145,1.65472 2.805,0 6.7711,-3.99993 7.9856,-8.05365 l 1.1824,-3.94635 5.6834,0 5.6834,0 1.1824,3.94635 c 1.2587,4.20111 5.2046,8.05365 8.2488,8.05365 1.0147,0 3.6849,-0.7362 5.9337,-1.63601 l 4.0888,-1.63601 3.8295,3.7394 3.8295,3.7394 -2.0114,4.5472 c -1.8926,4.27845 -1.9161,4.74728 -0.3971,7.93256 1.1375,2.38548 2.9432,3.95497 6.1134,5.31388 l 4.499,1.92852 0,5.39967 0,5.39968 -4.6018,1.75746 c -3.5349,1.34999 -4.9329,2.54974 -6.0296,5.17466 -1.2985,3.10776 -1.241,3.83948 0.635,8.08052 l 2.0628,4.66332 -3.895,3.89501 c -3.8728,3.8728 -3.9127,3.8859 -6.9835,2.29788 -6.8461,-3.54023 -12.834,-1.22954 -15.172,5.85479 -1.1598,3.51425 -1.2255,3.54808 -6.8925,3.54808 -5.6619,0 -5.7352,-0.0376 -7.0239,-3.60139 z m 10.9449,-22.39441 c 1.9494,-0.54156 5.0703,-2.55904 6.9354,-4.4833 2.8932,-2.98508 3.4502,-4.34433 3.7941,-9.25978 0.3366,-4.81047 0.017,-6.32189 -1.9354,-9.15951 -8.3522,-12.13773 -26.2098,-7.7003 -27.6089,6.86055 -0.6872,7.15172 3.3822,13.42456 10.2704,15.83161 3.9045,1.3644 4.3509,1.3754 8.5444,0.21043 z m 69.9163,-35.75083 c -3.5534,-4.24894 -13.339,-14.77064 -21.7458,-23.38155 l -15.2851,-15.65619 4.7596,-4.06836 4.7595,-4.06836 6.5256,3.60671 c 3.589,1.98369 10.2275,5.99899 14.7522,8.92289 l 8.2266,5.31618 16.2734,-16.33526 c 15.4408,-15.49956 29.7077,-27.19831 45.0089,-36.9069 l 5.7355,-3.63919 1.5813,3.05797 1.5814,3.05799 -12.3185,12.67034 c -16.9314,17.41509 -28.9256,33.80594 -44.762,61.17035 -3.9787,6.87501 -7.5486,12.83272 -7.933,13.23937 -0.3844,0.40665 -3.6063,-2.73705 -7.1596,-6.98599 z"
             id="path5131"
             inkscape:connector-curvature="0" />
          <path
             sodipodi:nodetypes="csscssscssscsssscccsscssssssccsscscccccccccccccssssscsscccsscccsccsccsccssccsscccscscccssscccscscccssscscccscssssssscscssscsscccsscc"
             style="fill:#f16431"
             d="m 1518.317,849.52639 c -1.3351,-2.93031 -4.7668,-4.10311 -7.5881,-2.59323 -3.1557,1.68887 -5.2307,-1.37675 -4.5197,-6.67745 0.547,-4.07833 0.4285,-4.33085 -2.5629,-5.45996 -4.2348,-1.59849 -4.4483,-6.00069 -0.3864,-7.9685 2.402,-1.16364 2.75,-1.90817 2.75,-5.883 0,-6.03657 1.6348,-8.04676 5.3909,-6.62898 3.5792,1.35101 5.8821,0.46247 7.0994,-2.73928 0.7347,-1.93254 1.6705,-2.52563 3.985,-2.52563 1.8671,0 3.0247,0.51478 3.0247,1.34501 0,2.70251 3.6767,4.8849 7,4.15499 4.5622,-1.00202 7.219,1.57332 5.8057,5.62763 -0.8412,2.41305 -0.7046,3.32662 0.7356,4.91797 0.9728,1.07492 2.374,1.9544 3.1137,1.9544 0.8705,0 1.345,1.2348 1.345,3.5 0,2.2652 -0.4745,3.5 -1.345,3.5 -0.7397,0 -2.1799,0.92254 -3.2003,2.0501 -1.6021,1.77027 -1.6918,2.48338 -0.6572,5.22439 1.0398,2.75461 0.9502,3.42233 -0.6778,5.0503 -1.507,1.50703 -2.2804,1.65958 -3.9321,0.77561 -3.3355,-1.78509 -5.1747,-1.2865 -6.9841,1.89329 -2.2448,3.94497 -6.702,4.20102 -8.3964,0.48234 z m 9.2698,-13.39911 c 1.7622,-1.76217 2.9231,-3.97705 2.9231,-5.57692 0,-2.90665 -4.8418,-8.5 -7.358,-8.5 -3.5597,0 -6.8129,2.16479 -8.1838,5.44581 -1.7044,4.07929 -0.7701,7.52184 2.7012,9.95328 3.4018,2.38273 6.645,1.95036 9.9175,-1.32217 z m 15.9231,4.02091 c 0,-0.4962 1.35,-1.37279 3,-1.94799 2.925,-1.01963 3,-1.21109 3,-7.64984 0,-6.4084 -0.087,-6.63439 -2.9392,-7.62865 -1.9191,-0.669 -2.7496,-1.51863 -2.393,-2.44798 0.4611,-1.20158 7.4635,-1.42337 44.9392,-1.42337 l 44.393,0 0,-86.50001 0,-86.50001 -17.2768,0 -17.2768,0 -6.9464,7 -6.9463,7 -29.0537,0 -29.0536,0 -6.9464,-7 -6.9463,-7 -18.2769,0 -18.2768,0 -0.116,53.25001 c -0.064,29.2875 -0.3218,52.4625 -0.5733,51.5 -0.3945,-1.50973 -1.7447,-1.75 -9.8343,-1.75 -7.8755,0 -9.5402,0.28022 -10.3963,1.75 -0.7002,1.20215 -1.0288,-18.34009 -1.0497,-62.42355 l -0.03,-64.17354 19.25,-0.32646 c 22.703,-0.38502 23.1879,-0.55153 34.2232,-11.7501 l 6.9732,-7.07637 40.4247,0 40.4247,0 8.6385,8.32748 c 10.6851,10.30053 11.9054,10.67253 35.0086,10.67253 l 17.0571,0 0,108.50001 0,108.50001 -56.5,0 c -32.9157,0 -56.5,-0.37659 -56.5,-0.90217 z m -84.871,-8.06165 c -0.6532,-2.1801 -2.1745,-4.6551 -3.3808,-5.5 -2.8305,-1.98257 -8.0272,-1.96039 -11.9165,0.0509 -3.0339,1.56889 -3.1121,1.54503 -6.8288,-2.0842 l -3.7597,-3.67126 2.0707,-4.90105 c 1.9559,-4.62969 1.9807,-5.08965 0.4464,-8.30712 -1.2047,-2.52623 -2.816,-3.86118 -6.2376,-5.16791 l -4.6134,-1.76185 0.2954,-5.51783 c 0.2755,-5.14843 0.4961,-5.58184 3.2953,-6.47411 7.2689,-2.31705 9.8918,-8.0533 6.6172,-14.47198 l -2.0061,-3.93232 3.8229,-3.733 3.823,-3.733 5.1438,1.82694 c 4.6465,1.65029 5.4076,1.68174 7.8716,0.32527 1.5002,-0.82591 3.7488,-3.63511 4.9969,-6.24265 l 2.2693,-4.74102 5.3224,0 5.3224,0 1.1824,3.94635 c 1.3318,4.44513 5.2457,8.05365 8.7352,8.05365 1.2821,0 3.9269,-0.76096 5.8773,-1.69103 l 3.5461,-1.69103 3.8662,3.77523 3.8662,3.77525 -2.0094,4.75622 c -1.7843,4.22331 -1.8547,5.08222 -0.6284,7.66579 0.8483,1.78734 3.2131,3.81834 6.131,5.26567 l 4.75,2.3561 0,5.25805 0,5.25804 -4.6018,1.75746 c -3.5025,1.33763 -4.9356,2.55626 -5.999,5.10136 -1.2483,2.98759 -1.1915,3.86585 0.5335,8.24215 l 1.9307,4.89824 -3.813,3.72331 c -3.7724,3.68367 -3.8457,3.70641 -6.882,2.13625 -4.2063,-2.17514 -9.7227,-2.03272 -12.067,0.31156 -1.0442,1.04423 -2.4846,3.51923 -3.2009,5.5 -1.2857,3.55564 -1.3739,3.60139 -6.9431,3.60139 l -5.6408,0 z m 11.0226,-22.06158 c 2.1321,-0.5922 5.1489,-2.67162 7.25,-4.9973 3.1864,-3.52697 3.5984,-4.59559 3.5984,-9.3323 0,-15.51539 -19.0166,-21.44001 -27.75,-8.64551 -5.3223,7.79728 -0.7944,20.22236 8.3693,22.96609 3.9113,1.1711 4.3468,1.17156 8.5323,0.009 z m 69.8091,-35.72123 c -3.5534,-4.24894 -13.3389,-14.77061 -21.7457,-23.38146 l -15.285,-15.65611 4.215,-3.6079 c 2.3183,-1.98435 4.5969,-3.60791 5.0635,-3.60791 1.7535,0 13.5893,6.41622 21.5782,11.69759 l 8.2867,5.47823 13.0905,-13.61956 c 14.2542,-14.83034 27.099,-25.66235 43.4005,-36.59947 l 10.4963,-7.04221 1.3976,3.2927 1.3975,3.29272 -11.2527,11.5 c -17.5949,17.98149 -28.0133,32.03138 -44.121,59.5 -4.8379,8.25001 -9.0807,15.33272 -9.4284,15.73937 -0.3478,0.40665 -3.5397,-2.73705 -7.093,-6.98599 z"
             id="path5129"
             inkscape:connector-curvature="0" />
        </g>
      </g>
    </g>
  </g>
</svg>
