<?xml version="1.0" encoding="UTF-8" standalone="no"?>
<svg
   xmlns:dc="http://purl.org/dc/elements/1.1/"
   xmlns:cc="http://creativecommons.org/ns#"
   xmlns:rdf="http://www.w3.org/1999/02/22-rdf-syntax-ns#"
   xmlns:svg="http://www.w3.org/2000/svg"
   xmlns="http://www.w3.org/2000/svg"
   xmlns:sodipodi="http://sodipodi.sourceforge.net/DTD/sodipodi-0.dtd"
   xmlns:inkscape="http://www.inkscape.org/namespaces/inkscape"
   width="461.14685"
   height="586.64905"
   viewBox="0 0 461.14684 586.64905"
   preserveAspectRatio="xMidYMid meet"
   id="svg2"
   version="1.1"
   inkscape:version="0.91 r13725"
   sodipodi:docname="tablet-frame.svg">
  <metadata
     id="metadata160">
    <rdf:RDF>
      <cc:Work
         rdf:about="">
        <dc:format>image/svg+xml</dc:format>
        <dc:type
           rdf:resource="http://purl.org/dc/dcmitype/StillImage" />
        <dc:title></dc:title>
      </cc:Work>
    </rdf:RDF>
  </metadata>
  <sodipodi:namedview
     pagecolor="#ffffff"
     bordercolor="#ffffff"
     borderopacity="0"
     objecttolerance="10"
     gridtolerance="10"
     guidetolerance="10"
     inkscape:pageopacity="0"
     inkscape:pageshadow="2"
     inkscape:window-width="1920"
     inkscape:window-height="1017"
     id="namedview158"
     showgrid="false"
     fit-margin-top="0"
     fit-margin-left="0"
     fit-margin-right="0"
     fit-margin-bottom="0"
     inkscape:zoom="2"
     inkscape:cx="227.83359"
     inkscape:cy="138.69081"
     inkscape:window-x="1912"
     inkscape:window-y="-8"
     inkscape:window-maximized="1"
     inkscape:current-layer="g18" />
  <defs
     id="defs4">
    <clipPath
       id="animationMask_WUf42bIMNX">
      <rect
         width="800"
         height="400"
         x="0"
         y="0"
         id="rect7" />
    </clipPath>
    <clipPath
       id="WnDLIXnXer">
      <path
         d="m 1102.25,645.5 c 0,0 -230.25,0 -230.25,0 0,0 0,337.75 0,337.75 0,0 230.25,0 230.25,0 0,0 0,-337.75 0,-337.75"
         id="path10"
         inkscape:connector-curvature="0"
         style="clip-rule:nonzero;fill:#ffffff" />
    </clipPath>
  </defs>
  <rect
     style="opacity:1;fill:none"
     y="204.6366"
     x="-329.01825"
     id="rect14"
     height="400"
     width="800" />
  <g
     transform="matrix(1.6732312,0,0,1.3678753,-15.246483,-82.945086)"
     id="g18">
    <path
       d="m 250.26537,60.736814 c -4.70501,-0.02649 -202.384044,0 -207.085775,0 C 28.443204,60.736814 9.112,57.36006 9.112,90.065911 l 0,366.647719 c 0,32.7041 18.733558,32.80037 33.469949,32.80037 l 209.476361,0 c 14.73639,0 32.65627,-0.0963 32.65627,-32.80037 l 0,-366.647719 c 0,-32.705851 -19.6986,-29.245187 -34.44921,-29.329097 z m 22.36232,37.429241 0,348.065685 -251.604931,0 0,-348.065685 z"
       style="fill:#414141;fill-opacity:1"
       id="path22"
       inkscape:connector-curvature="0"
       sodipodi:nodetypes="cssssssscccccc" />
    <ellipse
       style="opacity:1;fill:#ffffff;fill-opacity:1;fill-rule:nonzero;stroke:none;stroke-width:6.60995913;stroke-linecap:round;stroke-linejoin:miter;stroke-miterlimit:4;stroke-dasharray:none;stroke-opacity:1"
       id="path4443"
       cx="146.91328"
       cy="469.74481"
       rx="6.988287"
       ry="8.5483084" />
    <ellipse
       style="opacity:1;fill:#ffffff;fill-opacity:1;fill-rule:nonzero;stroke:none;stroke-width:6.60995913;stroke-linecap:round;stroke-linejoin:miter;stroke-miterlimit:4;stroke-dasharray:none;stroke-opacity:1"
       id="path4443-2"
       cx="146.91328"
       cy="79.560608"
       rx="3.3961909"
       ry="4.154335" />
  </g>
</svg>
