<?xml version="1.0" encoding="UTF-8" standalone="no"?>
<svg
   xmlns:dc="http://purl.org/dc/elements/1.1/"
   xmlns:cc="http://creativecommons.org/ns#"
   xmlns:rdf="http://www.w3.org/1999/02/22-rdf-syntax-ns#"
   xmlns:svg="http://www.w3.org/2000/svg"
   xmlns="http://www.w3.org/2000/svg"
   xmlns:sodipodi="http://sodipodi.sourceforge.net/DTD/sodipodi-0.dtd"
   xmlns:inkscape="http://www.inkscape.org/namespaces/inkscape"
   width="589.69183"
   height="429.81119"
   aria-label="A chart."
   style="overflow:hidden"
   id="svg2"
   version="1.1"
   inkscape:version="0.91 r13725"
   sodipodi:docname="US-CT.svg">
  <metadata
     id="metadata287">
    <rdf:RDF>
      <cc:Work
         rdf:about="">
        <dc:format>image/svg+xml</dc:format>
        <dc:type
           rdf:resource="http://purl.org/dc/dcmitype/StillImage" />
        <dc:title></dc:title>
      </cc:Work>
    </rdf:RDF>
  </metadata>
  <sodipodi:namedview
     pagecolor="#ffffff"
     bordercolor="#666666"
     borderopacity="1"
     objecttolerance="10"
     gridtolerance="10"
     guidetolerance="10"
     inkscape:pageopacity="0"
     inkscape:pageshadow="2"
     inkscape:window-width="1920"
     inkscape:window-height="1017"
     id="namedview285"
     showgrid="false"
     fit-margin-top="0"
     fit-margin-left="0"
     fit-margin-right="0"
     fit-margin-bottom="0"
     inkscape:zoom="1.1799027"
     inkscape:cx="453.23052"
     inkscape:cy="216.00124"
     inkscape:window-x="1912"
     inkscape:window-y="-8"
     inkscape:window-maximized="1"
     inkscape:current-layer="g21" />
  <defs
     id="defs">
    <clipPath
       id="_ABSTRACT_RENDERER_ID_6">
      <rect
         x="0"
         y="3"
         width="762.29999"
         height="471"
         id="rect6" />
    </clipPath>
    <linearGradient
       id="_ABSTRACT_RENDERER_ID_7"
       x1="22.501038"
       y1="441"
       x2="237.59897"
       y2="441"
       gradientUnits="userSpaceOnUse">
      <stop
         offset="0%"
         style="stop-color:#aadff3;stop-opacity:1"
         id="stop9" />
      <stop
         offset="100%"
         style="stop-color:#058dc7;stop-opacity:1"
         id="stop11" />
    </linearGradient>
  </defs>
  <g
     id="g13"
     transform="translate(-86.455865,-24.273629)">
    <g
       id="g19">
      <g
         id="g21">
        <path
           style="fill:#f5f5f5;stroke:#dddddd;stroke-width:1"
           inkscape:connector-curvature="0"
           id="path23"
           d="m 86.956104,406.50823 21.427926,34.10648 -1.27475,5.04836 1.39615,0.99164 2.91372,-1.38228 0.66772,-2.58428 5.34181,1.71283 0.27316,-4.77791 2.76196,-0.15025 0.97123,-3.00498 1.00159,3.90647 1.3658,-0.18029 2.94407,-6.37055 1.91212,3.00497 -0.36421,2.85473 5.2811,-2.04338 2.03353,3.18527 1.69967,-0.93154 5.00794,-5.37891 -1.76037,-5.01831 1.06229,-0.87144 2.57985,3.12517 0.72843,-3.21532 1.66931,0.0901 0.66773,10.45731 2.36739,-3.51582 -0.63737,-5.07841 3.30827,0 4.12776,-3.42567 1.48721,1.83303 3.82425,-6.85134 1.15334,0.48079 -2.03353,6.7612 1.45686,1.02169 0.84983,-4.32716 2.30669,-1.41234 -1.15334,-1.11184 6.00953,-0.69115 1.21405,-5.9799 1.69966,7.09174 1.91213,-0.66109 0.88018,-3.87642 2.36739,-0.3005 0.97124,-4.35721 3.42968,2.01333 0.84983,-2.97493 -1.88177,-0.72119 0.81948,-1.86309 -1.88177,-3.84637 1.76037,-6.76119 0.1821,6.85134 4.15811,5.34886 2.09424,-5.22866 5.97918,-0.42069 -3.39933,-3.18528 3.42968,-4.74786 0.48562,2.43403 4.21881,3.24537 2.91371,-5.82965 2.57985,-0.0301 -0.60702,2.40398 2.88336,0.6611 2.18528,-2.10349 4.12776,1.59264 9.22676,-11.98986 1.09264,1.59264 -2.18528,5.67941 5.25075,2.10348 4.94724,-3.72617 3.67249,-12.9815 -0.33386,4.29712 1.51756,2.76458 2.30669,-3.30548 12.17081,-5.19861 -1.06229,-8.08338 1.63897,1.74288 1.66931,-1.56259 1.12299,5.52916 2.12459,0.0601 2.03352,-3.18527 0.21246,5.82965 2.79231,2.13353 4.58303,-0.30049 -2.15494,2.73452 1.1837,1.77294 9.89448,-2.49413 -1.60861,-4.86806 -1.97283,-0.81135 -0.84983,-5.52915 3.61179,-1.83304 -0.36421,4.14687 1.69966,0.90149 2.91371,-4.53751 16.02542,-14.69434 1.51756,0.8414 -3.27793,4.53751 1.73002,1.38229 3.88495,-1.65274 3.58144,1.56259 8.61973,-9.82627 0.75878,-3.51582 2.64055,-0.33055 6.49515,-8.53413 6.13094,-2.97493 0.66773,-1.59264 -7.31464,-12.41055 0.42492,-1.80299 7.28428,10.87802 7.73955,-9.22528 -0.0303,-2.88478 2.57985,1.23204 0.33386,1.80299 -3.18687,2.52418 0.27316,8.14349 3.42968,6.07005 -3.58144,3.63602 1.88177,2.76458 10.77467,-2.16359 2.6102,-3.15522 2.06388,0.99164 1.85142,-1.71284 3.18687,2.58428 0.69808,-4.32716 4.30987,-0.3005 0.0607,-2.64438 2.5495,2.97493 -3.7332,2.73453 2.70126,2.55423 7.19323,-5.37891 7.40568,-1.80299 3.52074,0.4808 1.63896,3.75622 1.27475,-2.43403 3.55109,2.94488 3.76354,-2.55423 0.84983,2.70447 4.00636,-0.90149 -3.12617,3.72617 1.69966,3.21533 2.12459,-2.22369 1.09264,1.80299 3.49038,-3.93652 0.54632,-2.40398 1.45686,-0.15025 0,-4.11682 6.79866,-2.85472 0.27316,2.25373 -2.09423,0.75124 4.21881,0.99164 8.8322,-2.40398 11.19958,-0.57094 4.82583,2.70448 4.73479,6.94149 4.18846,-1.29214 -1.00159,-3.87642 -1.57826,1.89314 -0.97124,-1.05174 -0.33386,-5.85971 1.97282,3.39563 5.85778,-0.99165 3.27793,4.98826 5.4025,-4.89811 5.00795,-1.11184 0.75878,-2.13353 1.69966,3.21532 4.82584,-3.69612 9.77308,2.43403 1.94247,-2.28378 4.58303,-0.0901 3.88495,6.61095 23.21864,-7.09174 15.08453,-0.9616 3.21723,-6.73114 3.12617,-2.94488 2.94406,2.43403 6.61656,-10.24697 3.21722,-1.86309 -5.94883,7.57255 -0.24281,5.3188 -1.54791,0.9616 4.67408,3.84637 1.57826,-11.77951 6.31305,-3.45572 -1.21405,-4.53752 -2.18528,-0.60099 1.45685,-2.01334 -1.97282,-10.18687 6.34339,11.56916 -0.78913,7.45234 1.54791,4.41732 3.46003,1.05174 2.57985,-5.94985 0.69808,-6.79125 2.12458,-0.0902 -2.51914,11.44896 3.49038,4.44737 8.28587,-0.601 4.09741,-3.54587 2.09423,-5.82966 6.28269,2.85473 2.82266,-1.11184 -0.15176,-4.11682 3.18688,2.52418 3.33863,-2.94487 0.1214,-9.07503 -1.97283,-3.42568 0.97124,-3.78627 0.42492,4.20697 3.58144,2.07343 -1.39616,2.07344 0.0607,6.4006 -2.12458,4.20696 -3.67249,2.07344 6.4041,2.49413 1.79072,-1.62269 0.57667,-6.61095 3.03512,9.85633 2.42809,0.48079 1.09264,-5.28876 2.5495,-2.91482 -1.12299,-3.06508 5.37215,-6.91144 1.0623,-11.20857 2.18528,-3.75622 -1.27475,15.62588 4.64373,5.9799 4.27951,-6.4006 1.21405,5.37891 4.30987,1.95324 0.54632,-2.94488 1.73002,-0.90149 1.60861,3.51582 3.94565,-2.97493 3.94565,-8.29373 2.36739,-0.63105 -2.7923,4.59762 0.69807,4.08676 3.88495,1.11184 -1.15334,2.46409 2.85301,2.82467 7.43603,-6.67104 -0.15175,-3.75622 -2.21564,-2.67443 1.123,-2.04339 4.24916,4.89811 0.0303,6.2203 1.88177,-2.31383 -2.57985,-7.09174 2.21564,-7.42229 -0.72843,-3.60597 -2.82266,-3.09513 -0.091,-5.9198 7.22358,-3.84637 6.4041,1.20199 1.09264,-28.51723 2.09423,-67.58192 -4.06706,-148.205434 -217.52684,-4.387266 -16.9663,1.742887 -5.1597,2.193633 -5.06865,-0.1202 -0.30351,-2.343881 -26.73938,-2.434031 -17.57333,0.210348 -1.00159,1.201991 1.63897,1.412339 -1.54791,3.455723 -2.51915,-0.420697 1.88177,2.734529 -2.33704,5.07841 -15.17558,2.193632 0.97123,-15.746076 -204.50618,-5.318808 -19.3337,303.412471 20.72985,33.05474 -74.087206,45.22489 z" />
        <path
           style="fill:#f5f5f5;stroke:#dddddd;stroke-width:1"
           inkscape:connector-curvature="0"
           id="path25"
           d="m 107.35209,447.73651 1.1837,4.86806 -0.15176,-5.73951 z" />
        <path
           style="fill:#f5f5f5;stroke:#dddddd;stroke-width:1"
           inkscape:connector-curvature="0"
           id="path27"
           d="m 652.82333,318.43237 7.7092,-6.19025 -5.31146,1.71284 0.72843,2.07343 -2.51915,1.65274 z" />
        <path
           style="fill:#f5f5f5;stroke:#dddddd;stroke-width:1"
           inkscape:connector-curvature="0"
           id="path29"
           d="m 616.12876,311.85147 1.42651,4.08677 1.66931,-5.19861 -0.45527,-1.92318 -2.27633,0.54089 z" />
        <path
           style="fill:#f5f5f5;stroke:#dddddd;stroke-width:1"
           inkscape:connector-curvature="0"
           id="path37"
           d="m 108.53579,452.60457 -1.1837,-4.86806 -0.84983,3.69612 2.48879,2.28378 z" />
      </g>
    </g>
    <g
       id="g67">
      <g
         id="g69" />
    </g>
    <g
       id="g71" />
    <g
       id="g281" />
    <g
       id="g283" />
  </g>
</svg>
