<?xml version="1.0" encoding="UTF-8" standalone="no"?>
<svg
   xmlns:dc="http://purl.org/dc/elements/1.1/"
   xmlns:cc="http://creativecommons.org/ns#"
   xmlns:rdf="http://www.w3.org/1999/02/22-rdf-syntax-ns#"
   xmlns:svg="http://www.w3.org/2000/svg"
   xmlns="http://www.w3.org/2000/svg"
   xmlns:sodipodi="http://sodipodi.sourceforge.net/DTD/sodipodi-0.dtd"
   xmlns:inkscape="http://www.inkscape.org/namespaces/inkscape"
   width="702.37219"
   height="378.33615"
   aria-label="A chart."
   style="overflow:hidden"
   id="svg2"
   version="1.1"
   inkscape:version="0.91 r13725"
   sodipodi:docname="map-us.svg">
  <metadata
     id="metadata799">
    <rdf:RDF>
      <cc:Work
         rdf:about="">
        <dc:format>image/svg+xml</dc:format>
        <dc:type
           rdf:resource="http://purl.org/dc/dcmitype/StillImage" />
        <dc:title></dc:title>
      </cc:Work>
    </rdf:RDF>
  </metadata>
  <sodipodi:namedview
     pagecolor="#ffffff"
     bordercolor="#666666"
     borderopacity="1"
     objecttolerance="10"
     gridtolerance="10"
     guidetolerance="10"
     inkscape:pageopacity="0"
     inkscape:pageshadow="2"
     inkscape:window-width="1920"
     inkscape:window-height="1017"
     id="namedview797"
     showgrid="false"
     fit-margin-top="0"
     fit-margin-left="0"
     fit-margin-right="0"
     fit-margin-bottom="0"
     inkscape:zoom="1.5969868"
     inkscape:cx="280.37487"
     inkscape:cy="164.00871"
     inkscape:window-x="1912"
     inkscape:window-y="-8"
     inkscape:window-maximized="1"
     inkscape:current-layer="svg2" />
  <defs
     id="defs">
    <clipPath
       id="_ABSTRACT_RENDERER_ID_5">
      <rect
         x="0"
         y="3"
         width="796.5"
         height="492"
         id="rect6" />
    </clipPath>
    <linearGradient
       id="_ABSTRACT_RENDERER_ID_6"
       x1="21.501038"
       y1="462"
       x2="241.99896"
       y2="462"
       gradientUnits="userSpaceOnUse">
      <stop
         offset="0%"
         style="stop-color:#aadff3;stop-opacity:1"
         id="stop9" />
      <stop
         offset="100%"
         style="stop-color:#058dc7;stop-opacity:1"
         id="stop11" />
    </linearGradient>
  </defs>
  <g
     id="g13"
     transform="translate(-39.223625,-53.133072)">
    <rect
       x="39.223625"
       y="53.133072"
       width="702.37219"
       height="378.33615"
       id="rect15"
       style="fill:#ffffff;stroke:none;stroke-width:0" />
    <g
       clip-path=""
       id="g17">
      <g
         id="g19">
        <g
           id="g21">
          <path
             d="m 477.01661,328.60673 0.93528,21.11897 3.19807,0.98303 1.75834,-6.91225 0.90752,5.35469 2.28572,2.11298 -3.58425,0.75727 5.55015,-0.73458 -0.61547,-1.18489 2.54035,-0.93883 -2.42329,-8.00636 31.33382,-0.0442 -1.66902,-11.99341 3.04721,-5.66883 -3.57459,-8.52714 -5.0783,-30.56822 -31.35072,-0.34042 1.26837,1.68775 -4.52798,42.87458 z"
             id="US-AL"
             inkscape:connector-curvature="0"
             style="fill:#f5f5f5;stroke:#dddddd;stroke-width:1" />
          <path
             d="m 482.64883,344.96345 1.02821,-0.42761 -1.01252,0.33564 z"
             id="path25"
             inkscape:connector-curvature="0"
             style="fill:#f5f5f5;stroke:#dddddd;stroke-width:1" />
          <path
             d="m 479.05855,351.79567 2.76482,-0.27352 -2.77689,0.25083 z"
             id="path27"
             inkscape:connector-curvature="0"
             style="fill:#f5f5f5;stroke:#dddddd;stroke-width:1" />
          <path
             d="m 402.86125,262.06304 2.25917,16.33164 -0.66617,25.43689 5.34017,1.22789 0.005,7.61697 34.71895,0.215 1.3094,-6.3007 -1.81626,0.62111 1.08734,-0.74175 -1.42163,0.20067 1.27199,-2.38172 -1.18993,-1.02603 2.37502,0.0131 -1.37818,-0.77519 1.90556,-0.7752 -1.19958,-2.74483 3.36944,-2.65406 -1.45784,-1.22311 4.32524,-2.54894 1.10062,-6.72234 2.06004,0.55781 0.16412,-2.84278 2.7781,-1.42497 -1.24906,-2.08431 1.13321,-1.52172 -1.25872,-0.0143 0.9727,-1.37003 0.6903,1.20281 0.0772,-2.28736 1.52179,0.46941 -0.57082,-3.12705 3.72907,-2.37934 -1.03545,-1.55994 -7.78157,0.0729 3.78579,-4.53889 -1.06321,-2.90011 -53.89046,-0.0227 z"
             id="US-AR"
             inkscape:connector-curvature="0"
             style="fill:#f5f5f5;stroke:#dddddd;stroke-width:1" />
          <path
             d="m 159.13587,320.00793 45.12052,16.47616 24.43566,-0.004 0.0579,-81.86602 -60.40607,-0.0203 -1.0439,14.2975 -3.24031,-1.60414 -4.22628,0.90658 2.25193,13.25953 -0.7965,4.49947 6.08236,8.88189 -4.87917,4.73239 0.13637,5.48011 -2.49811,3.58811 0.29808,3.05778 2.35571,0.92211 0.51049,2.53819 -2.82275,1.42617 -1.31422,3.39342 z"
             id="US-AZ"
             inkscape:connector-curvature="0"
             style="fill:#f5f5f5;stroke:#dddddd;stroke-width:1" />
          <path
             d="m 131.43215,319.54448 31.16367,-3.14019 0.70358,-3.05061 -2.87103,-1.66028 -0.22688,-4.52575 2.42691,-2.12014 1.08614,-7.68147 3.65666,-2.53103 -3.08342,-2.82486 -2.97843,-7.90483 -64.775964,-59.81658 0.02172,-47.05633 -50.836009,-0.0633 -0.53462,3.4842 2.425704,3.87477 -0.66737,8.19867 -3.562528,9.15064 0.541862,2.84636 6.154772,6.70441 1.53266,14.13148 8.994415,9.89836 -0.550309,4.16264 1.928496,-0.36789 4.057323,3.08286 1.080102,-1.00931 -1.139237,-4.0408 3.272891,1.22191 -2.022627,1.58623 3.848543,6.81191 -3.220997,-1.40347 -0.28481,-3.04583 -1.349222,0.35594 1.292502,8.85322 3.264443,3.42447 3.2391,0.46464 0.901493,2.94311 -2.25675,2.35067 0.919596,4.08142 7.466584,9.42058 4.776586,3.43522 0.05551,2.92878 2.828782,1.3545 -0.03982,8.19867 2.375018,1.93738 10.778091,0.42762 5.21346,4.51858 7.09488,0.87672 1.63524,4.26297 3.43219,-0.0549 7.6633,6.22425 4.39402,11.09997 z"
             id="US-CA"
             style="fill:#f5f5f5;fill-opacity:1;stroke:#dddddd;stroke-width:1;stroke-opacity:1"
             inkscape:connector-curvature="0" />
          <path
             d="m 101.71305,309.1779 1.77885,0.4945 -1.8585,-0.65336 z"
             id="path35"
             inkscape:connector-curvature="0"
             style="fill:#a5ddf2;stroke:#95c7da;stroke-width:1" />
          <path
             d="m 92.194875,297.79843 -1.083723,0.37983 1.075275,-0.34042 z"
             id="path37"
             inkscape:connector-curvature="0"
             style="fill:#a5ddf2;stroke:#95c7da;stroke-width:1" />
          <path
             d="m 115.45509,315.63626 -2.09624,-3.09361 2.07572,3.06136 z"
             id="path39"
             inkscape:connector-curvature="0"
             style="fill:#a5ddf2;stroke:#95c7da;stroke-width:1" />
          <path
             d="m 94.387664,299.69521 2.559661,-0.31773 -1.076482,-1.28283 -2.276059,0.43836 0.797707,1.12875 z"
             id="path41"
             inkscape:connector-curvature="0"
             style="fill:#a5ddf2;stroke:#95c7da;stroke-width:1" />
          <path
             d="m 114.84565,307.61796 2.17348,0.90538 -3.65908,-2.40083 1.53025,1.46558 z"
             id="path43"
             inkscape:connector-curvature="0"
             style="fill:#a5ddf2;stroke:#95c7da;stroke-width:1" />
          <path
             d="m 97.981568,298.44701 4.336102,-0.31414 -4.337309,0.24845 z"
             id="path45"
             inkscape:connector-curvature="0"
             style="fill:#a5ddf2;stroke:#95c7da;stroke-width:1" />
          <path
             d="m 68.400041,242.83488 1.297329,0.387 -1.294915,-0.40492 z"
             id="path47"
             inkscape:connector-curvature="0"
             style="fill:#a5ddf2;stroke:#95c7da;stroke-width:1" />
          <path
             d="m 228.56774,232.04188 0.18223,22.57261 84.51469,0.0908 -0.11586,-61.65005 -84.45796,0.0275 -0.11948,38.85647 z"
             id="US-CO"
             inkscape:connector-curvature="0"
             style="fill:#f5f5f5;stroke:#dddddd;stroke-width:1" />
          <path
             d="m 654.97885,191.51916 2.39794,1.29477 6.89697,-4.59861 3.00498,1.04275 6.00995,-0.70233 0.15809,-1.29478 4.35541,0.49092 0.42239,-10.9865 -20.35541,-0.41925 0.0555,13.37419 -2.94584,1.79764 z"
             id="US-CT"
             style="fill:#f5f5f5;fill-opacity:1;stroke:#dddddd;stroke-width:1;stroke-opacity:1"
             inkscape:connector-curvature="0" />
          <path
             d="m 614.03271,225.29207 0.9739,2.18703 1.56404,-1.55158 -1.58817,-1.57787 -0.95098,0.94003 z"
             id="US-DC"
             inkscape:connector-curvature="0"
             style="fill:#aadff3;stroke:#99c9db;stroke-width:1" />
          <path
             d="m 630.09063,213.75254 1.15372,18.79578 7.60537,0.13497 -0.0495,-2.2563 -2.63569,0.18752 2.32071,-0.43597 -0.70599,-1.13352 1.09941,1.27327 -0.30532,-2.66719 -2.73103,-2.16433 -3.82079,-10.41556 2.69966,-3.09958 -2.94102,-0.46703 -1.68834,2.20972 z"
             id="US-DE"
             inkscape:connector-curvature="0"
             style="fill:#f5f5f5;stroke:#dddddd;stroke-width:1" />
          <path
             d="m 487.13337,342.98426 3.54442,6.07016 -2.13727,2.13448 3.04842,-0.89584 1.08855,-3.33011 1.29491,1.89678 0.54307,-2.61225 1.84281,2.72094 -3.79423,1.29717 11.9475,-2.09028 1.04148,1.76181 -4.8683,-0.35475 9.488,3.72308 -1.43491,-2.29094 3.20773,-0.31414 -1.86212,1.77972 4.18645,1.8072 -3.50822,-1.01767 4.40971,4.06708 -0.52376,2.10461 -0.71443,-2.17866 0.69874,2.37336 12.14301,-3.22261 -1.34802,-1.66028 1.43853,0.67844 2.06607,-3.3743 -0.15568,1.8693 2.16021,-0.49927 3.86182,2.59075 7.40141,10.11813 3.29703,0.21142 2.41967,3.75892 -1.13924,-0.16006 1.07166,2.6457 -3.03756,11.51922 2.48122,2.19778 0.77357,-2.39367 -1.75713,-0.75728 0.34515,-1.43453 2.18313,2.84636 1.5037,-1.51455 -3.6096,6.29353 4.97089,8.84844 1.61593,0.29025 -1.2213,-2.84278 2.74189,0.48734 -0.33791,5.69391 3.6277,-2.3853 -3.10394,3.09958 1.85005,0.64858 1.51818,7.10575 4.6728,1.26014 2.40036,5.75125 3.01222,1.75583 -2.93981,-1.0093 0.63117,2.78305 6.79076,-1.38794 1.72816,1.30911 3.15825,-10.4048 1.05476,-11.90623 -6.4951,-17.49861 -0.064,-6.49777 -7.895,-15.37847 -2.39795,-13.74328 -6.30442,-1.80958 -1.05717,6.32816 -1.5037,0.20545 -0.6384,-2.92998 -31.98069,-1.98636 -1.65575,-4.02289 -31.33986,0.0442 -0.43566,1.8263 z"
             id="US-FL"
             style="fill:#f5f5f5;fill-opacity:1;stroke:#dddddd;stroke-width:1;stroke-opacity:1"
             inkscape:connector-curvature="0" />
          <path
             d="m 498.92881,349.40798 -7.70433,1.07739 9.39025,-0.84089 -1.60265,-0.21381 z"
             id="path59"
             inkscape:connector-curvature="0"
             style="fill:#aadff3;stroke:#99c9db;stroke-width:1" />
          <path
             d="m 552.8772,402.21914 2.07452,0.86598 -2.07814,-0.86478 z"
             id="path61"
             inkscape:connector-curvature="0"
             style="fill:#aadff3;stroke:#99c9db;stroke-width:1" />
          <path
             d="m 553.96816,401.21462 -0.66737,-1.3987 0.68186,2.81172 -0.0133,-1.40825 z"
             id="path63"
             inkscape:connector-curvature="0"
             style="fill:#aadff3;stroke:#99c9db;stroke-width:1" />
          <path
             d="m 546.11178,388.54992 0.69995,1.204 -0.6734,-1.24461 z"
             id="path65"
             inkscape:connector-curvature="0"
             style="fill:#aadff3;stroke:#99c9db;stroke-width:1" />
          <path
             d="m 576.55739,417.05056 0.57806,-1.19564 -0.44169,1.11203 z"
             id="path67"
             inkscape:connector-curvature="0"
             style="fill:#aadff3;stroke:#99c9db;stroke-width:1" />
          <path
             d="m 577.37078,411.88817 0.38498,-1.42019 -0.33067,1.32583 z"
             id="path69"
             inkscape:connector-curvature="0"
             style="fill:#aadff3;stroke:#99c9db;stroke-width:1" />
          <path
             d="m 546.77553,389.87934 1.46749,1.87528 -1.45422,-1.93142 z"
             id="path71"
             inkscape:connector-curvature="0"
             style="fill:#aadff3;stroke:#99c9db;stroke-width:1" />
          <path
             d="m 516.26354,359.40787 1.69679,0.13736 -1.65938,-0.18036 z"
             id="path73"
             inkscape:connector-curvature="0"
             style="fill:#aadff3;stroke:#99c9db;stroke-width:1" />
          <path
             d="m 562.84793,427.15317 -0.41756,-1.43692 0.45859,1.41184 z"
             id="path75"
             inkscape:connector-curvature="0"
             style="fill:#aadff3;stroke:#99c9db;stroke-width:1" />
          <path
             d="m 573.52224,421.6432 -1.32026,1.38078 1.13441,-1.14189 z"
             id="path77"
             inkscape:connector-curvature="0"
             style="fill:#aadff3;stroke:#99c9db;stroke-width:1" />
          <path
             d="m 521.57113,359.03281 -3.78579,1.1622 4.72107,-1.95531 -0.91476,0.75489 z"
             id="path79"
             inkscape:connector-curvature="0"
             style="fill:#aadff3;stroke:#99c9db;stroke-width:1" />
          <path
             d="m 566.8594,425.86556 -1.12235,0.34042 2.3002,-0.88867 -1.13803,0.54347 z"
             id="path81"
             inkscape:connector-curvature="0"
             style="fill:#aadff3;stroke:#99c9db;stroke-width:1" />
          <path
             d="m 560.35223,426.88203 -0.66375,0.96989 0.6553,-0.91017 z"
             id="path83"
             inkscape:connector-curvature="0"
             style="fill:#aadff3;stroke:#99c9db;stroke-width:1" />
          <path
             d="m 511.64505,284.46604 5.0614,30.45714 3.57459,8.52714 -3.06049,5.91608 0.41394,9.15422 2.34123,6.04867 32.56961,2.55252 0.2667,2.62898 1.53025,0.32011 0.58772,-6.04389 6.86559,1.1383 -0.32946,-5.5255 2.3364,-1.87527 0.40187,-5.34992 1.44335,-0.0705 -0.8846,-1.51814 4.38075,-3.98944 -3.35375,-1.38198 -4.52315,-12.63483 -12.8502,-13.40644 -3.98612,-7.73284 -5.48982,-2.91683 2.89033,-4.58667 -30.20304,0.17798 z"
             id="US-GA"
             inkscape:connector-curvature="0"
             style="fill:#f5f5f5;stroke:#dddddd;stroke-width:1" />
          <path
             d="m 378.46422,165.23541 6.15477,12.36369 4.39161,22.03869 48.71322,-0.44791 4.07301,3.60722 -0.16413,-2.67914 3.39478,-1.80122 2.07211,-4.49708 -1.94901,-4.55442 0.81822,-2.74603 8.48031,-2.77111 2.28813,-5.10386 -0.12551,-3.40297 -2.76603,-1.75464 -3.752,-6.55392 -4.35661,-1.93619 -1.3806,-5.15522 1.46749,-3.07809 -1.9285,-4.02886 -64.94492,0.001 1.96229,6.24097 -2.44863,6.25292 z"
             id="US-IA"
             inkscape:connector-curvature="0"
             style="fill:#f5f5f5;stroke:#dddddd;stroke-width:1" />
          <path
             d="m 129.81743,137.96266 0.54186,1.9553 3.66752,1.85856 -1.67023,5.51475 0.0772,29.84916 72.1617,-0.0215 -0.0278,-40.5466 -4.06698,-4.71567 -0.98959,3.63111 -9.87418,-0.49689 -1.21527,2.02339 -4.75969,-0.6235 -0.89425,2.08908 -3.33203,-6.9218 -3.90526,-1.55875 0.0374,-3.27158 -5.82893,-10.80017 -4.80555,4.01094 -2.79499,-1.677 -0.0169,-3.69441 2.15417,-1.89798 -1.68351,-4.49349 2.49208,-8.678838 -5.38482,-0.869555 -6.67491,-9.800416 -5.30156,-2.916833 1.57611,-1.014084 -1.53507,-1.211166 0.40187,-2.606278 -3.93785,-5.010694 -0.004,-18.456555 -11.86544,0.03106 -0.36446,46.963159 2.44743,7.67431 4.78383,5.19463 -9.40836,20.48711 z"
             id="US-ID"
             inkscape:connector-curvature="0"
             style="fill:#f5f5f5;stroke:#dddddd;stroke-width:1" />
          <path
             d="m 440.33054,206.01374 1.74627,6.99347 7.70433,7.33389 1.22492,5.60553 2.27606,-1.16339 3.97888,1.88244 -3.00981,9.47075 10.20123,8.09833 1.62559,9.75742 2.96032,0.89464 2.02867,-3.73383 6.11856,2.33991 -0.12913,-4.83152 4.919,-1.38078 -1.18148,-2.5585 3.0086,-7.64445 -0.93167,-1.43094 1.77523,-0.35595 4.16594,-7.03049 -1.96591,-6.07137 1.53387,-3.268 0.0929,-37.64649 -3.63493,-8.62509 0.38015,-3.4388 -34.36174,-0.26875 5.76859,6.32458 -0.21843,4.93783 -3.38392,4.56995 -7.05385,1.74508 -0.81822,2.74603 2.01659,2.29692 -0.19309,2.70422 -1.9466,4.05036 -3.39478,1.80122 -1.30095,5.85636 z"
             id="US-IL"
             style="fill:#f5f5f5;fill-opacity:1;stroke:#dddddd;stroke-width:1;stroke-opacity:1"
             inkscape:connector-curvature="0" />
          <path
             d="m 481.5458,241.03604 1.78126,1.96009 0.62996,-2.35306 3.42616,1.43572 0.32101,-2.1703 5.73842,2.92877 3.54443,-3.28233 2.17468,2.37097 3.35134,-5.3965 3.8594,3.64664 2.55484,-4.84108 4.89726,-3.87956 -0.14481,-3.01119 7.51123,-0.88031 0.0833,-46.57258 -24.15446,-0.001 -6.05461,2.26705 -2.59225,-1.98277 -0.0929,37.64649 -1.53387,3.268 1.96591,6.07137 -4.16594,7.03049 -1.76919,0.3452 0.92442,1.44767 -2.25434,3.91419 z"
             id="US-IN"
             style="fill:#f5f5f5;fill-opacity:1;stroke:#dddddd;stroke-width:1;stroke-opacity:1"
             inkscape:connector-curvature="0" />
          <path
             d="m 313.1476,208.80157 0.11706,45.90369 89.59539,-0.0884 0.35721,-32.64058 -2.93619,-1.01886 -3.35012,-5.04294 2.97601,-3.10078 -0.97994,-2.42472 -1.76557,0.54466 -2.63207,-2.13208 -81.38178,-0.004 z"
             id="US-KS"
             inkscape:connector-curvature="0"
             style="fill:#f5f5f5;stroke:#dddddd;stroke-width:1" />
          <path
             d="m 463.76213,261.27232 1.18509,0.59842 -1.16699,-0.67128 z"
             id="path97"
             inkscape:connector-curvature="0"
             style="fill:#f5f5f5;stroke:#dddddd;stroke-width:1" />
          <path
             d="m 465.61218,262.06901 16.47307,0.0275 -0.20878,-2.69228 52.85622,1.42258 6.70267,-2.38411 4.99984,-5.65331 9.12355,-6.34011 -4.09111,-2.00069 -2.3883,-3.88075 -1.71971,-3.53794 0.44531,-4.5162 -2.82999,-1.92186 -0.45135,-2.50236 -4.99502,2.37336 -2.74792,-1.62683 -1.85729,1.13233 -6.49269,-2.70422 -2.85895,-4.79331 -3.63131,-0.45627 -1.77161,1.39152 1.01372,4.171 -7.50278,0.86717 0.14481,3.01119 -4.89726,3.87956 -2.53553,4.83392 -3.87871,-3.63948 -3.35134,5.3965 -2.17468,-2.37097 -3.54443,3.28233 -3.58666,-2.45338 -2.28451,-0.44912 -0.59255,2.24675 -3.08824,-1.50977 -0.0386,1.7845 -3.04843,2.20255 1.1489,2.67197 -4.96003,1.44289 0.19309,4.71925 -5.72997,-2.30647 -1.84522,0.93644 -0.87133,7.45692 -1.04389,1.51456 -1.41922,-0.91734 -0.66134,1.87886 z"
             id="US-KY"
             inkscape:connector-curvature="0"
             style="fill:#f5f5f5;stroke:#dddddd;stroke-width:1" />
          <path
             d="m 409.79442,319.73798 0.01,7.46647 6.45165,13.47811 -2.80344,6.83939 0.62875,5.51117 -2.60793,4.84467 0.83632,1.36047 5.89772,-0.84447 -1.13079,-1.49425 1.58818,-2.81053 0.87735,2.72333 -1.20923,1.47156 3.92337,-0.0657 -1.08735,0.20067 5.90014,2.44144 6.88128,-0.13139 -1.99487,-2.22763 3.19444,-1.26253 1.39026,0.0705 -0.43687,1.82989 3.44667,-0.71547 -1.01493,1.63877 1.31905,1.60534 1.99246,-1.98756 -0.51169,1.97681 1.73902,0.64022 0.43566,-2.2145 0.32102,3.35161 2.52828,0.63425 -1.40956,0.81461 0.82546,1.41303 1.97556,-2.08311 -0.25464,1.0953 1.73541,-0.35355 -0.67461,1.60175 2.20968,0.3858 0.52617,-2.43786 2.7431,0.73698 0.28481,-1.13592 1.70765,3.49614 3.14979,-2.40561 -1.73902,0.64619 -0.72047,-2.0413 1.62437,1.06783 -0.26067,-2.22047 -1.96228,-1.58264 3.07497,0.35714 -0.34394,1.05111 2.6731,-0.24009 -0.79168,2.27423 4.34093,0.80386 1.58697,2.76036 -0.96546,1.72478 1.88264,-2.58717 1.36612,1.79047 1.43611,-3.2023 -6.4601,-2.41636 -2.70327,-3.13184 2.66103,-0.50764 -0.77236,-1.56711 2.4607,0.55542 -1.16458,-1.55397 2.16624,0.87552 -1.96591,-3.00641 0.9027,-0.774 -2.70448,2.59672 -2.43294,-1.85378 1.4168,-2.41397 -0.67944,1.48231 -0.81339,-1.25537 -3.33806,1.88484 -3.43581,-1.29836 3.24513,-3.96436 4.87555,3.10436 1.8597,-0.43 -3.12203,-6.29592 1.47956,-4.76105 -23.01765,0.0621 -0.20636,-3.57617 1.67023,-0.31414 -0.73254,-1.85019 1.3082,0.4945 -0.65893,-2.05684 1.41319,-0.76205 -1.32871,-0.75609 3.04601,-1.74627 -0.9908,-1.25178 1.097,0.42403 3.01946,-4.68222 -1.93212,-0.71548 2.04314,0.0526 1.43974,-2.52267 -2.90119,-1.57666 1.54714,-0.15648 -0.33791,-2.09027 -1.64972,0.30219 0.67099,-5.20181 -0.8846,1.23864 0.0495,-1.49066 -34.71895,-0.215 -0.004,7.01139 z"
             id="US-LA"
             style="fill:#f5f5f5;fill-opacity:1;stroke:#dddddd;stroke-width:1;stroke-opacity:1"
             inkscape:connector-curvature="0" />
          <path
             d="m 461.87225,353.49179 1.05476,-0.42164 -1.09821,0.39297 z"
             id="path103"
             inkscape:connector-curvature="0"
             style="fill:#aadff3;stroke:#99c9db;stroke-width:1" />
          <path
             d="m 463.90936,359.66348 0.92804,0.53869 -0.88942,-0.62588 z"
             id="path105"
             inkscape:connector-curvature="0"
             style="fill:#aadff3;stroke:#99c9db;stroke-width:1" />
          <path
             d="m 448.06987,365.98687 -0.12792,1.161 0.12068,-1.11442 z"
             id="path107"
             inkscape:connector-curvature="0"
             style="fill:#aadff3;stroke:#99c9db;stroke-width:1" />
          <path
             d="m 442.70677,364.57504 2.20003,1.247 -1.13924,-2.21809 -0.94132,0.97467 z"
             id="path109"
             inkscape:connector-curvature="0"
             style="fill:#aadff3;stroke:#99c9db;stroke-width:1" />
          <path
             d="m 472.31122,358.10951 0.34878,-3.19992 -0.23654,3.15692 z"
             id="path111"
             inkscape:connector-curvature="0"
             style="fill:#aadff3;stroke:#99c9db;stroke-width:1" />
          <path
             d="m 435.11347,360.38254 -1.03424,0.44313 2.2664,1.37003 1.61231,-1.10486 -2.63328,-0.90539 z"
             id="path113"
             inkscape:connector-curvature="0"
             style="fill:#aadff3;stroke:#99c9db;stroke-width:1" />
          <path
             d="m 657.61816,175.75727 8.34394,1.42616 17.32146,-0.34161 0.48514,3.54034 3.5939,5.00472 3.91492,-4.40392 0.44773,1.0535 0.85081,-1.12755 -0.61065,3.97869 6.03288,-2.75797 2.24831,0.42403 -0.4767,1.85616 1.00407,-2.13686 -1.75833,-5.91369 -2.09262,-0.23889 1.77643,0.48614 1.10062,3.61558 -3.96319,1.58742 -4.5497,-4.70134 1.36249,-0.0538 -1.98521,-3.9548 -3.221,-0.54467 1.79213,-4.17577 3.53235,-1.53248 -2.83361,-0.78116 -0.89063,-3.27398 -4.7078,3.08764 -23.78397,-0.7955 -2.93015,10.65564 z"
             id="US-MA"
             style="fill:#f5f5f5;fill-opacity:1;stroke:#dddddd;stroke-width:1;stroke-opacity:1"
             inkscape:connector-curvature="0" />
          <path
             d="m 690.1576,185.76552 1.17302,-0.7955 -1.14285,0.68203 z"
             id="path117"
             style="fill:#a4dcf1;stroke:#dddddd;stroke-width:1;stroke-opacity:1"
             inkscape:connector-curvature="0" />
          <path
             d="m 693.78408,186.94563 -1.10785,-1.53247 -2.81913,2.18941 3.92457,-0.65814 z"
             id="path119"
             style="fill:#f5f5f5;fill-opacity:1;stroke:#dddddd;stroke-width:1;stroke-opacity:1"
             inkscape:connector-curvature="0" />
          <path
             d="m 697.11128,188.6728 3.32358,0.1075 -1.05597,-1.94575 0.32222,1.53963 -2.58379,0.25562 z"
             id="path121"
             style="fill:#a4dcf1;stroke:#dddddd;stroke-width:1;stroke-opacity:1"
             inkscape:connector-curvature="0" />
          <path
             d="m 585.45526,219.97082 0.18102,1.19683 4.47247,-4.2343 1.7535,0.56258 2.29537,-3.2238 2.42812,1.9983 4.69332,-2.73886 4.08508,1.39392 0.94614,4.15905 3.61804,1.68775 -0.0205,2.34948 6.66284,2.80575 -3.53236,4.21519 -0.61306,3.66694 2.78534,-1.73314 1.20078,3.0757 7.21436,3.81028 -2.37019,-7.47245 0.27515,-5.74527 -1.36129,-1.02364 1.83678,0.52316 -1.86091,-2.03891 2.59103,0.86 -2.79137,-3.77206 2.2833,1.10606 -0.70478,-1.69373 2.11193,-0.1278 -1.0801,-1.15145 1.60266,1.333 -0.0169,-2.20852 0.7265,1.42497 3.26445,-3.68606 -0.70478,2.10581 1.1694,-0.19589 -4.40488,4.80764 0.80736,1.50619 1.07889,-1.73791 -0.30894,2.5143 -1.99487,-0.42641 -0.80978,2.76513 1.00287,-2.0425 1.11631,1.97442 0.50324,-1.9123 1.07407,1.39869 -1.56283,1.25536 1.18751,0.20425 -0.91598,0.73697 -0.9389,-1.77852 -1.03787,2.89772 0.9546,-2.22167 -0.40187,1.49783 0.59254,-1.29955 0.52135,2.06519 1.33957,-1.49783 -0.97753,1.54083 2.44864,0.95556 -3.87389,-0.38103 1.93332,1.36167 -2.47397,0.7095 0.71202,1.71522 2.99774,2.48683 0.21722,-2.42353 0.48152,2.17389 1.3794,-1.77255 0.48393,2.10103 -1.6992,1.1813 2.5126,0.70831 -1.50611,2.54297 5.95444,-1.4847 3.42978,-4.65713 -1.18631,-1.73553 1.22734,-0.24606 -7.21557,-0.13497 -1.14768,-19.42405 -44.50866,0.0179 -0.12189,6.58378 z"
             id="US-MD"
             inkscape:connector-curvature="0"
             style="fill:#f5f5f5;stroke:#dddddd;stroke-width:1" />
          <path
             d="m 636.48798,239.15121 1.69799,-3.73264 -1.71247,3.698 z"
             id="path125"
             inkscape:connector-curvature="0"
             style="fill:#f5f5f5;stroke:#dddddd;stroke-width:1" />
          <path
             d="m 638.99695,232.68329 -0.46583,1.98636 0.46342,-1.84661 z"
             id="path127"
             inkscape:connector-curvature="0"
             style="fill:#f5f5f5;stroke:#dddddd;stroke-width:1" />
          <path
             d="m 686.86902,122.55791 1.16216,31.98483 3.01825,5.19942 4.68246,-6.02478 -0.15327,-2.02817 1.84161,0.0251 -0.82305,-1.83109 2.22537,-2.95386 1.80781,-0.20425 -1.27198,2.01981 1.54955,-1.12875 1.00045,1.75225 1.73541,-3.19514 1.05476,1.30792 2.09745,-3.02075 2.18434,1.20161 1.40111,-1.07978 2.20245,-5.83486 -1.26233,-1.72956 3.5227,-1.27447 -0.83633,3.55467 3.66632,1.39153 -0.70961,-3.03867 2.3014,-0.4085 0.7615,3.49614 1.86936,-1.71881 -1.03665,-2.78066 1.95384,0.43955 0.60461,2.29095 1.19475,-1.0762 -0.94252,-1.52769 1.57127,1.56233 0.63117,-2.78544 3.3984,0.49211 -0.0905,-2.16434 2.04555,1.13114 1.16217,-1.9565 1.34681,1.15742 2.96877,-2.92758 -2.45225,-5.8707 -2.26882,0.58647 -1.72696,-2.61344 0.70116,-5.16597 -4.67159,-1.87289 0.3367,-23.780194 -5.3631,-5.06325 -8.03016,3.121084 -1.81868,-1.384362 0.0796,-3.015972 -2.17589,-0.567361 -9.32509,13.408833 -0.71564,4.857802 -2.85171,3.87359 0.40911,5.16836 -5.59964,6.4715 1.06321,2.19897 -1.97194,-0.72981 -0.71082,3.35281 -1.15009,-1.86572 -1.58818,0.57333 z"
             id="US-ME"
             style="fill:#f5f5f5;fill-opacity:1;stroke:#dddddd;stroke-width:1;stroke-opacity:1"
             inkscape:connector-curvature="0" />
          <path
             d="m 716.85483,143.27316 -0.67944,1.09769 0.61427,-0.9878 z"
             id="path131"
             style="fill:#a9dff3;stroke:#dddddd;stroke-width:1;stroke-opacity:1"
             inkscape:connector-curvature="0" />
          <path
             d="m 716.13798,141.00491 1.06803,0.26994 -1.08131,-0.28547 z"
             id="path133"
             style="fill:#a9dff3;stroke:#dddddd;stroke-width:1;stroke-opacity:1"
             inkscape:connector-curvature="0" />
          <path
             d="m 712.93388,139.8893 0.45979,-1.91828 -0.40911,1.83467 z"
             id="path135"
             style="fill:#a9dff3;stroke:#dddddd;stroke-width:1;stroke-opacity:1"
             inkscape:connector-curvature="0" />
          <path
             d="m 712.77216,142.33552 1.35646,-0.90658 -1.39146,0.82536 z"
             id="path137"
             style="fill:#a9dff3;stroke:#dddddd;stroke-width:1;stroke-opacity:1"
             inkscape:connector-curvature="0" />
          <path
             d="m 713.97415,143.85844 -0.79529,-1.44767 0.80857,1.38317 z"
             id="path139"
             style="fill:#a9dff3;stroke:#dddddd;stroke-width:1;stroke-opacity:1"
             inkscape:connector-curvature="0" />
          <path
             d="m 453.58261,101.00894 2.39433,1.0105 1.15975,2.85711 24.35359,7.1583 -0.33308,1.91828 4.19852,2.16792 -1.27802,5.59717 2.78534,-0.23889 -0.9558,3.31577 1.69799,1.31748 7.56917,-13.94395 0.0302,4.24625 2.32795,-3.33966 2.82878,-0.44195 -2.11676,3.5057 1.29009,1.46319 4.14542,-5.94236 4.28782,0.46344 4.72349,-2.91683 6.21994,1.51814 3.00739,2.85114 1.20561,-3.72308 1.49887,1.46558 7.73812,-0.33206 -4.56419,-3.67769 1.02459,-0.7095 -1.47352,-4.32389 -3.33806,1.333 -0.51048,-1.22192 -4.52437,0.1075 0.55997,-5.149246 -14.54216,1.878861 -5.86031,4.409885 -4.29869,-2.03055 -3.56977,0.71905 -5.86755,-6.784441 -3.67717,-0.762055 -2.32433,1.722388 1.81626,-2.485638 -4.32765,3.652611 0.48393,-4.305972 -2.24468,-3.947639 -3.95957,3.941666 -17.49886,7.64803 z"
             id="US-MI-1"
             style="fill:#f5f5f5;fill-opacity:1;stroke:#dddddd;stroke-width:1;stroke-opacity:1"
             inkscape:connector-curvature="0" />
          <path
             d="m 497.11979,180.99013 40.86407,0.3858 7.50882,-14.67255 3.39357,0.33325 1.16579,-6.17528 -3.99698,-16.36508 -1.74144,-1.24103 -6.04495,2.67914 -3.3984,5.39769 -3.10273,-2.18702 1.08372,-4.36092 3.32599,-1.0738 0.51893,-3.21067 2.49329,-1.591 0.68788,-6.28636 -2.24106,-4.89364 1.10666,-1.23386 1.28164,0.88867 -2.77689,-5.61987 -7.10816,-2.20972 -1.74385,-2.55372 -6.15598,-2.63614 -3.35375,0.45986 -1.2563,4.14353 2.41847,2.01264 -5.54654,2.31244 -1.93091,8.69556 0.75185,-4.04558 -1.54352,3.74577 -0.59376,-1.17652 1.28888,-6.2792 -3.34771,4.472 -3.06049,0.74653 -0.21481,2.65286 -2.02384,0.91136 0.67944,5.53983 -3.79786,5.13611 1.09217,3.83656 -1.29008,3.40178 4.20093,11.65658 -0.70478,6.50017 -6.39493,11.49772 z"
             id="US-MI-2"
             style="fill:#f5f5f5;fill-opacity:1;stroke:#dddddd;stroke-width:1;stroke-opacity:1"
             inkscape:connector-curvature="0" />
          <path
             d="m 475.96909,72.975329 -7.99517,5.305722 3.7339,-0.63425 5.78669,-5.427555 -1.48559,0.7525 z"
             id="path145"
             style="fill:#f5f5f5;fill-opacity:1;stroke:#dddddd;stroke-width:1;stroke-opacity:1"
             inkscape:connector-curvature="0" />
          <path
             d="m 508.30458,120.22277 0.54548,1.08695 -0.49118,-1.09173 z"
             id="path147"
             style="fill:#f5f5f5;fill-opacity:1;stroke:#dddddd;stroke-width:1;stroke-opacity:1"
             inkscape:connector-curvature="0" />
          <path
             d="m 541.29778,174.17702 -0.20757,1.49664 0.20154,-1.68895 z"
             id="path149"
             inkscape:connector-curvature="0"
             style="fill:#a2dbf1;stroke:#92c5d9;stroke-width:1" />
          <path
             d="m 546.82621,167.54188 1.18751,-0.36789 -1.12234,0.301 z"
             id="path151"
             inkscape:connector-curvature="0"
             style="fill:#a2dbf1;stroke:#92c5d9;stroke-width:1" />
          <path
             d="m 506.77313,126.7958 -0.40429,-1.75583 0.32705,1.58741 z"
             id="path153"
             style="fill:#f5f5f5;fill-opacity:1;stroke:#dddddd;stroke-width:1;stroke-opacity:1"
             inkscape:connector-curvature="0" />
          <path
             d="m 529.75939,106.28958 -1.28526,-1.02842 1.22733,1.15383 z"
             id="path155"
             style="fill:#a2dbf1;stroke:#dddddd;stroke-width:1;stroke-opacity:1"
             inkscape:connector-curvature="0" />
          <path
             d="m 498.64882,102.92841 0.34515,-1.90992 -0.42721,1.81675 z"
             id="path157"
             style="fill:#f5f5f5;fill-opacity:1;stroke:#dddddd;stroke-width:1;stroke-opacity:1"
             inkscape:connector-curvature="0" />
          <path
             d="m 511.57023,116.93447 1.40473,0.50166 -0.0941,-2.52386 -1.2925,1.87408 z"
             id="path159"
             style="fill:#f5f5f5;fill-opacity:1;stroke:#dddddd;stroke-width:1;stroke-opacity:1"
             inkscape:connector-curvature="0" />
          <path
             d="m 525.84085,114.0021 -1.97194,-0.0394 2.04676,1.55158 -0.0591,-1.60294 z"
             id="path161"
             style="fill:#f5f5f5;fill-opacity:1;stroke:#dddddd;stroke-width:1;stroke-opacity:1"
             inkscape:connector-curvature="0" />
          <path
             d="m 547.27153,167.78435 1.56886,-0.58647 -1.24181,0.37744 z"
             id="path163"
             inkscape:connector-curvature="0"
             style="fill:#a2dbf1;stroke:#92c5d9;stroke-width:1" />
          <path
             d="m 527.53764,102.41599 2.06245,2.74962 -0.0628,-3.43881 -1.91643,0.47539 z"
             id="path165"
             style="fill:#f5f5f5;fill-opacity:1;stroke:#dddddd;stroke-width:1;stroke-opacity:1"
             inkscape:connector-curvature="0" />
          <path
             d="m 536.15432,109.32824 -1.64007,-0.43358 0.47549,1.14786 -2.50777,1.21356 4.1937,0.85761 -0.56359,-2.63614 z"
             id="path167"
             style="fill:#f5f5f5;fill-opacity:1;stroke:#dddddd;stroke-width:1;stroke-opacity:1"
             inkscape:connector-curvature="0" />
          <path
             d="m 477.06367,92.81505 0.73858,0.9245 5.46809,-7.03886 2.7793,-1.164584 -3.7713,-0.492111 -4.62091,1.858556 -2.50536,3.512861 1.74989,1.544416 1.07648,-1.869305 -0.87494,2.529833 z"
             id="path169"
             style="fill:#f5f5f5;fill-opacity:1;stroke:#dddddd;stroke-width:1;stroke-opacity:1"
             inkscape:connector-curvature="0" />
          <path
             d="m 371.22693,58.19408 1.79695,5.16 -0.67823,9.757416 3.56615,9.684555 0.6372,17.007694 2.94101,9.437305 -0.32222,4.48394 -3.32599,3.72309 4.87192,5.18747 -0.002,30.10239 63.18417,-0.004 -2.59224,-8.20583 -16.6022,-12.60378 1.95143,-11.66255 -2.86258,-2.30409 0.17499,-2.42711 6.94162,-6.12391 0.0326,-10.279391 3.39116,-0.7095 -0.80012,-1.391528 16.3548,-14.623582 14.64716,-6.67575 -4.70056,0.149306 -2.93981,-2.233611 -7.37125,0.387 -1.61834,-2.7735 -8.22809,3.617972 -5.88565,-5.655694 -2.50294,0.08003 -1.29492,2.413972 -1.04389,-3.478222 -3.09308,-0.879111 0.93891,-1.438111 -3.86061,-1.604139 -10.01539,2.091472 -0.71564,-2.055639 -8.38135,-1.32225 -1.88023,-1.444083 -1.47473,-9.819527 -1.70041,-0.898222 -2.36415,-0.263973 0.001,7.046028 -25.17422,0.545861 z"
             id="US-MN"
             style="fill:#f5f5f5;fill-opacity:1;stroke:#dddddd;stroke-width:1;stroke-opacity:1"
             inkscape:connector-curvature="0" />
          <path
             d="m 388.90078,199.82054 1.43491,0.42403 -0.0181,3.6992 2.16986,1.06664 0.80857,3.23575 3.40685,2.51549 2.39674,-0.22694 0.80736,2.279 -2.98929,3.06614 3.3634,5.07758 2.93257,0.99856 -0.35239,40.10705 53.89167,0.0215 1.06321,2.90011 -3.78579,4.53889 8.09775,-0.0788 1.39146,-2.0855 -1.32991,-1.53725 2.01659,-0.10034 -0.38738,-4.6225 1.23578,1.58264 1.2213,-2.50475 1.81022,0.67009 1.36854,-5.68317 -3.42857,-1.25775 -1.60266,-9.71442 -10.10348,-7.89408 2.95067,-9.61408 -3.98009,-1.89917 -1.40594,1.48111 -1.22613,-0.75966 -0.87735,-5.16478 -7.7164,-7.35539 -1.70644,-6.15258 1.10303,-3.94645 -2.4438,-2.57522 -1.29371,-1.12158 -48.80856,0.5578 z"
             id="US-MO"
             style="fill:#f5f5f5;fill-opacity:1;stroke:#dddddd;stroke-width:1;stroke-opacity:1"
             inkscape:connector-curvature="0" />
          <path
             d="m 438.61807,337.60806 0.21843,3.52123 23.01765,-0.0621 -1.47956,4.76105 3.41288,6.60408 2.98567,-1.68177 -0.9727,-1.15503 1.52421,1.2255 5.08915,-1.22789 -1.24905,-0.85403 6.81249,1.50978 -0.96063,-21.64214 4.52919,-42.90444 -1.23216,-1.50739 -25.45542,0 10e-4,2.19539 -2.06004,-0.55781 -1.08493,6.69009 -4.3892,2.63733 1.52421,1.10486 -3.38754,2.71617 1.19958,2.74483 -1.90556,0.7752 1.37818,0.77519 -2.37502,-0.0131 1.18993,1.02603 -1.27199,2.38172 1.42163,-0.20067 -1.08734,0.74175 1.81626,-0.62111 -1.88746,7.396 1.53507,-0.69875 -0.79288,5.05728 1.64972,-0.30219 0.33791,2.09027 -1.54714,0.15648 2.90119,1.57666 -1.43974,2.52267 -2.04314,-0.0526 1.91402,0.78117 -3.00136,4.61653 -1.097,-0.42403 0.96063,1.29 -2.99894,1.67939 1.32991,0.59841 -1.43129,0.94839 0.6891,1.97442 -1.20441,-0.59364 0.64082,1.94814 -1.72092,0.42642 z"
             id="US-MS"
             inkscape:connector-curvature="0"
             style="fill:#f5f5f5;stroke:#dddddd;stroke-width:1" />
          <path
             d="m 476.54716,352.05726 1.37094,0.0645 -1.35043,-0.1087 z"
             id="path177"
             inkscape:connector-curvature="0"
             style="fill:#f5f5f5;stroke:#dddddd;stroke-width:1" />
          <path
             d="m 473.52649,351.6189 2.68155,0.26994 -2.66103,-0.29861 z"
             id="path179"
             inkscape:connector-curvature="0"
             style="fill:#f5f5f5;stroke:#dddddd;stroke-width:1" />
          <path
             d="m 144.21477,68.241746 0.0133,7.826 5.07105,8.828138 -1.57611,1.014084 5.30156,2.916833 6.67491,9.800416 5.37516,0.836111 -2.48242,8.712282 1.68351,4.49349 -2.15417,1.89798 0.0169,3.69441 2.79499,1.677 4.80555,-4.01094 5.82893,10.80017 -0.0374,3.27158 3.90526,1.55875 3.33203,6.9218 0.89425,-2.08908 4.75969,0.6235 1.21527,-2.02339 9.87418,0.49689 0.98959,-3.63111 4.06698,4.71567 -0.0748,-8.86636 84.66433,0.0561 -0.10862,-70.130603 -144.82421,-0.02031 -0.01,10.626972 z"
             id="US-MT"
             inkscape:connector-curvature="0"
             style="fill:#f5f5f5;stroke:#dddddd;stroke-width:1" />
          <path
             d="m 527.11525,284.30121 14.64595,-0.17917 8.66495,-3.13781 16.37773,0.96989 2.84447,4.80286 13.54292,0.21859 13.54653,13.64652 6.4432,-0.41088 0.55997,-4.00259 0.4441,3.30384 0.84116,-3.63589 2.67189,-2.55134 6.54578,-4.37047 5.0614,-0.38342 -4.4773,0.38103 1.22493,-0.86836 5.25086,0.129 2.81309,-3.21783 -0.6734,-1.20281 -1.3106,1.53845 -0.30654,-2.26945 -0.31015,1.66028 -3.22944,0.66411 -2.50898,-1.21953 3.00618,-0.0227 3.07256,-3.79594 -5.41378,-2.92162 4.12732,1.10367 -0.0736,-1.76778 1.07286,1.9362 1.17423,-1.20161 -0.0929,1.62086 3.0448,0.31772 3.25479,-4.49708 1.81264,0.08 0.12672,-2.65883 -2.70569,-2.27422 -1.17423,4.60339 -0.12913,-4.99517 -8.07482,0.41806 1.17182,-1.51336 6.70991,-1.18011 -0.83512,-2.21212 4.12973,3.16409 -2.91688,-6.2792 1.37698,-0.79072 -69.41377,-0.55661 -0.36084,3.75772 -1.78126,-0.031 -2.14934,3.21066 -3.85458,0.0561 -2.47881,2.40322 -0.957,-1.65191 -4.28059,4.30358 -10.71895,3.75175 -2.00815,3.58333 -2.94102,0.71189 -0.37773,3.42209 z"
             id="US-NC"
             inkscape:connector-curvature="0"
             style="fill:#f5f5f5;stroke:#dddddd;stroke-width:1" />
          <path
             d="m 629.10587,261.29979 3.94509,11.20389 -3.94268,-11.18478 z"
             id="path185"
             inkscape:connector-curvature="0"
             style="fill:#f5f5f5;stroke:#dddddd;stroke-width:1" />
          <path
             d="m 626.1733,283.96676 0.8677,-0.70233 -0.83632,0.68203 z"
             id="path187"
             inkscape:connector-curvature="0"
             style="fill:#f5f5f5;stroke:#dddddd;stroke-width:1" />
          <path
             d="m 620.91761,289.35848 -1.27923,-0.6653 1.07407,0.53153 z"
             id="path189"
             inkscape:connector-curvature="0"
             style="fill:#f5f5f5;stroke:#dddddd;stroke-width:1" />
          <path
             d="m 627.54304,282.87743 2.76965,-1.54322 -2.61638,1.3318 z"
             id="path191"
             inkscape:connector-curvature="0"
             style="fill:#f5f5f5;stroke:#dddddd;stroke-width:1" />
          <path
             d="m 631.78742,272.09279 -0.86167,-1.72597 0.82667,1.69253 z"
             id="path193"
             inkscape:connector-curvature="0"
             style="fill:#f5f5f5;stroke:#dddddd;stroke-width:1" />
          <path
             d="m 620.774,289.70248 3.27892,-3.81863 -3.26565,3.79236 z"
             id="path195"
             inkscape:connector-curvature="0"
             style="fill:#f5f5f5;stroke:#dddddd;stroke-width:1" />
          <path
             d="m 630.60715,281.34018 2.58863,-0.44433 0.0712,-8.10431 0.0266,7.34822 -2.68517,1.16339 z"
             id="path197"
             inkscape:connector-curvature="0"
             style="fill:#f5f5f5;stroke:#dddddd;stroke-width:1" />
          <path
             d="m 289.03295,62.355524 0.0555,49.270826 90.29051,0.1732 -0.43324,-6.80594 -2.39674,-5.189865 -0.6372,-17.007694 -3.56615,-9.684555 0.67823,-9.757416 -1.67386,-5.735722 -82.30138,0.01314 -0.0157,4.716861 z"
             id="US-ND"
             inkscape:connector-curvature="0"
             style="fill:#f5f5f5;stroke:#dddddd;stroke-width:1" />
          <path
             d="m 288.99072,190.60182 0.004,2.46892 24.15446,-0.0155 0,15.69858 81.38058,0.0478 -6.96334,-11.30422 0.16171,-9.19244 -2.68517,-3.7852 0.35119,-4.12083 -3.40927,-5.93878 -0.461,-4.97128 -11.11118,-6.3855 -6.50112,-0.002 -2.02384,1.71761 -5.85789,-3.85209 -67.03272,-0.0334 -0.005,29.45739 z"
             id="US-NE"
             inkscape:connector-curvature="0"
             style="fill:#f5f5f5;stroke:#dddddd;stroke-width:1" />
          <path
             d="m 669.09379,163.34102 1.19234,2.05325 14.04977,0.48494 5.7155,-2.84875 1.25991,-3.311 -3.28013,-5.17672 -1.16216,-31.98483 -4.32765,1.14069 -2.28451,8.22734 0.66978,4.18175 -5.88324,3.71472 0.41032,3.33011 -4.21421,8.37067 -2.14572,11.80708 z"
             id="US-NH"
             style="fill:#f5f5f5;fill-opacity:1;stroke:#dddddd;stroke-width:1;stroke-opacity:1"
             inkscape:connector-curvature="0" />
          <path
             d="m 643.29564,187.42102 -5.26414,5.82291 0.96666,1.97323 -1.84523,2.74722 5.7867,8.55222 -8.33429,5.36783 -1.74747,2.77828 0.20516,2.49042 4.75245,4.33822 3.06411,0.37028 -0.6022,3.59886 4.71383,-5.54342 -1.10424,-0.28069 2.31347,-0.85523 0.51048,-2.89652 1.26475,0.69636 1.4156,-6.91225 1.52059,-0.86717 -0.44652,3.76608 1.3999,-10.73447 -3.54925,-0.73219 4.64505,-7.96336 -9.663,-5.71542 z"
             id="US-NJ"
             style="fill:#f5f5f5;fill-opacity:1;stroke:#dddddd;stroke-width:1;stroke-opacity:1"
             inkscape:connector-curvature="0" />
          <path
             d="m 646.6168,218.12899 0.99321,-0.45031 -0.992,0.4085 z"
             id="path207"
             inkscape:connector-curvature="0"
             style="fill:#a9dff3;stroke:#98c9db;stroke-width:1" />
          <path
             d="m 645.16862,219.66624 1.5218,-1.01289 -1.45784,0.94839 z"
             id="path209"
             inkscape:connector-curvature="0"
             style="fill:#a9dff3;stroke:#98c9db;stroke-width:1" />
          <path
             d="m 649.91142,213.71313 -1.73782,2.91086 1.88022,-3.26681 z"
             id="path211"
             inkscape:connector-curvature="0"
             style="fill:#a9dff3;stroke:#98c9db;stroke-width:1" />
          <path
             d="m 228.68963,334.41531 0.002,2.06878 10.15416,-0.0167 0.002,-6.31025 20.27696,0.006 -1.08976,-3.05777 42.89152,0 0.75065,-72.50636 -72.92803,0.0155 -0.0591,79.72199 z"
             id="US-NM"
             inkscape:connector-curvature="0"
             style="fill:#f5f5f5;stroke:#dddddd;stroke-width:1" />
          <path
             d="m 96.467011,220.07952 0.06637,4.20922 64.775959,59.81658 -1.47111,-15.93508 4.60643,-0.83492 2.68275,1.7833 1.29733,-2.51669 0.0266,-89.35638 -71.896186,-0.0179 -0.0881,42.74797 z"
             id="US-NV"
             inkscape:connector-curvature="0"
             style="fill:#f5f5f5;stroke:#dddddd;stroke-width:1" />
          <path
             d="m 655.77897,192.79602 -0.81219,-1.29836 2.95791,-1.77734 -0.30653,-13.96305 2.93377,-10.67356 0.2824,-12.91552 -0.78202,-1.53964 -1.50611,0.66052 1.062,-23.74077 -17.1513,0.11705 -6.37683,2.76873 -6.87524,8.12461 -6.20063,4.15786 1.12234,2.33633 0.93166,-1.89558 -0.0121,1.77972 1.68472,-0.344 -2.83119,2.16433 1.14647,5.10984 -7.49916,4.4935 -8.53462,0.73816 -2.67793,-1.72478 -8.83994,-0.54944 -6.92231,1.80361 2.50656,7.87617 -10.93378,8.31572 0.008,4.343 53.12052,-0.01 3.46839,2.98014 1.08252,5.32961 13.13622,7.67431 -1.59542,4.69058 4.41575,-5.02742 z"
             id="US-NY"
             style="fill:#f5f5f5;fill-opacity:1;stroke:#dddddd;stroke-width:1;stroke-opacity:1"
             inkscape:connector-curvature="0" />
          <path
             d="m 628.25989,138.56824 -1.0982,1.19922 1.23457,-1.27566 z"
             id="path219"
             inkscape:connector-curvature="0"
             style="fill:#9ad7ef;stroke:#8bc2d7;stroke-width:1" />
          <path
             d="m 650.61982,198.60221 -2.06487,2.39367 2.07452,-2.36142 z"
             id="path221"
             style="fill:#9ad7ef;stroke:#dddddd;stroke-width:1;stroke-opacity:1"
             inkscape:connector-curvature="0" />
          <path
             d="m 664.9882,197.33968 1.6111,-0.56975 -1.46629,0.55542 z"
             id="path223"
             style="fill:#9ad7ef;stroke:#dddddd;stroke-width:1;stroke-opacity:1"
             inkscape:connector-curvature="0" />
          <path
             d="m 654.6518,199.64735 2.16744,-0.13617 -2.16503,0.0979 z"
             id="path225"
             style="fill:#9ad7ef;stroke:#dddddd;stroke-width:1;stroke-opacity:1"
             inkscape:connector-curvature="0" />
          <path
             d="m 666.90824,196.59674 3.03274,-0.95795 -2.80948,0.96273 z"
             id="path227"
             style="fill:#9ad7ef;stroke:#dddddd;stroke-width:1;stroke-opacity:1"
             inkscape:connector-curvature="0" />
          <path
             d="m 675.72405,188.83285 1.027,-0.37625 -1.04993,0.45628 z"
             id="path229"
             style="fill:#9ad7ef;stroke:#dddddd;stroke-width:1;stroke-opacity:1"
             inkscape:connector-curvature="0" />
          <path
             d="m 591.95759,161.61505 -0.6203,-1.71881 0.49721,1.70328 z"
             id="path231"
             inkscape:connector-curvature="0"
             style="fill:#9ad7ef;stroke:#8bc2d7;stroke-width:1" />
          <path
             d="m 659.94249,198.98802 4.88641,-1.49186 -4.88158,1.44527 z"
             id="path233"
             style="fill:#9ad7ef;stroke:#dddddd;stroke-width:1;stroke-opacity:1"
             inkscape:connector-curvature="0" />
          <path
             d="m 657.76418,199.34635 2.96033,-0.57572 -3.06653,0.61753 z"
             id="path235"
             style="fill:#9ad7ef;stroke:#dddddd;stroke-width:1;stroke-opacity:1"
             inkscape:connector-curvature="0" />
          <path
             d="m 672.46081,192.68971 -0.70598,-1.28044 0.66012,1.23147 z"
             id="path237"
             style="fill:#9ad7ef;stroke:#dddddd;stroke-width:1;stroke-opacity:1"
             inkscape:connector-curvature="0" />
          <path
             d="m 675.32821,193.0576 -3.50218,-0.51958 -2.05521,2.45697 7.77915,-3.03747 -2.18434,1.02602 z"
             id="path239"
             style="fill:#f5f5f5;fill-opacity:1;stroke:#dddddd;stroke-width:1;stroke-opacity:1"
             inkscape:connector-curvature="0" />
          <path
             d="m 661.74548,197.33729 7.92155,-1.78808 -1.6642,-1.12158 4.92623,-3.89389 -4.86951,2.86786 -6.28752,0.21619 -0.44411,1.35809 -3.50822,-1.02603 0.24619,1.34733 -3.186,-0.086 -3.75683,3.82581 1.25871,1.17414 9.41077,-2.80456 z"
             id="path241"
             style="fill:#f5f5f5;fill-opacity:1;stroke:#dddddd;stroke-width:1;stroke-opacity:1"
             inkscape:connector-curvature="0" />
          <path
             d="m 521.10047,221.87954 4.47126,0.59125 2.85895,4.79331 5.40414,2.33753 2.94584,-0.76564 2.73706,1.62802 4.87313,-2.44263 3.70494,5.29138 3.08945,-0.55661 3.49615,-8.84127 1.62559,2.26944 1.69316,-0.73697 0.94011,-5.32364 2.76,-2.15119 2.88188,0.33563 4.65108,-4.92708 2.79981,-9.5448 -0.81942,-4.1722 1.79574,-0.86955 -0.004,-21.22886 -9.30336,3.36236 -5.40413,4.33941 -9.06803,1.7857 -2.29175,-1.68895 1.13079,1.23625 -4.20094,-0.10033 2.67672,-1.94097 -2.86377,0.28428 -6.00272,-3.4185 -16.40548,0.59244 -0.17258,39.85622 z"
             id="US-OH"
             inkscape:connector-curvature="0"
             style="fill:#f5f5f5;stroke:#dddddd;stroke-width:1" />
          <path
             d="m 301.67437,262.04632 36.22989,0.0119 10e-4,28.466 3.68442,2.63853 3.49615,0.0788 0.43928,-1.23983 2.16141,3.53197 8.48997,2.18942 4.54729,-1.31986 1.72333,3.92255 3.56495,-1.57905 2.95429,2.47847 2.6019,-1.39033 0.92925,2.84516 1.8416,-3.42566 2.65138,1.89797 2.09624,-1.0117 2.90844,2.99806 4.15145,-2.69347 8.61668,0.007 0.86891,-1.2888 8.80133,4.80166 0.68668,-25.57066 -2.26037,-23.77781 -101.18205,-0.0179 -0.004,7.44616 z"
             id="US-OK"
             inkscape:connector-curvature="0"
             style="fill:#f5f5f5;stroke:#dddddd;stroke-width:1" />
          <path
             d="m 45.7191,177.1691 86.71471,-0.0287 -0.0772,-29.84916 1.67023,-5.51475 -3.66752,-1.85856 -0.54065,-2.03175 9.40473,-20.39394 -1.0089,-2.54536 -4.45678,-4.18175 -24.8689,-0.0824 -17.218881,5.1612 -2.78775,-0.7967 -6.431134,2.38889 -2.050384,-1.68894 -5.714284,-0.0311 -5.856689,2.78545 -5.638254,-1.93739 -0.605823,-5.20659 -3.643384,-3.86163 -3.083421,0.67008 -1.56645,-2.15119 -4.371095,2.05563 -1.916427,-1.28522 1.059586,13.92245 -2.387086,23.55324 -5.179664,19.32492 1.927289,3.45433 0.56117,8.39575 1.700407,1.64236 z"
             id="US-OR"
             inkscape:connector-curvature="0"
             style="fill:#f5f5f5;stroke:#dddddd;stroke-width:1" />
          <path
             d="m 572.99848,194.56977 0.007,18.56644 57.26714,-0.0108 1.67989,-1.68178 5.92669,-0.85044 5.09398,-4.19608 -5.82049,-8.43278 1.84523,-2.74722 -0.96666,-1.97323 5.32931,-5.92563 -3.54564,-1.86453 -1.07286,-5.32006 -3.46839,-2.98014 -53.12052,0.01 -0.008,-4.343 -9.13923,4.74553 -0.005,16.93005 z"
             id="US-PA"
             style="fill:#f5f5f5;fill-opacity:1;stroke:#dddddd;stroke-width:1;stroke-opacity:1"
             inkscape:connector-curvature="0" />
          <path
             d="m 578.44123,174.45174 -0.8846,0.79431 0.88098,-0.731 z"
             id="path251"
             inkscape:connector-curvature="0"
             style="fill:#aadff3;stroke:#99c9db;stroke-width:1" />
          <path
             d="m 686.42853,185.15396 -0.99201,-2.9443 -0.0157,3.54511 1.0077,-0.60081 z"
             id="path253"
             style="fill:#a6ddf2;stroke:#dddddd;stroke-width:1;stroke-opacity:1"
             inkscape:connector-curvature="0" />
          <path
             d="m 685.24585,182.91916 -1.67748,3.02911 1.67144,-2.99089 z"
             id="path255"
             style="fill:#a6ddf2;stroke:#dddddd;stroke-width:1;stroke-opacity:1"
             inkscape:connector-curvature="0" />
          <path
             d="m 685.09741,181.66738 -0.94615,0.95078 0.91115,-0.87075 z"
             id="path257"
             style="fill:#a6ddf2;stroke:#dddddd;stroke-width:1;stroke-opacity:1"
             inkscape:connector-curvature="0" />
          <path
             d="m 684.3359,180.89577 -1.05234,-4.05395 -5.04209,0.1732 -1.15734,11.16208 4.90813,-0.87194 0.37894,-5.24959 0.81702,-1.79525 1.10183,0.93286 z"
             id="US-RI"
             style="fill:#f5f5f5;fill-opacity:1;stroke:#dddddd;stroke-width:1;stroke-opacity:1"
             inkscape:connector-curvature="0" />
          <path
             d="m 683.62992,182.7173 0.33428,1.08097 -0.2655,-1.1407 z"
             id="path261"
             style="fill:#a6ddf2;stroke:#dddddd;stroke-width:1;stroke-opacity:1"
             inkscape:connector-curvature="0" />
          <path
             d="m 683.00599,185.87421 0.41032,-1.92186 -0.42721,1.86095 z"
             id="path263"
             style="fill:#a6ddf2;stroke:#dddddd;stroke-width:1;stroke-opacity:1"
             inkscape:connector-curvature="0" />
          <path
             d="m 538.79725,288.50565 5.97134,3.54033 3.64821,7.36734 12.8502,13.40644 4.52315,12.63483 2.40399,1.12875 2.94222,-2.54058 -1.97798,-3.64067 2.38588,3.08764 2.06125,-2.00069 -0.92563,-1.6137 2.57414,0.49331 5.09398,-2.71856 -0.24257,-1.34375 8.96787,-5.84083 -1.03666,-1.81914 1.13803,1.36406 2.4076,-5.64375 5.15553,-3.74459 -13.54653,-13.64652 -13.54292,-0.21859 -2.84447,-4.80286 -16.40911,-0.9675 -8.63719,3.13542 -2.95912,4.38003 z"
             id="US-SC"
             inkscape:connector-curvature="0"
             style="fill:#f5f5f5;stroke:#dddddd;stroke-width:1" />
          <path
             d="m 583.4097,314.61979 1.10665,-0.62231 -1.07165,0.46225 z"
             id="path267"
             inkscape:connector-curvature="0"
             style="fill:#f5f5f5;stroke:#dddddd;stroke-width:1" />
          <path
             d="m 572.50972,322.84712 1.52783,-1.52172 -1.47111,1.41064 z"
             id="path269"
             inkscape:connector-curvature="0"
             style="fill:#f5f5f5;stroke:#dddddd;stroke-width:1" />
          <path
             d="m 288.94003,127.79913 0.0567,33.13389 67.03272,0.0334 5.59239,3.82223 2.33037,-1.69492 7.29039,0.24486 9.56282,5.88981 -2.34122,-3.99303 2.44863,-6.25889 -2.00694,-5.41681 1.8054,-0.82177 0.002,-30.10239 -4.87192,-5.18747 3.53718,-5.64853 -90.29051,-0.1732 -0.14844,16.15248 z"
             id="US-SD"
             inkscape:connector-curvature="0"
             style="fill:#f5f5f5;stroke:#dddddd;stroke-width:1" />
          <path
             d="m 454.84615,284.06948 72.2691,0.23173 0.38256,-3.4627 2.94102,-0.71189 2.00815,-3.58333 10.71895,-3.75175 4.28059,-4.30358 0.957,1.65191 2.47881,-2.40322 3.85458,-0.0561 2.14934,-3.21066 1.78126,0.031 0.73013,-4.11128 -77.52117,-0.98541 0.20878,2.69228 -17.93574,-0.0155 0.0567,3.64425 -2.06124,0.20066 1.36732,1.31509 -1.7004,2.20972 1.03545,1.55994 -3.72907,2.37934 0.57082,3.12705 -1.52179,-0.46941 -0.0772,2.28736 -0.6903,-1.20281 -0.9727,1.37003 1.25872,0.0143 -1.13321,1.52172 1.2563,2.06639 -2.95791,1.88484 z"
             id="US-TN"
             style="fill:#f5f5f5;fill-opacity:1;stroke:#dddddd;stroke-width:1;stroke-opacity:1"
             inkscape:connector-curvature="0" />
          <path
             d="m 257.70878,328.58404 15.10937,14.60447 5.6829,3.45194 5.01675,13.35389 13.54412,8.38978 3.25116,0.4933 2.9905,-3.22977 2.32312,-7.13681 3.47926,-0.26755 0.7965,-1.591 11.08342,1.48469 8.78081,9.17214 4.67642,11.23255 9.35284,9.5902 0.78926,7.31597 4.38196,8.37664 10.74068,4.54247 6.41062,0.24128 3.23427,2.66719 2.99773,-1.58622 -2.80705,-15.18736 3.92698,-9.92703 -2.50173,2.39367 -1.55438,6.63872 2.28933,14.90189 -3.16548,-4.25342 -1.49887,-6.44761 1.9647,-5.52669 -4.24921,-0.13975 1.47473,-0.39298 -1.50973,-2.0425 1.98884,2.3232 1.22492,-1.37958 -0.35118,1.37241 1.50731,-0.516 2.10952,-4.97725 -1.80661,-1.68297 2.34123,-0.0884 2.08056,-2.83083 -2.20969,-0.817 5.12898,-1.84542 -0.13154,-3.47583 1.54472,2.3208 3.24031,-1.67819 -2.96153,-1.90275 0.47669,-2.44264 1.3975,2.57642 1.36732,-0.74414 -0.8146,-1.98875 0.9389,1.95172 2.59346,-1.86692 -0.96305,2.51192 3.04963,-1.09292 -4.66917,3.50928 12.8695,-7.22161 0.96787,-4.04439 1.40836,0.75609 3.4515,-2.623 -3.186,-2.50595 1.30578,-2.14641 2.90722,-1.19684 -0.61065,3.55109 3.80148,-0.38103 -3.69407,2.70183 11.28133,-4.3418 -1.49404,-2.13806 3.12928,-3.16289 -0.48755,-6.66739 2.80344,-6.83939 -6.45165,-13.47811 -0.34636,-22.5953 -3.80751,0.55422 -10.0178,-5.99969 -0.86891,1.2888 -8.61668,-0.007 -4.15145,2.69347 -2.90844,-2.99806 -2.09624,1.0117 -2.65138,-1.89797 -1.8416,3.42566 -0.92925,-2.84516 -2.6019,1.39033 -2.95429,-2.47847 -3.56495,1.57905 -1.72333,-3.92255 -4.54729,1.31986 -8.48997,-2.18942 -2.16141,-3.53197 -0.43928,1.23983 -3.49615,-0.0788 -3.68442,-2.63853 -10e-4,-28.466 -36.70537,-0.01 -0.27154,65.05661 -42.89152,0 -0.32705,1.47633 z"
             id="US-TX"
             style="fill:#f5f5f5;fill-opacity:1;stroke:#dddddd;stroke-width:1;stroke-opacity:1"
             inkscape:connector-curvature="0" />
          <path
             d="m 379.07366,378.38401 -3.04239,2.9455 5.2919,-4.36689 -2.20245,1.41064 z"
             id="path277"
             inkscape:connector-curvature="0"
             style="fill:#aadff3;stroke:#99c9db;stroke-width:1" />
          <path
             d="m 374.13898,383.07101 -0.63117,1.3545 2.64294,-3.62156 -1.99487,2.24078 z"
             id="path279"
             inkscape:connector-curvature="0"
             style="fill:#aadff3;stroke:#99c9db;stroke-width:1" />
          <path
             d="m 411.94859,355.94995 -0.49841,2.37097 0.41394,-2.28616 z"
             id="path281"
             inkscape:connector-curvature="0"
             style="fill:#aadff3;stroke:#99c9db;stroke-width:1" />
          <path
             d="m 398.50222,366.10154 -1.58937,1.34136 4.65228,-3.25725 -3.0086,1.83944 z"
             id="path283"
             inkscape:connector-curvature="0"
             style="fill:#aadff3;stroke:#99c9db;stroke-width:1" />
          <path
             d="m 168.31493,246.25218 0.029,8.342 60.40607,0.0203 -0.0591,-61.53181 -24.09533,0.043 0,-16.00675 -36.14421,0.12662 -0.13637,68.93496 z"
             id="US-UT"
             inkscape:connector-curvature="0"
             style="fill:#f5f5f5;stroke:#dddddd;stroke-width:1" />
          <path
             d="m 534.94026,260.55565 92.76208,0.74772 0.42118,-2.51669 0.98235,2.51311 -1.57248,-5.58403 -5.38,0.30698 -2.87947,-4.24387 -3.12566,-0.56616 3.48529,0.0645 2.58984,3.74219 1.63041,-0.42164 0.0857,-1.82869 -6.15598,-5.57089 4.17197,3.75892 2.2821,-0.95556 0.23653,-2.09864 -1.79454,-1.26252 1.19113,-0.34042 -3.24754,-1.12397 -4.01509,-5.25317 6.54699,5.62464 1.44094,-4.01572 -4.5316,-4.22953 -4.06577,-0.91136 -1.01494,-2.83203 -3.00015,0.74772 3.00498,-8.04816 -5.7879,-3.83656 -0.56238,-2.85233 -1.98038,-0.14453 -1.17545,2.82128 -6.26217,-5.15045 -0.68306,4.60936 -5.61533,6.21112 -1.57852,-1.27328 -3.4165,6.54555 -4.41937,-2.64689 -7.8057,13.64892 -0.16171,2.86308 -16.52014,4.52814 -3.02066,-2.3853 -0.47669,-2.67078 -9.08735,6.26366 -4.99984,5.65331 -6.5132,2.11297 z"
             id="US-VA"
             inkscape:connector-curvature="0"
             style="fill:#f5f5f5;stroke:#dddddd;stroke-width:1" />
          <path
             d="m 636.70038,239.13449 -1.89471,2.37933 1.8766,-2.34828 z"
             id="path289"
             inkscape:connector-curvature="0"
             style="fill:#f5f5f5;stroke:#dddddd;stroke-width:1" />
          <path
             d="m 634.98911,239.32201 -4.61608,1.80959 1.26957,0.57691 -3.43219,4.386 1.26957,0.16125 -2.23985,3.76609 0.61186,2.88339 7.12867,-13.51036 z"
             id="path291"
             inkscape:connector-curvature="0"
             style="fill:#f5f5f5;stroke:#dddddd;stroke-width:1" />
          <path
             d="m 630.88593,248.98865 0.59737,-1.19086 -0.56841,1.15025 z"
             id="path293"
             inkscape:connector-curvature="0"
             style="fill:#f5f5f5;stroke:#dddddd;stroke-width:1" />
          <path
             d="m 628.8102,252.29726 0.9908,-0.75369 -0.85684,0.66769 z"
             id="path295"
             inkscape:connector-curvature="0"
             style="fill:#f5f5f5;stroke:#dddddd;stroke-width:1" />
          <path
             d="m 634.475,241.12801 1.30578,-1.31747 -1.28647,1.28284 z"
             id="path297"
             inkscape:connector-curvature="0"
             style="fill:#f5f5f5;stroke:#dddddd;stroke-width:1" />
          <path
             d="m 628.48557,251.19479 0.0965,1.22072 -0.0664,-1.29239 z"
             id="path299"
             inkscape:connector-curvature="0"
             style="fill:#f5f5f5;stroke:#dddddd;stroke-width:1" />
          <path
             d="m 658.46534,143.72585 0.0845,7.58353 1.50249,-0.68083 0.78202,1.53964 -0.41998,12.91433 9.87178,0.31175 -1.17182,-2.4092 2.1252,-11.46188 4.21059,-8.35992 -0.0277,-4.02289 5.50429,-3.03269 -0.66978,-4.18175 2.0178,-4.42781 -22.66646,0.0502 0.59858,9.61289 -1.73902,6.54914 z"
             id="US-VT"
             style="fill:#f5f5f5;fill-opacity:1;stroke:#dddddd;stroke-width:1;stroke-opacity:1"
             inkscape:connector-curvature="0" />
          <path
             d="m 47.849134,106.12474 4.251621,-0.71069 3.758031,2.752 3.083421,-0.67008 3.643384,3.86163 0.605823,5.20659 5.65877,1.93858 5.836173,-2.78664 5.714284,0.0311 2.050384,1.68894 6.431134,-2.38889 2.78775,0.7967 17.099411,-5.15522 24.99803,0.0776 -1.77403,-6.18006 0.36567,-46.944053 -69.092754,-0.05136 1.017348,4.8805 1.656961,-0.796695 1.390255,3.216639 -1.662995,0.299805 0.620304,3.836556 2.57173,2.877416 -0.850807,1.550389 2.379845,1.596972 -2.759993,4.4505 0.852014,7.802111 -2.559662,0.5805 -1.688338,3.677694 -1.655755,-1.355695 -1.153718,2.35425 -0.191884,-1.782111 -0.777191,1.991139 0.87253,-2.471305 -1.953839,1.441694 1.713682,-1.888417 -1.866948,-0.168416 1.920048,0.01553 1.291295,-3.498528 0.661337,4.169805 1.705234,-4.291638 -0.786846,2.230027 1.442148,0.498084 0.977523,-4.452889 -0.727712,-1.423778 -1.6992,1.090528 0.04827,-2.041305 1.211645,0.885083 -0.702368,-2.768722 0.7434,1.059472 1.396289,-1.04275 -1.666616,-3.408944 0.576859,2.114166 -6.636293,7.898861 3.283752,-1.016472 -3.789409,1.415416 3.569768,-8.40411 0.611857,2.597916 2.376225,-3.653805 -1.751093,-4.518583 -1.309398,2.5155 -3.803891,-2.564472 0.942525,-0.723834 -2.603107,1.293584 -7.908279,-0.883889 -8.966659,-4.079028 0.521345,7.579944 3.006184,4.061111 3.052044,14.254499 0.971488,-1.975611 4.857443,1.469167 -3.537184,0.63425 -0.482727,1.479916 -1.372152,-1.144277 0.5841,3.159305 3.53477,0.940028 -2.000904,0.554222 1.399909,4.043188 -1.104239,-0.87672 -0.176195,1.49306 -1.343189,-4.663111 0.2655,6.412971 z"
             id="US-WA"
             inkscape:connector-curvature="0"
             style="fill:#f5f5f5;stroke:#dddddd;stroke-width:1" />
          <path
             d="m 64.89182,63.97758 -1.111479,-1.737917 0.936491,1.679389 z"
             id="path305"
             inkscape:connector-curvature="0"
             style="fill:#f5f5f5;stroke:#dddddd;stroke-width:1" />
          <path
             d="m 63.66328,64.905663 0.475486,0.980639 -0.496002,-1.039167 z"
             id="path307"
             inkscape:connector-curvature="0"
             style="fill:#f5f5f5;stroke:#dddddd;stroke-width:1" />
          <path
             d="m 48.634773,102.39688 0.337909,1.26731 -0.340323,-1.19922 z"
             id="path309"
             inkscape:connector-curvature="0"
             style="fill:#f5f5f5;stroke:#dddddd;stroke-width:1" />
          <path
             d="m 64.069977,73.965524 0.05793,1.540833 -0.0712,-1.434528 z"
             id="path311"
             inkscape:connector-curvature="0"
             style="fill:#f5f5f5;stroke:#dddddd;stroke-width:1" />
          <path
             d="m 64.551498,88.536551 0.58772,0.95675 -0.599788,-0.937639 z"
             id="path313"
             inkscape:connector-curvature="0"
             style="fill:#f5f5f5;stroke:#dddddd;stroke-width:1" />
          <path
             d="m 65.928477,71.992302 2.152964,2.699444 -1.491627,-2.299305 0.949766,-1.19325 -1.576105,0.327277 z"
             id="path315"
             inkscape:connector-curvature="0"
             style="fill:#f5f5f5;stroke:#dddddd;stroke-width:1" />
          <path
             d="m 65.819864,67.681552 0.407904,1.254166 -0.511691,-2.240777 -1.765575,0.03464 0.567205,1.571889 1.315432,-0.759667 z"
             id="path317"
             inkscape:connector-curvature="0"
             style="fill:#f5f5f5;stroke:#dddddd;stroke-width:1" />
          <path
             d="m 58.364141,66.096524 2.44622,1.465583 -1.730577,-3.062555 -0.64082,1.464389 z"
             id="path319"
             inkscape:connector-curvature="0"
             style="fill:#f5f5f5;stroke:#dddddd;stroke-width:1" />
          <path
             d="m 62.032868,67.451024 -0.357218,-2.058028 -0.707195,1.914695 1.20199,0.106305 z"
             id="path321"
             inkscape:connector-curvature="0"
             style="fill:#f5f5f5;stroke:#dddddd;stroke-width:1" />
          <path
             d="m 60.578652,64.574802 1.374566,0.291445 -0.642027,-1.624445 1.140443,1.628028 0.990798,-1.10725 -2.43898,-0.918528 -0.400663,1.804806 z"
             id="path323"
             inkscape:connector-curvature="0"
             style="fill:#f5f5f5;stroke:#dddddd;stroke-width:1" />
          <path
             d="m 61.419805,89.439551 0.383768,1.04275 0.352391,-2.451 -0.751848,1.404666 z"
             id="path325"
             inkscape:connector-curvature="0"
             style="fill:#f5f5f5;stroke:#dddddd;stroke-width:1" />
          <path
             d="m 66.224148,80.88494 -0.103787,2.336333 0.143612,-2.325583 z"
             id="path327"
             inkscape:connector-curvature="0"
             style="fill:#f5f5f5;stroke:#dddddd;stroke-width:1" />
          <path
             d="m 66.045539,86.402079 0.364459,1.119194 1.488007,-1.02125 -1.211646,-2.166722 -0.643234,2.021 z"
             id="path329"
             inkscape:connector-curvature="0"
             style="fill:#f5f5f5;stroke:#dddddd;stroke-width:1" />
          <path
             d="m 64.522534,71.199191 1.815055,-0.876723 -1.264746,-2.028166 -1.944184,3.348027 4.69573,5.709445 0.03379,-2.245556 -1.755921,-1.131139 -0.199125,1.4835 -1.421632,-4.169805 z"
             id="path331"
             inkscape:connector-curvature="0"
             style="fill:#f5f5f5;stroke:#dddddd;stroke-width:1" />
          <path
             d="m 423.7211,116.83652 2.93016,3.40297 -1.95022,11.68525 10.19279,6.52047 1.06682,2.69467 7.13351,5.87189 0.83391,7.92992 1.89591,1.82152 -1.46749,3.07809 1.51818,5.36783 4.15748,1.66028 0.83633,2.07355 34.34967,0.26756 -1.3444,-12.17617 7.16247,-25.65905 -1.31664,-1.82511 -1.81868,0.6653 -5.24,5.53506 2.08779,-6.82625 2.5488,-0.75967 0.48876,-1.80958 -1.8778,-1.55397 0.95459,-3.32175 -2.78534,0.23889 1.27802,-5.59717 -4.19852,-2.16792 0.33308,-1.91828 -24.35359,-7.1583 -1.16699,-2.86308 -6.75215,-3.870003 1.027,1.199222 -3.06049,1.141891 2.32916,-5.179113 -1.3806,-1.324639 -11.18117,4.757472 -3.80268,-1.02125 -2.20969,1.410639 -0.0326,10.279391 -5.05053,3.14019 -2.13366,4.28089 z"
             id="US-WI"
             style="fill:#f5f5f5;stroke:#dddddd;stroke-width:1;stroke-opacity:1"
             inkscape:connector-curvature="0" />
          <path
             d="m 495.40731,121.70508 1.30699,-0.57692 -1.3444,0.0824 z"
             id="path335"
             inkscape:connector-curvature="0"
             style="fill:#f5f5f5;stroke:#dddddd;stroke-width:1" />
          <path
             d="m 451.58292,96.1368 -2.54398,1.493056 2.49329,-1.473945 z"
             id="path337"
             inkscape:connector-curvature="0"
             style="fill:#f5f5f5;stroke:#dddddd;stroke-width:1" />
          <path
             d="m 494.26807,124.9253 0.6179,-2.193 -4.80555,6.10242 0.98717,2.30766 3.20773,-6.1048 z"
             id="path339"
             inkscape:connector-curvature="0"
             style="fill:#f5f5f5;stroke:#dddddd;stroke-width:1" />
          <path
             d="m 453.77691,92.481801 -0.85081,1.027222 0.85202,-1.020056 z"
             id="path341"
             inkscape:connector-curvature="0"
             style="fill:#f5f5f5;stroke:#dddddd;stroke-width:1" />
          <path
             d="m 452.30218,94.444273 -1.61352,0.295027 1.61352,-0.293833 z"
             id="path343"
             inkscape:connector-curvature="0"
             style="fill:#f5f5f5;stroke:#dddddd;stroke-width:1" />
          <path
             d="m 547.35963,237.02988 4.10318,7.41272 4.34937,2.18344 0.18706,2.57045 3.02066,2.3853 3.78579,-2.04728 1.68231,1.548 3.93302,-1.21355 0.4791,-1.71045 4.63298,0.0991 2.12159,-1.28402 0.0471,-2.78306 7.8057,-13.64892 4.41937,2.64689 3.4165,-6.54555 1.57852,1.27328 5.61533,-6.21112 0.68306,-4.60936 6.26217,5.15045 0.75065,-5.61031 -4.89245,-3.09839 -3.62648,2.78545 -3.5565,-2.05086 -2.29175,3.22261 -1.75712,-0.56139 -4.64384,4.17817 0.1231,-7.96934 -12.58229,-0.006 0.004,-14.34169 -1.29612,0.29264 0.3198,4.74911 -3.38512,10.86347 -4.06577,3.60841 -2.88188,-0.33563 -2.74551,2.13686 -0.9546,5.33797 -1.69316,0.73697 -1.62559,-2.26944 -2.21934,3.6323 0.53462,2.80695 -1.84643,2.43188 -3.20289,0.34759 -0.58531,3.88194 z"
             id="US-WV"
             inkscape:connector-curvature="0"
             style="fill:#f5f5f5;stroke:#dddddd;stroke-width:1" />
          <path
             d="m 204.47241,129.97899 0.1231,63.14669 84.39883,-0.0549 -0.0543,-65.29789 -84.4471,-0.0669 -0.0205,2.26825 z"
             id="US-WY"
             inkscape:connector-curvature="0"
             style="fill:#f5f5f5;stroke:#dddddd;stroke-width:1" />
        </g>
      </g>
      <g
         id="g767">
        <g
           id="g769" />
        <g
           id="g771" />
        <g
           id="g773" />
      </g>
      <g
         id="g775" />
    </g>
    <g
       id="g793" />
    <g
       id="g795" />
  </g>
</svg>
